
<svg xmlns="http://www.w3.org/2000/svg" xmlns:xlink="http://www.w3.org/1999/xlink" width="1200" height="630" viewBox="0 0 1200 630">
  <defs>
    <clipPath id="clip-background_">
      <rect width="1200" height="630"/>
    </clipPath>
  </defs>
  <g id="background_" data-name="background " clip-path="url(#clip-background_)">
    <rect width="1200" height="630" fill="#fff"/>
    <path id="Path_1" data-name="Path 1" d="M532.406,128.688c-54.882-1.9-107.157-19.63-157.069-39.01S275.975,48.82,222.412,38.547c-34.456-6.606-73.86-7.523-101.619,10.932-26.721,17.774-35.35,48.487-39.987,76.936-3.493,21.425-5.546,43.942,4.015,64.026,6.644,13.917,18.44,25.623,26.6,38.957,28.373,46.412,8.334,103.634-22.441,148.94C74.586,399.6,57.82,419.871,46.69,442.5s-16.281,48.548-6.546,71.625c9.66,22.88,32.661,40.063,57.579,52.147,50.616,24.547,110.264,31.577,168.426,35.555,128.757,8.773,258.2,4.985,387.286,1.2,47.775-1.417,95.755-2.849,142.758-10.235,26.092-4.1,53.033-10.607,71.974-26.327,24.055-19.956,30.017-53.745,13.895-78.792-27.032-41.964-101.786-52.389-120.681-97.43-10.4-24.789.28-52.4,15.395-75.4,32.426-49.328,86.777-92.6,89.641-148.978,1.97-38.722-24.161-77.5-64.557-95.823-42.351-19.206-101.066-16.789-132.31,15C637.4,117.779,580.863,130.37,532.406,128.688Z" transform="translate(101.718 -34.225)" fill="#a0cadb" opacity="0.1"/>
    <path id="Path_2" data-name="Path 2" d="M616.915,734.076,469.18,732.182l.432-3.788,7.144-62.5H606.5l9.546,62.5.727,4.735Z" transform="translate(22.997 -161.405)" fill="#d0d2d5"/>
    <path id="Path_3" data-name="Path 3" d="M616.771,753.125H543.048l-73.868-.947.432-3.788H616.044Z" transform="translate(22.997 -181.401)" opacity="0.1"/>
    <rect id="Rectangle_7" data-name="Rectangle 7" width="196.033" height="4.735" transform="translate(467.555 567.936)" fill="#d0d2d5"/>
    <path id="Path_4" data-name="Path 4" d="M794.3,200.627a12.326,12.326,0,0,0-12.266-12.387H234.573A12.326,12.326,0,0,0,222.3,200.627V532.463h572Z" transform="translate(56.32 -71.556)" fill="#444053"/>
    <path id="Path_5" data-name="Path 5" d="M222.3,638.24v38.866a12.273,12.273,0,0,0,12.273,12.273H782.035A12.273,12.273,0,0,0,794.3,677.106V638.24Z" transform="translate(56.32 -180.628)" fill="#d0d2d5"/>
    <rect id="Rectangle_8" data-name="Rectangle 8" width="527.491" height="298.312" transform="translate(302.295 137.519)" fill="#a0cadb" opacity="0.1"/>
    <path id="Path_6" data-name="Path 6" d="M599.469,678.111a12.8,12.8,0,0,0,10.061-4.879h0a13.093,13.093,0,0,0,.992-1.462l-7.016-1.151,7.576.061a12.766,12.766,0,0,0,.242-10.137l-10.175,5.3,9.387-6.894a12.781,12.781,0,1,0-21.115,14.3h0A12.781,12.781,0,0,0,599.469,678.111Z" transform="translate(-32.008 -184.11)" fill="#a0cadb"/>
    <path id="Path_7" data-name="Path 7" d="M585.43,671.52l58.935,59.185-9.038-59.185Z" transform="translate(-5.18 -162.769)" opacity="0.1"/>
    <rect id="Rectangle_9" data-name="Rectangle 9" width="346.231" height="207.587" rx="2.6" transform="translate(317.789 191.34)" fill="#fff"/>
    <rect id="Rectangle_10" data-name="Rectangle 10" width="527.301" height="17.425" transform="translate(302.637 137.549)" fill="#fff"/>
    <rect id="Rectangle_11" data-name="Rectangle 11" width="15.152" height="10.607" rx="0.78" transform="translate(304.909 140.58)" fill="#a0cadb"/>
    <rect id="Rectangle_12" data-name="Rectangle 12" width="159.1" height="10.607" rx="0.58" transform="translate(485.222 140.58)" fill="#a0cadb" opacity="0.3"/>
    <path id="Path_8" data-name="Path 8" d="M696.836,226.526h-.386l-.144-.121a3.22,3.22,0,0,0,.758-2.061,3.136,3.136,0,1,0-3.129,3.159,3.235,3.235,0,0,0,2.061-.758l.144.121v.394l2.424,2.424.758-.758Zm-2.909,0a2.19,2.19,0,1,1,2.182-2.182,2.167,2.167,0,0,1-2.182,2.182Z" transform="translate(-57.234 -79.552)" fill="#444053"/>
    <circle id="Ellipse_1" data-name="Ellipse 1" cx="5.303" cy="5.303" r="5.303" transform="translate(817.059 140.58)" fill="#a0cadb"/>
    <rect id="Rectangle_13" data-name="Rectangle 13" width="49.245" height="33.335" rx="2.43" transform="translate(689.021 173.915)" fill="#fff"/>
    <rect id="Rectangle_14" data-name="Rectangle 14" width="63.64" height="5.303" rx="0.61" transform="translate(751.146 173.915)" fill="#fff"/>
    <rect id="Rectangle_15" data-name="Rectangle 15" width="63.64" height="5.303" rx="0.61" transform="translate(751.146 185.279)" fill="#fff"/>
    <rect id="Rectangle_16" data-name="Rectangle 16" width="63.64" height="5.303" rx="0.61" transform="translate(751.146 196.643)" fill="#fff"/>
    <rect id="Rectangle_17" data-name="Rectangle 17" width="49.245" height="33.335" rx="2.43" transform="translate(689.021 226.19)" fill="#fff"/>
    <rect id="Rectangle_18" data-name="Rectangle 18" width="63.64" height="5.303" rx="0.61" transform="translate(751.146 226.19)" fill="#fff"/>
    <rect id="Rectangle_19" data-name="Rectangle 19" width="63.64" height="5.303" rx="0.61" transform="translate(751.146 237.555)" fill="#fff"/>
    <rect id="Rectangle_20" data-name="Rectangle 20" width="63.64" height="5.303" rx="0.66" transform="translate(751.146 248.919)" fill="#fff"/>
    <rect id="Rectangle_21" data-name="Rectangle 21" width="49.245" height="33.335" rx="2.43" transform="translate(689.021 278.466)" fill="#fff"/>
    <rect id="Rectangle_22" data-name="Rectangle 22" width="63.64" height="5.303" rx="0.66" transform="translate(751.146 278.466)" fill="#fff"/>
    <rect id="Rectangle_23" data-name="Rectangle 23" width="63.64" height="5.303" rx="0.66" transform="translate(751.146 289.83)" fill="#fff"/>
    <rect id="Rectangle_24" data-name="Rectangle 24" width="63.64" height="5.303" rx="0.66" transform="translate(751.146 301.194)" fill="#fff"/>
    <rect id="Rectangle_25" data-name="Rectangle 25" width="49.245" height="33.335" rx="2.43" transform="translate(689.021 330.741)" fill="#fff"/>
    <rect id="Rectangle_26" data-name="Rectangle 26" width="63.64" height="5.303" rx="0.66" transform="translate(751.146 330.741)" fill="#fff"/>
    <rect id="Rectangle_27" data-name="Rectangle 27" width="63.64" height="5.303" rx="0.66" transform="translate(751.146 342.106)" fill="#fff"/>
    <rect id="Rectangle_28" data-name="Rectangle 28" width="63.64" height="5.303" rx="0.66" transform="translate(751.146 353.47)" fill="#fff"/>
    <rect id="Rectangle_29" data-name="Rectangle 29" width="49.245" height="33.335" rx="2.43" transform="translate(689.021 383.017)" fill="#fff"/>
    <rect id="Rectangle_30" data-name="Rectangle 30" width="63.64" height="5.303" rx="0.66" transform="translate(751.146 383.017)" fill="#fff"/>
    <rect id="Rectangle_31" data-name="Rectangle 31" width="63.64" height="5.303" rx="0.66" transform="translate(751.146 394.381)" fill="#fff"/>
    <rect id="Rectangle_32" data-name="Rectangle 32" width="63.64" height="5.303" rx="0.66" transform="translate(751.146 405.745)" fill="#fff"/>
    <rect id="Rectangle_33" data-name="Rectangle 33" width="77.906" height="4.038" transform="translate(367.731 246.35)" fill="#a0cadb" opacity="0.1"/>
    <rect id="Rectangle_34" data-name="Rectangle 34" width="7.5" height="21.35" transform="translate(374.656 225.001)" fill="#a0cadb" opacity="0.1"/>
    <rect id="Rectangle_35" data-name="Rectangle 35" width="7.5" height="21.35" transform="translate(385.618 225.001)" fill="#a0cadb" opacity="0.1"/>
    <rect id="Rectangle_36" data-name="Rectangle 36" width="7.5" height="21.35" transform="translate(396.581 225.001)" fill="#a0cadb" opacity="0.1"/>
    <rect id="Rectangle_37" data-name="Rectangle 37" width="7.5" height="21.35" transform="translate(407.544 225.001)" fill="#a0cadb" opacity="0.1"/>
    <rect id="Rectangle_38" data-name="Rectangle 38" width="7.5" height="21.35" transform="translate(418.506 225.001)" fill="#a0cadb" opacity="0.1"/>
    <rect id="Rectangle_39" data-name="Rectangle 39" width="7.5" height="21.35" transform="translate(429.477 225.001)" fill="#a0cadb" opacity="0.1"/>
    <rect id="Rectangle_40" data-name="Rectangle 40" width="7.5" height="2.311" transform="translate(374.656 229.039)" fill="#a0cadb" opacity="0.1"/>
    <rect id="Rectangle_41" data-name="Rectangle 41" width="7.5" height="2.311" transform="translate(385.618 229.039)" fill="#a0cadb" opacity="0.1"/>
    <rect id="Rectangle_42" data-name="Rectangle 42" width="7.5" height="2.311" transform="translate(396.581 229.039)" fill="#a0cadb" opacity="0.1"/>
    <rect id="Rectangle_43" data-name="Rectangle 43" width="7.5" height="2.311" transform="translate(407.544 229.039)" fill="#a0cadb" opacity="0.1"/>
    <rect id="Rectangle_44" data-name="Rectangle 44" width="7.5" height="2.311" transform="translate(418.506 229.039)" fill="#a0cadb" opacity="0.1"/>
    <rect id="Rectangle_45" data-name="Rectangle 45" width="7.5" height="2.311" transform="translate(429.477 229.039)" fill="#a0cadb" opacity="0.1"/>
    <rect id="Rectangle_46" data-name="Rectangle 46" width="7.5" height="2.311" transform="translate(374.656 239.426)" fill="#a0cadb" opacity="0.1"/>
    <rect id="Rectangle_47" data-name="Rectangle 47" width="7.5" height="2.311" transform="translate(385.618 239.426)" fill="#a0cadb" opacity="0.1"/>
    <rect id="Rectangle_48" data-name="Rectangle 48" width="7.5" height="2.311" transform="translate(396.581 239.426)" fill="#a0cadb" opacity="0.1"/>
    <rect id="Rectangle_49" data-name="Rectangle 49" width="7.5" height="2.311" transform="translate(407.544 239.426)" fill="#a0cadb" opacity="0.1"/>
    <rect id="Rectangle_50" data-name="Rectangle 50" width="7.5" height="2.311" transform="translate(418.506 239.426)" fill="#a0cadb" opacity="0.1"/>
    <rect id="Rectangle_51" data-name="Rectangle 51" width="7.5" height="2.311" transform="translate(429.477 239.426)" fill="#a0cadb" opacity="0.1"/>
    <rect id="Rectangle_52" data-name="Rectangle 52" width="77.906" height="4.038" transform="translate(538.536 256.737)" fill="#a0cadb" opacity="0.1"/>
    <rect id="Rectangle_53" data-name="Rectangle 53" width="7.5" height="21.35" transform="translate(545.46 235.388)" fill="#a0cadb" opacity="0.1"/>
    <rect id="Rectangle_54" data-name="Rectangle 54" width="7.5" height="21.35" transform="translate(556.423 235.388)" fill="#a0cadb" opacity="0.1"/>
    <rect id="Rectangle_55" data-name="Rectangle 55" width="7.5" height="21.35" transform="translate(567.386 235.388)" fill="#a0cadb" opacity="0.1"/>
    <rect id="Rectangle_56" data-name="Rectangle 56" width="7.5" height="21.35" transform="translate(578.356 235.388)" fill="#a0cadb" opacity="0.1"/>
    <rect id="Rectangle_57" data-name="Rectangle 57" width="7.5" height="21.35" transform="translate(589.319 235.388)" fill="#a0cadb" opacity="0.1"/>
    <rect id="Rectangle_58" data-name="Rectangle 58" width="7.5" height="21.35" transform="translate(600.281 235.388)" fill="#a0cadb" opacity="0.1"/>
    <rect id="Rectangle_59" data-name="Rectangle 59" width="7.5" height="2.311" transform="translate(545.46 239.426)" fill="#a0cadb" opacity="0.1"/>
    <rect id="Rectangle_60" data-name="Rectangle 60" width="7.5" height="2.311" transform="translate(556.423 239.426)" fill="#a0cadb" opacity="0.1"/>
    <rect id="Rectangle_61" data-name="Rectangle 61" width="7.5" height="2.311" transform="translate(567.386 239.426)" fill="#a0cadb" opacity="0.1"/>
    <rect id="Rectangle_62" data-name="Rectangle 62" width="7.5" height="2.311" transform="translate(578.356 239.426)" fill="#a0cadb" opacity="0.1"/>
    <rect id="Rectangle_63" data-name="Rectangle 63" width="7.5" height="2.311" transform="translate(589.319 239.426)" fill="#a0cadb" opacity="0.1"/>
    <rect id="Rectangle_64" data-name="Rectangle 64" width="7.5" height="2.311" transform="translate(600.281 239.426)" fill="#a0cadb" opacity="0.1"/>
    <rect id="Rectangle_65" data-name="Rectangle 65" width="7.5" height="2.311" transform="translate(545.46 249.813)" fill="#a0cadb" opacity="0.1"/>
    <rect id="Rectangle_66" data-name="Rectangle 66" width="7.5" height="2.311" transform="translate(556.423 249.813)" fill="#a0cadb" opacity="0.1"/>
    <rect id="Rectangle_67" data-name="Rectangle 67" width="7.5" height="2.311" transform="translate(567.386 249.813)" fill="#a0cadb" opacity="0.1"/>
    <rect id="Rectangle_68" data-name="Rectangle 68" width="7.5" height="2.311" transform="translate(578.356 249.813)" fill="#a0cadb" opacity="0.1"/>
    <rect id="Rectangle_69" data-name="Rectangle 69" width="7.5" height="2.311" transform="translate(589.319 249.813)" fill="#a0cadb" opacity="0.1"/>
    <rect id="Rectangle_70" data-name="Rectangle 70" width="7.5" height="2.311" transform="translate(600.281 249.813)" fill="#a0cadb" opacity="0.1"/>
    <rect id="Rectangle_71" data-name="Rectangle 71" width="77.906" height="4.038" transform="translate(538.536 286.163)" fill="#a0cadb" opacity="0.1"/>
    <rect id="Rectangle_72" data-name="Rectangle 72" width="7.5" height="21.35" transform="translate(545.46 264.814)" fill="#a0cadb" opacity="0.1"/>
    <rect id="Rectangle_73" data-name="Rectangle 73" width="7.5" height="21.35" transform="translate(556.423 264.814)" fill="#a0cadb" opacity="0.1"/>
    <rect id="Rectangle_74" data-name="Rectangle 74" width="7.5" height="21.35" transform="translate(567.386 264.814)" fill="#a0cadb" opacity="0.1"/>
    <rect id="Rectangle_75" data-name="Rectangle 75" width="7.5" height="21.35" transform="translate(578.356 264.814)" fill="#a0cadb" opacity="0.1"/>
    <rect id="Rectangle_76" data-name="Rectangle 76" width="7.5" height="21.35" transform="translate(589.319 264.814)" fill="#a0cadb" opacity="0.1"/>
    <rect id="Rectangle_77" data-name="Rectangle 77" width="7.5" height="21.35" transform="translate(600.281 264.814)" fill="#a0cadb" opacity="0.1"/>
    <rect id="Rectangle_78" data-name="Rectangle 78" width="7.5" height="2.311" transform="translate(545.46 268.852)" fill="#a0cadb" opacity="0.1"/>
    <rect id="Rectangle_79" data-name="Rectangle 79" width="7.5" height="2.311" transform="translate(556.423 268.852)" fill="#a0cadb" opacity="0.1"/>
    <rect id="Rectangle_80" data-name="Rectangle 80" width="7.5" height="2.311" transform="translate(567.386 268.852)" fill="#a0cadb" opacity="0.1"/>
    <rect id="Rectangle_81" data-name="Rectangle 81" width="7.5" height="2.311" transform="translate(578.356 268.852)" fill="#a0cadb" opacity="0.1"/>
    <rect id="Rectangle_82" data-name="Rectangle 82" width="7.5" height="2.311" transform="translate(589.319 268.852)" fill="#a0cadb" opacity="0.1"/>
    <rect id="Rectangle_83" data-name="Rectangle 83" width="7.5" height="2.311" transform="translate(600.281 268.852)" fill="#a0cadb" opacity="0.1"/>
    <rect id="Rectangle_84" data-name="Rectangle 84" width="7.5" height="2.311" transform="translate(545.46 279.239)" fill="#a0cadb" opacity="0.1"/>
    <rect id="Rectangle_85" data-name="Rectangle 85" width="7.5" height="2.311" transform="translate(556.423 279.239)" fill="#a0cadb" opacity="0.1"/>
    <rect id="Rectangle_86" data-name="Rectangle 86" width="7.5" height="2.311" transform="translate(567.386 279.239)" fill="#a0cadb" opacity="0.1"/>
    <rect id="Rectangle_87" data-name="Rectangle 87" width="7.5" height="2.311" transform="translate(578.356 279.239)" fill="#a0cadb" opacity="0.1"/>
    <rect id="Rectangle_88" data-name="Rectangle 88" width="7.5" height="2.311" transform="translate(589.319 279.239)" fill="#a0cadb" opacity="0.1"/>
    <rect id="Rectangle_89" data-name="Rectangle 89" width="7.5" height="2.311" transform="translate(600.281 279.239)" fill="#a0cadb" opacity="0.1"/>
    <path id="Path_9" data-name="Path 9" d="M401.594,409.031A21.55,21.55,0,0,1,400,406.69l11.22-1.841-12.122.091a20.5,20.5,0,0,1-.394-16.2l16.251,8.425L399.95,386.136a20.456,20.456,0,1,1,33.767,22.88,19.884,19.884,0,0,1,2.333,3.728l-14.561,7.576,15.524-5.2a20.456,20.456,0,0,1-3.3,19.175,20.456,20.456,0,1,1-32.123,0,20.456,20.456,0,0,1,0-25.282Z" transform="translate(13.927 -117.019)" fill="#a0cadb" opacity="0.1"/>
    <path id="Path_10" data-name="Path 10" d="M438.1,436.244a20.374,20.374,0,0,1-4.381,12.624,20.456,20.456,0,1,1-32.121,0C398.843,445.4,438.1,433.948,438.1,436.244Z" transform="translate(13.928 -131.595)" fill="#a0cadb" opacity="0.1"/>
    <path id="Path_11" data-name="Path 11" d="M426.077,502.016a1.926,1.926,0,0,1,.1.167h-6.94c.038-.053.061-.114.1-.167a6.72,6.72,0,0,1-.894-3.417,7.015,7.015,0,0,1,.417-2.409h0c.386.061.864.129,1.417.189a24.334,24.334,0,0,0,4.841,0q.7-.068,1.432-.182a.067.067,0,0,0,0,.038,6.82,6.82,0,0,1,.409,2.371A6.72,6.72,0,0,1,426.077,502.016Z" transform="translate(8.779 -146.198)" fill="#3f3d56" opacity="0.2"/>
    <path id="Path_12" data-name="Path 12" d="M378.1,479.9H339.461c-.083-.22-.159-.455-.227-.682a20.342,20.342,0,0,1,.447-13.364,20.456,20.456,0,0,1-7.463-24.16,19.585,19.585,0,0,1-2.2-1.765l10.167-5.068-11.561,3.667a20.455,20.455,0,0,1-5.152-15.357l18.039,3.258-17.592-6.114a20.456,20.456,0,1,1,39.01,11.895,20.718,20.718,0,0,1,3.356,2.917L354.6,446.647l13.3-9.561a20.456,20.456,0,0,1,2.515,19.319A20.456,20.456,0,0,1,378.1,479.9Z" transform="translate(31.816 -123.914)" fill="#a0cadb" opacity="0.1"/>
    <path id="Path_13" data-name="Path 13" d="M382.872,492.245H344.234c-.083-.22-.159-.455-.227-.682a20.342,20.342,0,0,1,.447-13.364c-3.637-2.515,30.479-25.054,31.153-22.857a20.364,20.364,0,0,1-.447,13.372A20.456,20.456,0,0,1,382.872,492.245Z" transform="translate(27.043 -136.26)" fill="#a0cadb" opacity="0.1"/>
    <path id="Path_14" data-name="Path 14" d="M606.053,457.667a20.381,20.381,0,0,1-10.235,8.606,20.751,20.751,0,0,1,.083,4.394l-16.372-.985,15.993,3.47a20.46,20.46,0,0,1-2.44,6.182,20.13,20.13,0,0,1-5.455,5.985H565.339v.583H542.61c.045-.2.091-.386.144-.583a20.456,20.456,0,0,1,12.463-13.872,20.456,20.456,0,0,1,12.978-21.7,20.72,20.72,0,0,1-.167-2.826L578.6,451.1l-10.455-6.144a20.455,20.455,0,0,1,8.023-14.076l9.629,15.592-7.22-17.168a20.456,20.456,0,0,1,27.479,28.365Z" transform="translate(-21.318 -129.365)" fill="#a0cadb" opacity="0.1"/>
    <path id="Path_15" data-name="Path 15" d="M593.082,493.328a20.128,20.128,0,0,1-5.455,5.985H565.339v.583H542.61c.045-.2.091-.386.144-.583a20.456,20.456,0,0,1,12.463-13.872c-.189-1.515,4.212-1.288,10.084-.3C576.809,487.07,593.863,492.025,593.082,493.328Z" transform="translate(-21.318 -143.328)" fill="#a0cadb" opacity="0.1"/>
    <ellipse id="Ellipse_4" data-name="Ellipse 4" cx="45.055" cy="8.667" rx="45.055" ry="8.667" transform="translate(816.763 566.012)" fill="#a0cadb"/>
    <ellipse id="Ellipse_12" data-name="Ellipse 12" cx="75.004" cy="15.91" rx="75.004" ry="15.91" transform="translate(281.423 598.18)" fill="#a0cadb" opacity="0.1"/>
  </g>
</svg>
