
<svg xmlns="http://www.w3.org/2000/svg" xmlns:xlink="http://www.w3.org/1999/xlink" width="1200" height="630" viewBox="0 0 1200 630">
  <defs>
    <linearGradient id="linear-gradient" x1="0.5" y1="1" x2="0.5" gradientUnits="objectBoundingBox">
      <stop offset="0" stop-color="gray" stop-opacity="0.251"/>
      <stop offset="0.54" stop-color="gray" stop-opacity="0.122"/>
      <stop offset="1" stop-color="gray" stop-opacity="0.102"/>
    </linearGradient>
    <clipPath id="clip-girl">
      <rect width="1200" height="630"/>
    </clipPath>
  </defs>
  <g id="girl" clip-path="url(#clip-girl)">
    <rect width="1200" height="630" fill="#fff"/>
    <ellipse id="Ellipse_12" data-name="Ellipse 12" cx="75.004" cy="15.91" rx="75.004" ry="15.91" transform="translate(281.423 598.18)" fill="#a0cadb" opacity="0.1"/>
    <path id="Path_31" data-name="Path 31" d="M338.624,746.559a19.74,19.74,0,0,0-4.72-.636,14.607,14.607,0,0,1-8.682-4.212,15.911,15.911,0,0,1-3.47-5.3c.5.182,1,.371,1.515.576-1.515-3.538.076-7.508,1.47-11.084q3.546-9.091,6.7-18.281c5.3-15.524,9.849-31.668,9.75-48.185,0-5.97-1.1-11.614-1.311-17.577-.159-4.425.523-8.842.492-13.274,0-.621,0-1.235-.045-1.856a11.766,11.766,0,0,0,3.993-9.591,23.085,23.085,0,0,0-.4-2.788,45.215,45.215,0,0,0-1.061-4.743c-.5-1.644-1.182-3.22-1.765-4.826-1.129-3.114-1.894-6.356-2.856-9.523a3.28,3.28,0,0,1,1.03.28,2.221,2.221,0,0,1-.485-.992,24.556,24.556,0,0,1-.909-6.19l.644-.288a16.114,16.114,0,0,0-.311-6.129c.364-3.25.932-6.523,1.28-9.758.129-1.212.076-2.735-1.038-3.03-.227-1.735-.318-3.493-.409-5.243q-.477-9.16-.947-18.312c-.318-6.129-.636-12.251-.758-18.387a53.677,53.677,0,0,0-1.053-11.652,14.09,14.09,0,0,0-.538-5.3c-1.409-4.462-5.788-8-10.228-7.75a20.349,20.349,0,0,0-4.841-4.894c.886-1.985,1.947-4.03,2.818-5.637a18.367,18.367,0,0,0,12.3-17.652,19.267,19.267,0,0,0-2.084-8.781,9.455,9.455,0,0,0,.333-1.023,8.4,8.4,0,0,0-.341-4.917,14.378,14.378,0,0,0-.758-1.758c-.2-.379-.409-.758-.629-1.121l-.386-.583a10.873,10.873,0,0,0-.758-1.03,25.054,25.054,0,0,0-1.727-2.076,17.094,17.094,0,0,0-2.485-2.212,10.957,10.957,0,0,0-4.091-1.886,12.475,12.475,0,0,0-2.6-.235c-.523,0-1.053,0-1.576.046-1.061.061-2.114.136-3.167.129a7.005,7.005,0,0,1-1.053-.053,38.345,38.345,0,0,1-5.485-1.144l-.909-.189c-.311-.061-.614-.114-.924-.152a17.352,17.352,0,0,0-2.508-.152h-.841a23.238,23.238,0,0,0-2.508.258l-.833.129a23.94,23.94,0,0,0-6.1,1.811c-.25.114-.508.242-.758.379l-.152.083c-.2.106-.409.22-.606.341l-.114.068-.644.409-.053.038c-6.015,4.046-9.569,11.713-10.47,19.319-1.008,8.538.758,17.145,2.523,25.547l1.591,7.576c.068.341.144.674.212,1.015a16.666,16.666,0,0,0-4.993,6.925c-1.515,3.788-1.553,7.887-1.432,11.993,0,.833.046,1.667.129,2.5-.189,1.576-.356,3.159-.462,4.75-.477,7.349.417,14.736.182,22.1-.182,5.675-1.038,11.364-.621,17a76.751,76.751,0,0,0,3.03,14.675l1.909,6.879a1.826,1.826,0,0,0,.477.947,1.439,1.439,0,0,0,1.068.22,64.5,64.5,0,0,0-3.106,8.7,26.893,26.893,0,0,0-1.121,5.591c-.25,3.47.553,6.917,1.356,10.289q1.818,7.576,3.621,15.213,1.273,5.341,2.538,10.675c1.667,7.015,3.341,14.076,3.652,21.3a46.257,46.257,0,0,1-.758,10.826,94.338,94.338,0,0,0-.94,32.449,159.107,159.107,0,0,0,6.129,26.827c.614-.326,1.235-.629,1.871-.909l-.265.493q-1.311,2.273-2.424,4.659a26.5,26.5,0,0,0-1.3,3.19,35.9,35.9,0,0,0-1.258,9.447,4.621,4.621,0,0,0,.159,1.826,3.793,3.793,0,0,0,2.727,2.046c3.273.932,6.675.6,10.076.159a1.224,1.224,0,0,0,.068.22,3.778,3.778,0,0,0,2.727,2.046c4.682,1.333,9.622.076,14.448-.379s9.569-.121,14.213-1.235a6.764,6.764,0,0,0,1.97-.758,6.447,6.447,0,0,0,2.485-3.447,4.417,4.417,0,0,0,.288-1.129C341.541,748.575,340.124,747.112,338.624,746.559ZM322.6,676.4a19.093,19.093,0,0,1-1.515,5.137,98.04,98.04,0,0,0-7.773,24.373,113,113,0,0,0-1.72,16.857c-.076,4.167.083,8.531-1.652,12.274l.629-.1c-.2.364-.386.758-.568,1.046l-.091.167a16.424,16.424,0,0,1-2.068-5.8c0-.068-.341-.121-.864-.152a156.775,156.775,0,0,1-2.212-36.282,16.8,16.8,0,0,1,.606-4.356c.386-1.22,1.038-2.334,1.515-3.515a25.831,25.831,0,0,0,1.515-6.167,87.609,87.609,0,0,0,.955-16.3c-.182-5.144,1.008-10.258,2.023-15.38.485-2.432.932-4.872,1.174-7.311l.046-.492a73.393,73.393,0,0,1,9.3,24.153A34.547,34.547,0,0,1,322.6,676.4ZM290.174,566.906l.242.212a16.675,16.675,0,0,1,2.015,2.114,2.8,2.8,0,0,1,.636,1.167c.227,1.106-.689,2.046-1.44,2.856a12.912,12.912,0,0,0-.917,1.106q-.242-3.727-.515-7.455Z" transform="translate(42.918 -134.318)" fill="url(#linear-gradient)"/>
    <path id="Path_32" data-name="Path 32" d="M279.678,542.53l-.833,6.432c-.28,2.182-.561,4.356-.712,6.546-.508,7.288.432,14.607.189,21.91-.2,5.622-1.091,11.236-.659,16.849a71.443,71.443,0,0,0,3.2,14.546l2,6.819a1.8,1.8,0,0,0,.5.939,1.765,1.765,0,0,0,1.28.2l8.879-.8c-.568-2.606-1.2-5.3-1.515-7.978-.242-2.091-.386-4.2-.538-6.3-.47-6.561-1.008-13.122-1.515-19.7l-.947-11.516a86.875,86.875,0,0,0-2.076-14.88A29.617,29.617,0,0,0,279.678,542.53Z" transform="translate(42.929 -157.43)" fill="#a0cadb"/>
    <path id="Path_33" data-name="Path 33" d="M279.678,542.53l-.833,6.432c-.28,2.182-.561,4.356-.712,6.546-.508,7.288.432,14.607.189,21.91-.2,5.622-1.091,11.236-.659,16.849a71.443,71.443,0,0,0,3.2,14.546l2,6.819a1.8,1.8,0,0,0,.5.939,1.765,1.765,0,0,0,1.28.2l8.879-.8c-.568-2.606-1.2-5.3-1.515-7.978-.242-2.091-.386-4.2-.538-6.3-.47-6.561-1.008-13.122-1.515-19.7l-.947-11.516a86.875,86.875,0,0,0-2.076-14.88A29.617,29.617,0,0,0,279.678,542.53Z" transform="translate(42.929 -157.43)" opacity="0.1"/>
    <path id="Path_34" data-name="Path 34" d="M300.373,829a27.139,27.139,0,0,0-1.364,3.167,34.1,34.1,0,0,0-1.318,9.364,4.546,4.546,0,0,0,.167,1.811,3.947,3.947,0,0,0,2.871,2.023c4.917,1.326,10.1.083,15.152-.371s10.046-.121,14.925-1.22a7.619,7.619,0,0,0,2.068-.72,6.448,6.448,0,0,0,2.614-3.409,4.463,4.463,0,0,0,.3-1.121c.159-1.667-1.288-3.106-2.864-3.652a21.6,21.6,0,0,0-4.955-.629A15.607,15.607,0,0,1,314.147,821.2c-.061-.364-8.213-.144-9.091.326-1,.553-1.606,1.924-2.174,2.856Q301.54,826.634,300.373,829Z" transform="translate(38.053 -224.931)" fill="#a26565"/>
    <path id="Path_35" data-name="Path 35" d="M300.373,829a27.139,27.139,0,0,0-1.364,3.167,34.1,34.1,0,0,0-1.318,9.364,4.546,4.546,0,0,0,.167,1.811,3.947,3.947,0,0,0,2.871,2.023c4.917,1.326,10.1.083,15.152-.371s10.046-.121,14.925-1.22a7.619,7.619,0,0,0,2.068-.72,6.448,6.448,0,0,0,2.614-3.409,4.463,4.463,0,0,0,.3-1.121c.159-1.667-1.288-3.106-2.864-3.652a21.6,21.6,0,0,0-4.955-.629A15.607,15.607,0,0,1,314.147,821.2c-.061-.364-8.213-.144-9.091.326-1,.553-1.606,1.924-2.174,2.856Q301.54,826.634,300.373,829Z" transform="translate(38.053 -224.931)" opacity="0.1"/>
    <path id="Path_36" data-name="Path 36" d="M318.223,832.165a25.789,25.789,0,0,0-1.364,3.159,33.729,33.729,0,0,0-1.318,9.364,4.417,4.417,0,0,0,.167,1.811,3.948,3.948,0,0,0,2.864,2.03c4.917,1.318,10.107.076,15.152-.379s10.054-.121,14.925-1.22a7.288,7.288,0,0,0,2.068-.758,6.417,6.417,0,0,0,2.614-3.409,4.45,4.45,0,0,0,.3-1.121c.159-1.659-1.288-3.106-2.864-3.652a22.017,22.017,0,0,0-4.955-.629,15.615,15.615,0,0,1-13.819-13.031c-.061-.364-8.213-.152-9.091.318-1.008.553-1.614,1.924-2.182,2.856C319.851,829.044,319,830.589,318.223,832.165Z" transform="translate(33.727 -225.689)" fill="#a26565"/>
    <path id="Path_37" data-name="Path 37" d="M345.033,703.856c.106,16.372-4.652,32.373-10.235,47.73q-3.318,9.137-7.038,18.115c-1.47,3.546-3.129,7.485-1.553,10.985-4.546-1.727-9.167-2.743-13.948-1.947,1.818-3.712,1.644-8.031,1.727-12.122a106.292,106.292,0,0,1,1.788-16.705,93.187,93.187,0,0,1,8.175-24.16,18.408,18.408,0,0,0,1.583-5.091,32.52,32.52,0,0,0-.674-11.751,70.06,70.06,0,0,0-9.773-23.941l-.045.485a70.654,70.654,0,0,1-1.227,7.25c-1.068,5.069-2.318,10.145-2.129,15.243a82.448,82.448,0,0,1-1,16.16,24.572,24.572,0,0,1-1.629,6.106c-.523,1.174-1.2,2.273-1.614,3.493a15.911,15.911,0,0,0-.636,4.318,146.443,146.443,0,0,0,2.515,36.926,23.451,23.451,0,0,0-12.213,2.78,150.41,150.41,0,0,1-6.44-26.592,88.354,88.354,0,0,1,.985-32.168,42.744,42.744,0,0,0,.8-10.72c-.326-7.16-2.083-14.16-3.834-21.115l-2.667-10.607q-1.894-7.576-3.788-15.084c-.841-3.341-1.689-6.758-1.424-10.2a25.306,25.306,0,0,1,1.182-5.546,61.89,61.89,0,0,1,8.387-17.152c14.6.818,29.373-.546,43.942-1.667a2.948,2.948,0,0,1,2.061.349,2.917,2.917,0,0,1,.833,1.879l5.478,31.062a78.026,78.026,0,0,1,1.553,13.107c0,4.394-.682,8.773-.515,13.16C343.882,692.348,345,697.939,345.033,703.856Z" transform="translate(42.168 -177.862)" fill="#454b69"/>
    <path id="Path_38" data-name="Path 38" d="M320.412,696.436a70.672,70.672,0,0,1-1.227,7.251c-3.174-5.493-6.6-10.849-9.523-16.478-.758-1.447-1.47-2.917-2.189-4.387l-2.159-4.394c-.4-.826-.8-1.652-1.167-2.493a18.011,18.011,0,0,1-1.356-3.788c1.061-.2,3.682,2.667,4.47,3.417a61.1,61.1,0,0,1,4.546,5.031,55.142,55.142,0,0,1,4.743,6.212,30.214,30.214,0,0,1,3.864,9.629Z" transform="translate(36.811 -188.844)" opacity="0.1"/>
    <path id="Path_39" data-name="Path 39" d="M331.818,503.172s-8.107,12.917-6.606,15.622-25.532-2.4-25.532-2.4,14.721-12.917,13.213-18.327S331.818,503.172,331.818,503.172Z" transform="translate(37.564 -146.277)" fill="#efb7b9"/>
    <circle id="Ellipse_13" data-name="Ellipse 13" cx="18.327" cy="18.327" r="18.327" transform="translate(343.851 324.15)" fill="#efb7b9"/>
    <path id="Path_40" data-name="Path 40" d="M327.014,520.246a18.609,18.609,0,0,0-7.7-6.2,27.557,27.557,0,0,0-5.478-1.349l-7.311-1.288c-1.788-.318-3.7-.614-5.372.121a8.8,8.8,0,0,0-2.273,1.674c-2.538,2.356-5,4.94-8.19,6.3-.871.371-1.78.644-2.652,1.015a15.307,15.307,0,0,0-7.743,8.334c-1.591,3.743-1.636,7.811-1.515,11.879a20.878,20.878,0,0,0,.417,4.182,26.941,26.941,0,0,0,1.386,3.834,70.129,70.129,0,0,1,2.53,8.129q2.841,10.872,4.728,21.971a8.234,8.234,0,0,0,.917,3.03,10.88,10.88,0,0,0,2.53,2.432,15.8,15.8,0,0,1,2.114,2.1,2.742,2.742,0,0,1,.689,1.121c.235,1.091-.758,2.031-1.515,2.826a13.684,13.684,0,0,0-3.424,5.962,2.4,2.4,0,0,0-.545,1.644,2.879,2.879,0,0,1,.174,1.3,2.939,2.939,0,0,1-.689,1.068,4.038,4.038,0,0,0-.758,3.243,51.432,51.432,0,0,0,17.94,4.2c1.515.076,3.03.076,4.546.258,1.076.136,2.136.356,3.212.485a34.7,34.7,0,0,0,4.7.121c8.16-.167,16.554-.371,24.047-3.606.7-3.841-.818-7.758-1.773-11.546-1.515-6.061-1.894-12.266-3.03-18.38-.758-4.175-1.894-8.288-2.538-12.493a30.542,30.542,0,0,1,.364-12.652c1.023-3.621,1.333-7.319,2.394-10.932s1.8-7.531.606-11.107C336.28,523.5,331.681,520,327.014,520.246Z" transform="translate(42.641 -149.806)" fill="#a0cadb"/>
    <path id="Path_41" data-name="Path 41" d="M336.632,467.949c.894-3.25-.864-6.637-2.955-9.281-2.273-2.841-5.167-5.4-8.72-6.114-2.887-.583-5.879.121-8.819-.114-2.6-.2-5.1-1.144-7.682-1.515a24.335,24.335,0,0,0-7.031.265,26.7,26.7,0,0,0-6.4,1.788c-7.8,3.462-12.372,11.993-13.433,20.456s.8,16.993,2.644,25.32l1.674,7.531c1.742,7.841,3.485,15.713,3.947,23.729s-.4,16.243-3.7,23.562a50.677,50.677,0,0,0,23.282-26.357c1.182-3.1,2.061-6.319,3.379-9.364,1.129-2.621,2.576-5.106,3.576-7.781a25.272,25.272,0,0,0,1.6-9.447c-.061-2.424-.462-4.834-.394-7.258a10.027,10.027,0,0,1,2.364-6.7c1.515-1.553,3.6-2.273,5.515-3.281a22.963,22.963,0,0,0,7.72-6.44,7.064,7.064,0,0,0,1.576-4.061C335.079,471.093,336.162,469.669,336.632,467.949Z" transform="translate(42.024 -135.192)" fill="#a26565"/>
    <path id="Path_42" data-name="Path 42" d="M353.488,651.923c.189,1.886-.152,3.788.258,5.659.311,1.394,1.03,2.652,1.455,4.015a19.09,19.09,0,0,1,.644,4.826c.061,1.364-.045,3.03-1.258,3.667-.53.28-1.167.28-1.72.523s-1.023.9-.7,1.417.864.432,1.364.53,1.038.614.758,1.03a.863.863,0,0,1-.439.28,5.36,5.36,0,0,0-1.424.682,1.455,1.455,0,0,0-.583,1.386.856.856,0,0,0,1.22.561,3.787,3.787,0,0,0-.356,1.515c1.939.833,4.114-.258,5.932-1.311a22.35,22.35,0,0,0,2.273-1.455,11.364,11.364,0,0,0,4.424-9.675,22.571,22.571,0,0,0-.432-2.765,41.594,41.594,0,0,0-1.114-4.7c-.523-1.629-1.235-3.182-1.849-4.78-1.3-3.4-2.144-6.963-3.326-10.41a1.577,1.577,0,0,0-.568-.9,1.6,1.6,0,0,0-.841-.159,13.778,13.778,0,0,0-3.947.364,4.2,4.2,0,0,0-2.409,1.515c-.356.758.212,1.394.553,2.023a16.956,16.956,0,0,1,2.091,6.167Z" transform="translate(25.19 -181.5)" fill="#efb7b9"/>
    <path id="Path_43" data-name="Path 43" d="M347.251,533.64a5.558,5.558,0,0,1,.97,1.349c2.606,4.735,2.637,10.394,2.758,15.8.136,6.061.47,12.122.8,18.221l.993,18.183c.1,1.735.189,3.47.439,5.19,1.167.3,1.212,1.811,1.083,3.031-.841,7.409-2.924,15.039-.758,22.168a2.226,2.226,0,0,0,.508.985,5.918,5.918,0,0,0-3.387-.045c-1.083.227-2.129.629-3.22.879-1.379.311-2.94.447-3.879,1.515a75.166,75.166,0,0,1-2.538-9.788c-.515-3.03-.659-6.152-1.886-8.955-.492-1.129-1.159-2.174-1.765-3.258-3.174-5.667-4.735-12.069-6.258-18.387a26.844,26.844,0,0,1-.485-9.137,31.427,31.427,0,0,0,.379-4.2,32.3,32.3,0,0,0-.583-4.424,29.659,29.659,0,0,1,.886-12.811c1.136-3.856,2.136-7.917,4.546-11.16S343.228,533.693,347.251,533.64Z" transform="translate(30.192 -155.275)" opacity="0.1"/>
    <path id="Path_44" data-name="Path 44" d="M348.446,532.84a5.6,5.6,0,0,1,.97,1.356c2.606,4.728,2.637,10.395,2.758,15.8.136,6.061.47,12.122.8,18.183l.992,18.183c.1,1.735.189,3.47.439,5.19,1.167.3,1.212,1.811,1.076,3.03-.833,7.41-2.917,15.031-.758,22.168a2.225,2.225,0,0,0,.508.985,5.918,5.918,0,0,0-3.387-.045c-1.083.227-2.129.629-3.22.871-1.379.318-2.94.447-3.879,1.515a74.407,74.407,0,0,1-2.515-9.834c-.515-3.03-.659-6.144-1.886-8.947a36.61,36.61,0,0,0-1.765-3.258c-3.182-5.667-4.735-12.076-6.258-18.4a26.835,26.835,0,0,1-.485-9.137,19.7,19.7,0,0,0-.2-8.629,29.623,29.623,0,0,1,.886-12.8c1.136-3.856,2.136-7.917,4.546-11.16S344.423,532.9,348.446,532.84Z" transform="translate(29.899 -155.081)" fill="#a0cadb"/>
    <g id="Group_2" data-name="Group 2" transform="translate(328.184 315.593)" opacity="0.1">
      <path id="Path_45" data-name="Path 45" d="M337.063,458.668c-2.273-2.841-5.167-5.4-8.72-6.114-2.887-.583-5.879.121-8.819-.114-2.6-.2-5.1-1.144-7.682-1.515a24.335,24.335,0,0,0-7.031.265,26.7,26.7,0,0,0-6.4,1.788,19,19,0,0,0-3.159,1.8,26.936,26.936,0,0,1,5.659-1.515,24.239,24.239,0,0,1,7.023-.265c2.591.333,5.084,1.265,7.69,1.47,2.932.235,5.925-.462,8.819.114,3.553.712,6.462,3.28,8.713,6.121,2.1,2.637,3.849,6.023,2.962,9.281-.47,1.712-1.561,3.212-1.856,4.978a7.03,7.03,0,0,1-1.583,4.061,23.017,23.017,0,0,1-5.561,5.175c.583-.273,1.182-.546,1.75-.841a22.963,22.963,0,0,0,7.72-6.44,7.064,7.064,0,0,0,1.576-4.061c.3-1.788,1.386-3.258,1.856-4.978C340.912,464.7,339.154,461.312,337.063,458.668Z" transform="translate(-289.545 -450.785)"/>
      <path id="Path_46" data-name="Path 46" d="M321.525,497.916a7.569,7.569,0,0,1,1.023-.886,15.7,15.7,0,0,0-4.932,3.03,10.131,10.131,0,0,0-2.364,6.7c-.091,2.424.341,4.834.394,7.25a25.312,25.312,0,0,1-1.6,9.455c-1,2.674-2.447,5.152-3.576,7.781-1.311,3.031-2.19,6.258-3.371,9.357a50.759,50.759,0,0,1-19.251,23.956c-.045.1-.083.2-.129.3A50.677,50.677,0,0,0,311,538.51c1.182-3.1,2.061-6.318,3.379-9.364,1.129-2.621,2.576-5.106,3.576-7.781a25.275,25.275,0,0,0,1.6-9.447c-.061-2.424-.462-4.833-.394-7.258A10.126,10.126,0,0,1,321.525,497.916Z" transform="translate(-287.72 -461.994)"/>
    </g>
  </g>
</svg>
