
<svg xmlns="http://www.w3.org/2000/svg" xmlns:xlink="http://www.w3.org/1999/xlink" width="1200" height="630" viewBox="0 0 1200 630">
  <defs>
    <clipPath id="clip-man_line">
      <rect width="1200" height="630"/>
    </clipPath>
  </defs>
  <g id="man_line" clip-path="url(#clip-man_line)">
    <rect width="1200" height="630" fill="#fff"/>
    <path id="Path_15" data-name="Path 15" d="M593.082,493.328a20.128,20.128,0,0,1-5.455,5.985H565.339v.583H542.61c.045-.2.091-.386.144-.583a20.456,20.456,0,0,1,12.463-13.872c-.189-1.515,4.212-1.288,10.084-.3C576.809,487.07,593.863,492.025,593.082,493.328Z" transform="translate(-21.318 -143.328)" fill="#a0cadb" opacity="0.1"/>
    <path id="Path_16" data-name="Path 16" d="M480.058,423.822s2.8,15.152-3.455,20.1,5.3,34.6,24.38,31.138,26.85-28.335,26.85-28.335-19.107-3.955-12.023-24.054Z" transform="translate(-4.905 -128.378)" fill="#ee8e9e"/>
    <path id="Path_17" data-name="Path 17" d="M480.058,423.822s2.8,15.152-3.455,20.1,5.3,34.6,24.38,31.138,26.85-28.335,26.85-28.335-19.107-3.955-12.023-24.054Z" transform="translate(-4.905 -128.378)" opacity="0.1"/>
    <circle id="Ellipse_2" data-name="Ellipse 2" cx="31.631" cy="31.631" r="31.631" transform="translate(460.41 243.305)" fill="#ee8e9e"/>
    <path id="Path_18" data-name="Path 18" d="M539.2,469.255v21.5H434.75V470.232a13.243,13.243,0,0,1,8.085-12.2l2.992-1.272c7.576-3.227,16.781-7.235,19.789-8.9a4.943,4.943,0,0,0,.924-.6c1.644-1.644,1.318.492,1.318.492s-.045.409-.076,1.114c-.182,4.841.515,23.865,22.812,22.281,21.751-1.515,22.729-16.228,22.509-20.554a11.71,11.71,0,0,0-.1-1.2,28.1,28.1,0,0,1,4.4,1.439c4.546,1.682,11.258,4.379,13.054,5.652.56.394,1.242.8,1.985,1.22a13.057,13.057,0,0,1,2.349,1.674A13.267,13.267,0,0,1,539.2,469.255Z" transform="translate(4.826 -134.187)" fill="#a0cadb"/>
    <path id="Path_19" data-name="Path 19" d="M527.275,450.837c-1.841,8.531-7.621,24.509-28.456,24.926-22.2.439-23.486-21.638-23.342-27.9a4.478,4.478,0,0,0,.932-.6c1.652-1.644,1.318.492,1.318.492s-2.8,25.206,22.728,23.4,22.388-21.744,22.388-21.744A31.1,31.1,0,0,1,527.275,450.837Z" transform="translate(-5.043 -134.187)" opacity="0.1"/>
    <path id="Path_20" data-name="Path 20" d="M453.9,382.683a5.417,5.417,0,0,1,5.7,2.083,10.338,10.338,0,0,1,1.47,5.425c1.371.288,2.144-1.265,2.273-2.439.508-4.781.546-9.652,2.152-14.274A17.039,17.039,0,0,1,476,362.621a12.182,12.182,0,0,1,5.735-.545c1.144.189,2.22.591,3.356.758,3.94.652,8.22-1.212,11.91.083a9.5,9.5,0,0,1,4.871,4.591,9.911,9.911,0,0,0,1.894,2.75c1.568,1.409,4.023,1.773,6.273,2.212s4.7,1.2,5.667,2.94c.864,1.568.227,3.379-.061,5.076a12.441,12.441,0,0,0,1.28,7.857c.417.758,1.265,1.674,2.273,1.424a1.993,1.993,0,0,0,1.076-.871c2.583-3.621,2.515-8.334,5.758-11.6,1.083-1.091,2.485-1.939,3.538-3.031a6.879,6.879,0,0,0,1.833-6.243c-.583-2.5-2.584-4.546-4.2-6.743a26.518,26.518,0,0,1-4.493-9.326,1.69,1.69,0,0,1,0-1.22,3.25,3.25,0,0,1,1.152-.94,4.349,4.349,0,0,0,1.47-5.553,9.259,9.259,0,0,0-5.2-4.144,33.939,33.939,0,0,0-7.1-1.515,3.861,3.861,0,0,1-3.947-1.947c-.22-.568-.22-1.182-.439-1.75a4.016,4.016,0,0,0-3.031-2.121,8.866,8.866,0,0,0-4.053.288c-1.515.424-3.235,1.061-4.546.318-.689-.386-1.068-1.091-1.811-1.409-1.515-.636-3.076.652-4.159,1.712a10.12,10.12,0,0,1-3.75,2.523,5.583,5.583,0,0,1-4.652-.311,14.687,14.687,0,0,1-2.386-2.561,8.985,8.985,0,0,0-5.644-2.273,19.873,19.873,0,0,0-6.372.7,38.473,38.473,0,0,0-11.19,4.7,12.023,12.023,0,0,0-4.3,3.993,9.091,9.091,0,0,0-.962,4.114,14.847,14.847,0,0,0,5.19,12.326c-2.364.985-3.159,3.4-3.712,5.546-.886,3.424-1.773,6.9-1.439,10.387.167,1.8.659,3.606.394,5.4a11.638,11.638,0,0,0-.348,2.583A2.477,2.477,0,0,0,453.9,382.683Z" transform="translate(0.704 -106.164)" fill="#454b69"/>
    <g id="Group_1" data-name="Group 1" transform="translate(452.508 236.267)" opacity="0.1">
      <path id="Path_21" data-name="Path 21" d="M551.285,378a7.394,7.394,0,0,1-1.364,2.015c-1.053,1.106-2.455,1.962-3.538,3.031-3.243,3.243-3.174,7.985-5.758,11.607a1.947,1.947,0,0,1-1.076.864c-.985.258-1.833-.636-2.273-1.424a13.03,13.03,0,0,1-1.129-3.03l-.152.758a12.439,12.439,0,0,0,1.28,7.856c.417.758,1.265,1.674,2.273,1.424a1.992,1.992,0,0,0,1.076-.871c2.583-3.621,2.515-8.334,5.758-11.6,1.083-1.091,2.485-1.939,3.538-3.03a6.88,6.88,0,0,0,1.833-6.243,8.143,8.143,0,0,0-.47-1.356Z" transform="translate(-472.182 -353.817)"/>
      <path id="Path_22" data-name="Path 22" d="M546.505,348.133a3.176,3.176,0,0,0-1.152.939,1.677,1.677,0,0,0,0,1.212,25.6,25.6,0,0,0,1.144,3.455h0a4.349,4.349,0,0,0,1.47-5.553,5.3,5.3,0,0,0-.53-.886A4.362,4.362,0,0,1,546.505,348.133Z" transform="translate(-474.463 -346.376)"/>
      <path id="Path_23" data-name="Path 23" d="M457.043,354.861a14.046,14.046,0,0,1-4.962-8.781,11.836,11.836,0,0,0-.227,2.061,15.774,15.774,0,0,0,2.493,9.372,5.3,5.3,0,0,1,2.7-2.652Z" transform="translate(-451.822 -346.08)"/>
      <path id="Path_24" data-name="Path 24" d="M515.7,383.009c.288-1.7.924-3.515.061-5.076-.962-1.743-3.417-2.5-5.667-2.94s-4.7-.811-6.273-2.212a9.909,9.909,0,0,1-1.894-2.75,9.381,9.381,0,0,0-4.872-4.591c-3.69-1.3-7.97.561-11.91-.083-1.136-.189-2.212-.583-3.356-.758a12.122,12.122,0,0,0-5.735.546A17.072,17.072,0,0,0,465.556,376c-1.606,4.614-1.644,9.485-2.152,14.274-.129,1.167-.9,2.727-2.273,2.44a10.423,10.423,0,0,0-1.47-5.432,5.417,5.417,0,0,0-5.7-2.076,2.772,2.772,0,0,1-1.6-1.023,8.785,8.785,0,0,1,0,2.091,11.638,11.638,0,0,0-.349,2.583,2.478,2.478,0,0,0,1.977,1.947,5.417,5.417,0,0,1,5.7,2.083,10.338,10.338,0,0,1,1.47,5.425c1.371.288,2.144-1.265,2.273-2.44.508-4.781.546-9.652,2.152-14.273a17.039,17.039,0,0,1,10.5-10.857,12.184,12.184,0,0,1,5.735-.546c1.144.189,2.22.591,3.356.758,3.94.652,8.22-1.212,11.91.083a9.5,9.5,0,0,1,4.871,4.591,9.909,9.909,0,0,0,1.894,2.75c1.568,1.409,4.023,1.773,6.273,2.212s4.546,1.152,5.553,2.758A.653.653,0,0,1,515.7,383.009Z" transform="translate(-451.866 -350.538)"/>
      <path id="Path_25" data-name="Path 25" d="M452.282,384.48a14.4,14.4,0,0,0-.25-4.22,18.805,18.805,0,0,0-.144,4.424,8.068,8.068,0,0,0,.136,1.129C452.108,385.366,452.221,384.927,452.282,384.48Z" transform="translate(-451.819 -354.365)"/>
    </g>
    <path id="Path_26" data-name="Path 26" d="M403.49,540.72V527.045a.386.386,0,0,1,.386-.386h1.553a.386.386,0,0,1,.386.386v5.69l6.3-5.841a1.03,1.03,0,0,1,1.689.758v12.387a1.03,1.03,0,0,1-1.69.758l-6.3-5.8v5.659a.386.386,0,0,1-.386.386h-1.553A.386.386,0,0,1,403.49,540.72Z" transform="translate(12.403 -153.582)" fill="#444053"/>
    <path id="Path_27" data-name="Path 27" d="M601.226,527.053v13.675a.386.386,0,0,1-.394.386h-1.515a.386.386,0,0,1-.387-.386v-5.69l-6.3,5.834a1.038,1.038,0,0,1-1.7-.758V527.682a1.038,1.038,0,0,1,1.7-.758l6.3,5.8v-5.652a.386.386,0,0,1,.386-.386h1.515a.386.386,0,0,1,.394.364Z" transform="translate(-33.03 -153.59)" fill="#444053"/>
    <path id="Path_28" data-name="Path 28" d="M499.139,541.409h-3.084a1.515,1.515,0,0,1-1.515-1.515V528.575a1.515,1.515,0,0,1,1.515-1.515h3.084a1.515,1.515,0,0,1,1.515,1.515v11.319A1.515,1.515,0,0,1,499.139,541.409Zm9.773-1.515V528.575a1.515,1.515,0,0,0-1.515-1.515h-3.114a1.515,1.515,0,0,0-1.515,1.515v11.319a1.515,1.515,0,0,0,1.515,1.515h3.083a1.515,1.515,0,0,0,1.546-1.515Z" transform="translate(-9.667 -153.68)" fill="#444053"/>
    <rect id="Rectangle_90" data-name="Rectangle 90" width="181.828" height="2.023" transform="translate(401.127 355.031)" fill="#444053" opacity="0.6"/>
    <circle id="Ellipse_3" data-name="Ellipse 3" cx="4.796" cy="4.796" r="4.796" transform="translate(452.478 351.242)" fill="#444053"/>
    <rect id="Rectangle_91" data-name="Rectangle 91" width="56.147" height="2.023" transform="translate(401.127 355.031)" fill="#444053"/>
  </g>
</svg>
