
<svg xmlns="http://www.w3.org/2000/svg" xmlns:xlink="http://www.w3.org/1999/xlink" width="1200" height="630" viewBox="0 0 1200 630">
  <defs>
    <clipPath id="clip-tree">
      <rect width="1200" height="630"/>
    </clipPath>
  </defs>
  <g id="tree" clip-path="url(#clip-tree)">
    <rect width="1200" height="630" fill="#fff"/>
    <ellipse id="Ellipse_4" data-name="Ellipse 4" cx="45.055" cy="8.667" rx="45.055" ry="8.667" transform="translate(816.763 566.012)" fill="#a0cadb"/>
    <ellipse id="Ellipse_5" data-name="Ellipse 5" cx="5.243" cy="6.864" rx="5.243" ry="6.864" transform="translate(855.826 564.133)" fill="#3f3d56"/>
    <ellipse id="Ellipse_6" data-name="Ellipse 6" cx="5.243" cy="6.864" rx="5.243" ry="6.864" transform="translate(855.826 555.738)" fill="#3f3d56"/>
    <ellipse id="Ellipse_7" data-name="Ellipse 7" cx="5.243" cy="6.864" rx="5.243" ry="6.864" transform="translate(855.826 547.352)" fill="#3f3d56"/>
    <ellipse id="Ellipse_8" data-name="Ellipse 8" cx="5.243" cy="6.864" rx="5.243" ry="6.864" transform="translate(855.826 538.957)" fill="#3f3d56"/>
    <ellipse id="Ellipse_9" data-name="Ellipse 9" cx="5.243" cy="6.864" rx="5.243" ry="6.864" transform="translate(855.826 530.563)" fill="#3f3d56"/>
    <ellipse id="Ellipse_10" data-name="Ellipse 10" cx="5.243" cy="6.864" rx="5.243" ry="6.864" transform="translate(855.826 522.168)" fill="#3f3d56"/>
    <ellipse id="Ellipse_11" data-name="Ellipse 11" cx="5.243" cy="6.864" rx="5.243" ry="6.864" transform="translate(855.826 513.774)" fill="#3f3d56"/>
    <path id="Path_29" data-name="Path 29" d="M1002.643,632.618a25.949,25.949,0,0,0,1.955-2.879l-13.789-2.273,14.91.114a25.205,25.205,0,0,0,.477-19.91L986.21,618.049l18.44-13.554a25.13,25.13,0,1,0-41.5,28.123,25.639,25.639,0,0,0-2.864,4.546l17.895,9.3-19.077-6.4a25.146,25.146,0,0,0,4.046,23.592,25.123,25.123,0,1,0,39.5,0,25.137,25.137,0,0,0,0-31.062Z" transform="translate(-121.945 -169.408)" fill="#a0cadb"/>
    <path id="Path_30" data-name="Path 30" d="M957.78,666.012a25,25,0,0,0,5.372,15.531,25.123,25.123,0,1,0,39.5,0C1006.018,677.278,957.78,663.193,957.78,666.012Z" transform="translate(-121.948 -187.27)" opacity="0.1"/>
  </g>
</svg>
