
<svg id="圖層_1" data-name="圖層 1" xmlns="http://www.w3.org/2000/svg" viewBox="0 0 446.77 399"><defs><style>.cls-1,.cls-2{fill:#1c4da0;}.cls-1,.cls-5{stroke:#0b318f;}.cls-1,.cls-2,.cls-3,.cls-4,.cls-5,.cls-6{stroke-miterlimit:10;stroke-width:3px;}.cls-2,.cls-3,.cls-4{stroke:#171c61;}.cls-3{fill:#f7f8f8;}.cls-4,.cls-5{fill:#f5cc1e;}.cls-6{fill:none;stroke:#727171;}</style></defs><title>LOGO_1</title><path class="cls-1" d="M463.59,393.17a3.2,3.2,0,0,0,.42.55A3.2,3.2,0,0,1,463.59,393.17Z" transform="translate(-69.59 -261.88)"/><path class="cls-2" d="M482.29,577.54l-.23-.15a7.89,7.89,0,0,1-1-.77l-.2-.18a7.89,7.89,0,0,1-1-1.11l-.18-.28a8.07,8.07,0,0,1-.66-1.23,1.3,1.3,0,0,1-.08-.17,8.24,8.24,0,0,1-.46-1.53c0-.12-.05-.25-.07-.38a10.57,10.57,0,0,1-.16-1.72l.33-176.9L467,394.75a3.41,3.41,0,0,1-2.24-.42l.07.05-10.24-5.57-.3,159.74a11.41,11.41,0,0,1,1.64,6v7.76a7.55,7.55,0,0,0,2.54,2.27l24,13Z" transform="translate(-69.59 -261.88)"/><path class="cls-1" d="M464.77,394.33a2.9,2.9,0,0,1-.6-.44A2.9,2.9,0,0,0,464.77,394.33Z" transform="translate(-69.59 -261.88)"/><path class="cls-1" d="M463.09,392.07a4.45,4.45,0,0,1-.13-1A4.45,4.45,0,0,0,463.09,392.07Z" transform="translate(-69.59 -261.88)"/><path class="cls-1" d="M463.13,392.18a3.94,3.94,0,0,0,.32.76A4.22,4.22,0,0,1,463.13,392.18Z" transform="translate(-69.59 -261.88)"/><path class="cls-1" d="M463.05,390a4.13,4.13,0,0,0-.08.78A4.13,4.13,0,0,1,463.05,390Z" transform="translate(-69.59 -261.88)"/><path class="cls-1" d="M463.5,388.66a5.71,5.71,0,0,0-.38,1.07A5.71,5.71,0,0,1,463.5,388.66Z" transform="translate(-69.59 -261.88)"/><path class="cls-2" d="M467.18,329.47a3.45,3.45,0,0,0-2.17-.37,4.76,4.76,0,0,0-3.52,2.69l-22,43.83c-1.16,2.33-.4,4.78,1.34,5.72l13.73,7.47,10.24,5.57a3,3,0,0,1-.67-.49l-.16-.17a3.2,3.2,0,0,1-.42-.55c0-.08-.1-.15-.14-.23a4.22,4.22,0,0,1-.32-.76s0-.08,0-.11a4.45,4.45,0,0,1-.13-1c0-.09,0-.19,0-.28a4.13,4.13,0,0,1,.08-.78,2.82,2.82,0,0,1,.07-.31,5.71,5.71,0,0,1,.38-1.07l22-43.83a4.73,4.73,0,0,1,3.51-2.69,3.83,3.83,0,0,1,1.07,0c.12,0,.22.07.33.09a3.78,3.78,0,0,1,.67.23l.1,0Z" transform="translate(-69.59 -261.88)"/><path class="cls-3" d="M514.31,381.52l-21.82-37.68a3.38,3.38,0,0,0-1.44-1.37,3.78,3.78,0,0,0-.67-.23c-.11,0-.21-.07-.33-.09a3.83,3.83,0,0,0-1.07,0,4.73,4.73,0,0,0-3.51,2.69l-22,43.83a5.71,5.71,0,0,0-.38,1.07,2.82,2.82,0,0,0-.07.31,4.13,4.13,0,0,0-.08.78c0,.09,0,.19,0,.28a4.45,4.45,0,0,0,.13,1s0,.07,0,.11a4.22,4.22,0,0,0,.32.76c0,.08.09.15.14.23a3.2,3.2,0,0,0,.42.55l.16.17a3.38,3.38,0,0,0,2.84.86l11.58-1.63L478.26,570a10.57,10.57,0,0,0,.16,1.72c0,.13,0,.26.07.38a8.48,8.48,0,0,0,.46,1.53,1.3,1.3,0,0,0,.08.17,8.07,8.07,0,0,0,.66,1.23l.18.28a7.89,7.89,0,0,0,1,1.11l.2.18a7.89,7.89,0,0,0,1,.77l.23.15a7.72,7.72,0,0,0,4.93.92l2.63-.37c5-.7,9-5.62,9-11l.33-176.9,11.57-1.63A5,5,0,0,0,514.31,381.52Z" transform="translate(-69.59 -261.88)"/><path class="cls-2" d="M433.46,576.74a12.79,12.79,0,0,0-.15-1.68l-.06-.38a9.17,9.17,0,0,0-.39-1.46l0-.09a7.3,7.3,0,0,0-.58-1.19l-.17-.28a6.8,6.8,0,0,0-.8-1,1.09,1.09,0,0,1-.11-.1,6,6,0,0,0-.89-.71l-.25-.16a6.14,6.14,0,0,0-4.06-.79l-5.52.78-11,1.55c-.77,13.26-5.41,40-29.89,47.3a76.17,76.17,0,0,1-12,2.77,50.8,50.8,0,0,1-13.16.22,39.43,39.43,0,0,0,7.85,7.15c1,.66,2,1.27,3,1.83l.52.25c.83.43,1.67.84,2.53,1.2.37.16.75.29,1.12.43.69.26,1.38.51,2.09.74.43.13.88.24,1.32.36.67.19,1.36.36,2.06.51.46.1.94.18,1.41.26.7.13,1.42.23,2.14.31.48.06,1,.12,1.46.16.75.06,1.52.1,2.29.12.48,0,1,0,1.45,0,.85,0,1.72,0,2.6-.08.42,0,.84,0,1.27,0,1.31-.09,2.65-.23,4-.42a76.53,76.53,0,0,0,12-2.77C435.73,621.89,433.55,578.58,433.46,576.74Z" transform="translate(-69.59 -261.88)"/><path class="cls-2" d="M426.74,532a9.31,9.31,0,0,0-3.32-1.06,13.66,13.66,0,0,0-2.3,0l-30.66,4.3,0,12.71a3.57,3.57,0,0,0,.34,1.56,3,3,0,0,0,1.35,1.39,2.77,2.77,0,0,0,.63.22l.23,0a3.08,3.08,0,0,0,.86,0l51.24-7.2a13.8,13.8,0,0,1,2.31,0,9.25,9.25,0,0,1,1.75.39c.19.06.35.16.53.23.35.14.71.27,1,.44Z" transform="translate(-69.59 -261.88)"/><path class="cls-1" d="M420.39,489.34a1.29,1.29,0,0,0-.07-.21,3.27,3.27,0,0,0-.18-.47,2,2,0,0,0-.11-.2,3.25,3.25,0,0,0-.31-.42,1.09,1.09,0,0,1-.1-.11,2.53,2.53,0,0,0-.52-.39,2.62,2.62,0,0,0-1.63-.3l-1.77.25-13.83,1.94-8.21,1.16,23.61,12.84a3.94,3.94,0,0,0,3.19-3.88l0-9.46A3.66,3.66,0,0,0,420.39,489.34Z" transform="translate(-69.59 -261.88)"/><path class="cls-2" d="M372.61,574.58a7.28,7.28,0,0,1-.88-.56l-.06,0a9.54,9.54,0,0,1-.84-.73l-.23-.24a7.46,7.46,0,0,1-.53-.61l-.23-.3c-.17-.24-.33-.48-.48-.73l-.15-.25a7.9,7.9,0,0,1-.5-1.06,2.5,2.5,0,0,1-.09-.25q-.17-.43-.3-.9l-.09-.4c-.07-.29-.12-.58-.17-.88,0-.13,0-.26-.05-.39a11.24,11.24,0,0,1-.08-1.31v-1l-24-13v1a9.63,9.63,0,0,0,4.78,8.72l24,13Z" transform="translate(-69.59 -261.88)"/><polygon class="cls-2" points="298.43 261 298.43 259.58 274.45 246.54 274.45 247.96 274.37 289.99 298.35 303.03 298.43 261"/><path class="cls-2" d="M393.66,490.59l-15.3,2.15a9.73,9.73,0,0,1-2.15.05l-21.85,3.07c-5.68.8-10.31,6.43-10.32,12.56l24,13c0-6.13,4.64-11.76,10.32-12.56l38.94-5.47Z" transform="translate(-69.59 -261.88)"/><path class="cls-2" d="M414.23,450.79a8.83,8.83,0,0,0-5.5-1l-20,2.81,0,13.85a2.48,2.48,0,0,0,.27,1.1l2.08,1.13,41.64-5.85a9.94,9.94,0,0,1,1.32-.08h.36a7.19,7.19,0,0,1,1.05.1,1.6,1.6,0,0,1,.23,0,8,8,0,0,1,1.19.31l.28.1c.3.12.59.25.88.4l.18.08Z" transform="translate(-69.59 -261.88)"/><path class="cls-1" d="M390.05,468.6l.2.07a2,2,0,0,0,.82.06L389,467.6A2,2,0,0,0,390.05,468.6Z" transform="translate(-69.59 -261.88)"/><path class="cls-2" d="M350.69,651.26c-.79-.49-1.57-1-2.34-1.52-26.82-18.47-30.79-56.77-30.94-58.38-.62-6.59,3.87-13.16,10-14.74a9.67,9.67,0,0,1,1.17-.23,11,11,0,0,1,1.89-.08c.19,0,.37,0,.55.06a9.13,9.13,0,0,1,1.29.21l.55.15a9,9,0,0,1,1.33.53l.3.13.08,0-24-13a9.56,9.56,0,0,0-6-1,10.22,10.22,0,0,0-1.18.23c-6.16,1.57-10.66,8.15-10,14.74.15,1.61,4.12,39.91,30.94,58.38a55.08,55.08,0,0,0,4.84,3l24,13-.11-.07c-.54-.29-1.08-.61-1.61-.93Z" transform="translate(-69.59 -261.88)"/><path class="cls-2" d="M407,328.57a8.8,8.8,0,0,0-5.49-.95L389,329.38l0,13.3a3,3,0,0,0,.28,1.3,2.51,2.51,0,0,0,1.14,1.18,2.55,2.55,0,0,0,.53.18l.19,0a2.55,2.55,0,0,0,.73,0l33.62-4.72a9,9,0,0,1,1.36-.09l.41,0a6.84,6.84,0,0,1,.91.09l.43.07a8.93,8.93,0,0,1,.89.23l.33.11a7.72,7.72,0,0,1,1.14.5h0Z" transform="translate(-69.59 -261.88)"/><path class="cls-1" d="M372.76,491.73a10.77,10.77,0,0,1-.91-.58l0,0c-.29-.23-.57-.47-.84-.73l-.23-.25a6.27,6.27,0,0,1-.53-.61,3.25,3.25,0,0,1-.23-.29c-.17-.24-.33-.49-.48-.74l-.15-.24a11.47,11.47,0,0,1-.5-1.06,2,2,0,0,1-.09-.26,8.6,8.6,0,0,1-.29-.9c0-.13-.07-.26-.1-.39a8.25,8.25,0,0,1-.16-.89l-.06-.38a11.41,11.41,0,0,1-.08-1.32v-1.42l.2-107.1L363,371.66l-18.68,2.63-.18,94.32V470a9.61,9.61,0,0,0,4.78,8.72l24,13Z" transform="translate(-69.59 -261.88)"/><path class="cls-1" d="M368.18,373.72a2.1,2.1,0,0,0-.06-.24,4.71,4.71,0,0,0-.21-.52,2.39,2.39,0,0,0-.12-.22,3.19,3.19,0,0,0-.35-.47,1,1,0,0,1-.1-.11,2.69,2.69,0,0,0-.58-.44,2.8,2.8,0,0,0-1.82-.33l-2,.27,5.32,2.89A3.2,3.2,0,0,0,368.18,373.72Z" transform="translate(-69.59 -261.88)"/><path class="cls-2" d="M332.79,337.28l0,13.08a3.26,3.26,0,0,0,.31,1.39l2.77,1.51,28.74-4-24-13Z" transform="translate(-69.59 -261.88)"/><path class="cls-1" d="M311.92,340.64c-.05-.14-.08-.29-.13-.43,0,0,0,0,0,0C311.8,340.36,311.87,340.49,311.92,340.64Z" transform="translate(-69.59 -261.88)"/><path class="cls-1" d="M334.3,353a2.75,2.75,0,0,0,.57.2l.2,0a3.38,3.38,0,0,0,.78,0l-2.77-1.51A2.62,2.62,0,0,0,334.3,353Z" transform="translate(-69.59 -261.88)"/><path class="cls-1" d="M347.48,310.24l-.34-.1Z" transform="translate(-69.59 -261.88)"/><path class="cls-1" d="M346.25,309.91l-.43-.08Z" transform="translate(-69.59 -261.88)"/><path class="cls-1" d="M344.5,309.73l.41,0Z" transform="translate(-69.59 -261.88)"/><path class="cls-2" d="M360.18,264.37a8.09,8.09,0,0,0-3.25-1,10.15,10.15,0,0,0-2.14.07c-5.69.8-10.31,6.43-10.32,12.55l-.06,32.43,4.23,2.3h0c3.44,1.85,5.5,6,4.6,11.05a13,13,0,0,1-8.72,9.88.61.61,0,0,1-.13,0,4.63,4.63,0,0,1-3.74,4.47l24,13a4.63,4.63,0,0,0,3.75-4.57l.1-55.57c0-6.13,4.64-11.76,10.33-12.56a10.06,10.06,0,0,1,2.13-.07,8.72,8.72,0,0,1,1.72.32c.19.06.35.15.53.22a8.09,8.09,0,0,1,1,.42Z" transform="translate(-69.59 -261.88)"/><path class="cls-1" d="M312,341c0-.13-.08-.26-.11-.39s-.12-.28-.17-.43-.11-.29-.18-.43-.12-.25-.19-.36a5,5,0,0,0-.58-.77l-.18-.21a4.88,4.88,0,0,0-1-.72,4.81,4.81,0,0,0-3-.56l-3.24.46-8,1.13a6,6,0,0,0-2.7,1.16,7.19,7.19,0,0,0-2.9,5.66v2.64l16.85,9.16a7,7,0,0,0,5.6-6.82l0-8.13A6.22,6.22,0,0,0,312,341Z" transform="translate(-69.59 -261.88)"/><path class="cls-1" d="M289.73,348.21v5.49a5.83,5.83,0,0,0,.56,2.52,4.74,4.74,0,0,0,2.79,2.54l.2.05a4.53,4.53,0,0,0,.75.15l.27,0a5,5,0,0,0,1,0l11.27-1.58Z" transform="translate(-69.59 -261.88)"/><path class="cls-2" d="M344.41,308.46l-19.74-10.74a8.84,8.84,0,0,0-5.51-1l-5,.71,0,14.39a13.94,13.94,0,0,1-.18,2.05l29.19-4.11a10.44,10.44,0,0,1,1.36-.08l.41,0a9,9,0,0,1,.91.08l.43.08a8.93,8.93,0,0,1,.89.23l.34.1a8.86,8.86,0,0,1,1.13.51h0Z" transform="translate(-69.59 -261.88)"/><path class="cls-2" d="M215.64,536.16l-.17-.11a7.41,7.41,0,0,1-1.09-.77L214,535c-.27-.26-.53-.54-.78-.83-.1-.12-.2-.23-.29-.35a8.66,8.66,0,0,1-.86-1.33,1.17,1.17,0,0,0-.05-.11,9.63,9.63,0,0,1-.59-1.4c-.06-.16-.1-.32-.15-.48a9.85,9.85,0,0,1-.29-1.22c0-.17-.07-.33-.09-.5a12.94,12.94,0,0,1-.14-1.77l.12-61.22-24,3.38-.08,44.8c0,4,1.88,7.57,4.9,9.21l24,13Z" transform="translate(-69.59 -261.88)"/><path class="cls-1" d="M245.64,338.92l.16.39Z" transform="translate(-69.59 -261.88)"/><path class="cls-1" d="M246.32,340.27c.05.08.09.17.15.25C246.41,340.44,246.37,340.35,246.32,340.27Z" transform="translate(-69.59 -261.88)"/><path class="cls-1" d="M245.18,337.57l.07.22Z" transform="translate(-69.59 -261.88)"/><path class="cls-1" d="M248.24,342.51l.3.24Z" transform="translate(-69.59 -261.88)"/><path class="cls-1" d="M247.48,341.8l-.21-.22Z" transform="translate(-69.59 -261.88)"/><path class="cls-2" d="M245.15,341l0,8.57,24,13,0-20.21-14,2a8.76,8.76,0,0,1-5.62-1l.12.08Z" transform="translate(-69.59 -261.88)"/><path class="cls-2" d="M284.8,273.09a8.93,8.93,0,0,0-4.42-1.08,10.85,10.85,0,0,0-1.4.1c-6.21.87-11.25,7-11.26,13.71l0,16.17a12.81,12.81,0,0,0,.17,2l24,13a12.81,12.81,0,0,1-.17-2l0-16.17c0-6.7,5.05-12.84,11.26-13.71a10.85,10.85,0,0,1,1.4-.1,9,9,0,0,1,1.89.19l.26,0a8.35,8.35,0,0,1,1.64.56l.29.13.34.16Z" transform="translate(-69.59 -261.88)"/><path class="cls-2" d="M241.22,375.37a12.91,12.91,0,0,1,10.5-10.29l17.38-2.44-24-13-13.44,1.88v2.71l-.05,24.53,14.14,7.69a.91.91,0,0,1-.13-.08,9.53,9.53,0,0,1-.94-.62l-.3-.25a7.07,7.07,0,0,1-.75-.7l-.22-.22a9.49,9.49,0,0,1-.8-1.06l-.15-.26a7.85,7.85,0,0,1-.51-1l-.17-.38a10.93,10.93,0,0,1-.39-1.14l-.07-.22a11.25,11.25,0,0,1-.26-1.45l0-.4a11.83,11.83,0,0,1,0-1.2c0-.15,0-.3,0-.46A13.92,13.92,0,0,1,241.22,375.37Z" transform="translate(-69.59 -261.88)"/><path class="cls-2" d="M245.05,332.42a12.87,12.87,0,0,1,10.48-10.29l36.3-5.11-24-13-18.32,2.58a13.24,13.24,0,0,1-4.37,9.93,11.29,11.29,0,0,1-5.92,2.87l-7.5,1.05,0,13.32,13.42,7.3,4.46,2.43-.12-.08a8.69,8.69,0,0,1-1-.63l-.3-.24a8.51,8.51,0,0,1-.76-.71l-.21-.22a8.41,8.41,0,0,1-.8-1.06c-.06-.08-.1-.17-.15-.25-.19-.31-.36-.63-.52-1l-.16-.39a10,10,0,0,1-.39-1.13l-.07-.22a11.25,11.25,0,0,1-.26-1.45c0-.13,0-.27,0-.4,0-.39,0-.79,0-1.2,0-.15,0-.3,0-.46A13.47,13.47,0,0,1,245.05,332.42Z" transform="translate(-69.59 -261.88)"/><path class="cls-3" d="M455.94,554.56a11.41,11.41,0,0,0-1.64-6,9.46,9.46,0,0,0-4.62-3.93c-.18-.07-.34-.17-.53-.23a9.25,9.25,0,0,0-1.75-.39,13.8,13.8,0,0,0-2.31,0l-51.24,7.2a3.08,3.08,0,0,1-.86,0l-.23,0a2.77,2.77,0,0,1-.63-.22,3,3,0,0,1-1.35-1.39,3.57,3.57,0,0,1-.34-1.56l0-12.71v-4.4a1.63,1.63,0,0,1,1.31-1.61l40.81-5.73c5.68-.8,10.31-6.42,10.32-14l.07-36v-1a9.57,9.57,0,0,0-5-8.8,8.76,8.76,0,0,0-.88-.4l-.28-.1a8,8,0,0,0-1.19-.31,1.6,1.6,0,0,0-.23,0,7.19,7.19,0,0,0-1.05-.1H434a9.94,9.94,0,0,0-1.32.08l-41.64,5.85a2,2,0,0,1-.82-.06l-.2-.07a2,2,0,0,1-1.06-1,2.48,2.48,0,0,1-.27-1.1l0-13.85.15-81a4.19,4.19,0,0,1,3.36-4.11L425,362.94a12.9,12.9,0,0,0,10.5-10.27c.91-5-1.16-9.22-4.6-11.07a7.72,7.72,0,0,0-1.14-.5l-.33-.11a8.93,8.93,0,0,0-.89-.23l-.43-.07a6.84,6.84,0,0,0-.91-.09l-.41,0a9,9,0,0,0-1.36.09l-33.62,4.72a2.55,2.55,0,0,1-.73,0l-.19,0a2.55,2.55,0,0,1-.53-.18,2.45,2.45,0,0,1-1.13-1.18,2.85,2.85,0,0,1-.29-1.29l0-13.31.08-42.78c0-4.45-2.32-8.25-5.9-9.61-.18-.07-.34-.16-.53-.22a8.72,8.72,0,0,0-1.72-.32,10.06,10.06,0,0,0-2.13.07c-5.69.8-10.31,6.43-10.33,12.56l-.1,55.57a4.63,4.63,0,0,1-3.75,4.57l-28.74,4a3.38,3.38,0,0,1-.78,0l-.2,0a2.75,2.75,0,0,1-.57-.2,2.62,2.62,0,0,1-1.22-1.26,3.26,3.26,0,0,1-.31-1.39l0-13.08v-.38A3.94,3.94,0,0,1,336,333l6.74-1a10.38,10.38,0,0,0,1.65-.38.61.61,0,0,0,.13,0,13,13,0,0,0,8.72-9.88c.9-5-1.16-9.2-4.6-11.05a8.86,8.86,0,0,0-1.13-.51l-.34-.1a8.93,8.93,0,0,0-.89-.23l-.43-.08a9,9,0,0,0-.91-.08l-.41,0a10.44,10.44,0,0,0-1.36.08L314,313.92a13.94,13.94,0,0,0,.18-2.05l0-14.39v-1.32c0-4.59-2.25-8.49-5.72-10.19l-.29-.13a8.35,8.35,0,0,0-1.64-.56l-.26,0a9,9,0,0,0-1.89-.19,10.85,10.85,0,0,0-1.4.1c-6.21.87-11.24,7-11.26,13.71l0,16.17a12.81,12.81,0,0,0,.17,2l-36.3,5.11a12.87,12.87,0,0,0-10.48,10.29,13.47,13.47,0,0,0-.18,1.64c0,.16,0,.31,0,.46,0,.41,0,.81,0,1.2,0,.13,0,.27,0,.4a11.25,11.25,0,0,0,.26,1.45l.07.22a10,10,0,0,0,.39,1.13l.16.39c.16.33.33.65.52,1,.05.08.09.17.15.25a8.41,8.41,0,0,0,.8,1.06l.21.22a8.51,8.51,0,0,0,.76.71l.3.24a8.58,8.58,0,0,0,6.57,1.65l14-2,0,20.21-17.38,2.44a12.91,12.91,0,0,0-10.5,10.29A13.92,13.92,0,0,0,241,377c0,.16,0,.31,0,.46a11.83,11.83,0,0,0,0,1.2l0,.4a11.25,11.25,0,0,0,.26,1.45l.07.22a10.93,10.93,0,0,0,.39,1.14l.17.38a7.85,7.85,0,0,0,.51,1l.15.27a10.37,10.37,0,0,0,.8,1.05l.22.22a7.07,7.07,0,0,0,.75.7l.3.25a9.53,9.53,0,0,0,.94.62,5.25,5.25,0,0,0,.63.31,8.8,8.8,0,0,0,5,.72l2.32-.33.76-.1,56.18-7.9,3.14-.44,30.6-4.3L363,371.66l2-.27a2.8,2.8,0,0,1,1.82.33,2.69,2.69,0,0,1,.58.44,1,1,0,0,0,.1.11,3.19,3.19,0,0,1,.35.47,2.39,2.39,0,0,1,.12.22,4.71,4.71,0,0,1,.21.52,2.1,2.1,0,0,1,.06.24,3.2,3.2,0,0,1,.11.83l-.2,107.1v1.42a11.41,11.41,0,0,0,.08,1.32l.06.38a8.25,8.25,0,0,0,.16.89c0,.13.06.26.1.39a8.6,8.6,0,0,0,.29.9,2,2,0,0,0,.09.26,11.47,11.47,0,0,0,.5,1.06l.15.24c.15.25.31.5.48.74a3.25,3.25,0,0,0,.23.29,6.27,6.27,0,0,0,.53.61l.23.25c.27.26.55.5.84.73l0,0a10.77,10.77,0,0,0,.91.58,8.59,8.59,0,0,0,3.45,1.06,9.73,9.73,0,0,0,2.15-.05l15.3-2.15,8.21-1.16,13.83-1.94,1.77-.25a2.62,2.62,0,0,1,1.63.3,2.53,2.53,0,0,1,.52.39,1.09,1.09,0,0,0,.1.11,3.25,3.25,0,0,1,.31.42,2,2,0,0,1,.11.2,3.27,3.27,0,0,1,.18.47,1.29,1.29,0,0,1,.07.21,3.66,3.66,0,0,1,.09.75l0,9.46a3.94,3.94,0,0,1-3.19,3.88l-38.94,5.47c-5.68.8-10.31,6.43-10.32,12.56v1.42l-.08,42v1a11.24,11.24,0,0,0,.08,1.31c0,.13,0,.26.05.39.05.3.1.59.17.88l.09.4q.14.47.3.9a2.5,2.5,0,0,0,.09.25,7.9,7.9,0,0,0,.5,1.06l.15.25c.15.25.31.49.48.73l.23.3a7.46,7.46,0,0,0,.53.61l.23.24a9.54,9.54,0,0,0,.84.73l.06,0a7.28,7.28,0,0,0,.88.56,8.76,8.76,0,0,0,5.59,1l31.2-4.39,11-1.55,5.52-.78a6.14,6.14,0,0,1,4.06.79l.25.16a6,6,0,0,1,.89.71,1.09,1.09,0,0,0,.11.1,6.8,6.8,0,0,1,.8,1l.17.28a7.3,7.3,0,0,1,.58,1.19l0,.09a9.17,9.17,0,0,1,.39,1.46l.06.38a11.28,11.28,0,0,1,.15,1.68c.09,1.84,2.27,45.15-30,54.81a76.53,76.53,0,0,1-12,2.77c-1.36.19-2.7.33-4,.42-.43,0-.85,0-1.27,0-.88.05-1.75.08-2.6.08-.49,0-1,0-1.45,0-.77,0-1.54-.06-2.29-.12-.49,0-1-.1-1.46-.16-.72-.08-1.44-.18-2.14-.31-.47-.08-1-.16-1.41-.26-.7-.15-1.39-.32-2.06-.51-.44-.12-.89-.23-1.32-.36-.71-.23-1.4-.48-2.09-.74-.37-.14-.75-.27-1.12-.43-.86-.36-1.7-.77-2.53-1.2l-.52-.25c-1-.56-2-1.17-3-1.83a39.43,39.43,0,0,1-7.85-7.15c-12.23-14.45-14.53-35.59-14.56-35.85a10.27,10.27,0,0,0-5.23-8.26l-.3-.13a9,9,0,0,0-1.33-.53l-.55-.15a9.13,9.13,0,0,0-1.29-.21c-.18,0-.36,0-.55-.06a11,11,0,0,0-1.89.08,9.67,9.67,0,0,0-1.17.23c-6.17,1.58-10.66,8.15-10,14.74.15,1.61,4.12,39.91,30.94,58.38.77.53,1.55,1,2.34,1.52l.78.45c.53.32,1.07.64,1.61.93,11,6,23.74,8,38.11,6A98,98,0,0,0,406.85,655c41.88-12.54,50.39-59.15,49-82.58l0-10.14v-7.76Zm-143.76-204a7,7,0,0,1-5.6,6.82L295.31,359a5,5,0,0,1-1,0l-.27,0a4.53,4.53,0,0,1-.75-.15l-.2-.05a4.74,4.74,0,0,1-2.79-2.54,5.83,5.83,0,0,1-.56-2.52v-8.13a7.19,7.19,0,0,1,2.9-5.66,6,6,0,0,1,2.7-1.16l8-1.13,3.24-.46a4.81,4.81,0,0,1,3,.56,4.61,4.61,0,0,1,1,.72l.18.21a5.54,5.54,0,0,1,.58.77c.07.11.13.24.19.36a3.48,3.48,0,0,1,.22.43c0,.14.08.29.13.43s.08.26.11.39a6.22,6.22,0,0,1,.17,1.39Z" transform="translate(-69.59 -261.88)"/><path class="cls-2" d="M212.19,329.76c0-.13-.08-.24-.12-.36a4.37,4.37,0,0,0-.34-.8l-.2-.34a5.62,5.62,0,0,0-.58-.71c-.07-.06-.12-.13-.18-.19-.3-.26-.67-1.6-1-1.78-.89-.46-1.45-1.92-2.59-1.78l-3.62.58-10.79,1.53,0,10.09c0,3.08-6,3.69-9.13,4.09l-5.17.67-.14,6.89a5.12,5.12,0,0,0,.57,2.34,4.67,4.67,0,0,0,2.83,2.35l.19.05a6.36,6.36,0,0,0,.76.14l.28,0a4.92,4.92,0,0,0,1,0l22.74-2.93a6.63,6.63,0,0,0,5.67-6.33l0-12.22A5.34,5.34,0,0,0,212.19,329.76Z" transform="translate(-69.59 -261.88)"/><path class="cls-2" d="M94.7,469.28a12.52,12.52,0,0,1,10.23-9.94l51.77-7.2L143,439.36l-61.46,7.38a12.51,12.51,0,0,0-10.23,9.94c-.9,4.84,1.1,8.87,4.44,10.67L99.14,480l-.12-.08a8.07,8.07,0,0,1-.92-.6l-.3-.24a9.33,9.33,0,0,1-.73-.68l-.21-.21a9.81,9.81,0,0,1-.78-1l-.15-.25a10.36,10.36,0,0,1-.5-.93c-.05-.12-.11-.24-.16-.37a10,10,0,0,1-.38-1.09c0-.08,0-.14-.07-.22a12.38,12.38,0,0,1-.25-1.4l0-.39a11,11,0,0,1,0-1.15c0-.15,0-.3,0-.45A12.69,12.69,0,0,1,94.7,469.28Z" transform="translate(-69.59 -261.88)"/><path class="cls-1" d="M156.87,330.94l-13.78,3.37L143,437.13c0,.33,0,.67,0,1l13.76,13c0-.32,0-.66,0-1Z" transform="translate(-69.59 -261.88)"/><path class="cls-2" d="M220.86,285.17a9.58,9.58,0,0,0-5.93-1l-115.3,16.2a12.92,12.92,0,0,0-10.5,10.3c-.91,5,1.14,9.17,4.57,11l24,13-.12-.08a8.69,8.69,0,0,1-1-.63l-.3-.24a8.39,8.39,0,0,1-.75-.71l-.22-.22a8.41,8.41,0,0,1-.8-1.06c-.06-.08-.1-.17-.15-.25a10,10,0,0,1-.52-1l-.16-.37a10.93,10.93,0,0,1-.39-1.14c0-.08,0-.15-.07-.22a9.76,9.76,0,0,1-.26-1.45c0-.13,0-.27,0-.4a11.75,11.75,0,0,1,0-1.19c0-.16,0-.31,0-.47a13.69,13.69,0,0,1,.18-1.64,12.91,12.91,0,0,1,10.5-10.29l115.3-16.21a11.15,11.15,0,0,1,1.72-.09l.54,0c.38,0,.75.08,1.11.15a6.06,6.06,0,0,1,.61.16c.32.09.64.19,1,.31l.59.26c.14.06.28.11.41.18Z" transform="translate(-69.59 -261.88)"/><path class="cls-3" d="M231.69,351.48l0-17.75,0-13.32,7.5-1.05a11.29,11.29,0,0,0,5.92-2.87,13.24,13.24,0,0,0,4.37-9.93,11.51,11.51,0,0,0-.19-2,8.92,8.92,0,0,0-4.93-6.51l-.59-.26c-.31-.12-.63-.22-1-.31a6.06,6.06,0,0,0-.61-.16c-.36-.07-.73-.11-1.11-.15l-.54,0a11.15,11.15,0,0,0-1.72.09L123.6,313.4a12.91,12.91,0,0,0-10.5,10.29,13.69,13.69,0,0,0-.18,1.64c0,.16,0,.31,0,.47a11.75,11.75,0,0,0,0,1.19c0,.13,0,.27,0,.4a9.76,9.76,0,0,0,.26,1.45c0,.07.05.14.07.22a10.93,10.93,0,0,0,.39,1.14l.16.37a10,10,0,0,0,.52,1c.05.08.09.17.15.25a8.41,8.41,0,0,0,.8,1.06l.22.22a8.39,8.39,0,0,0,.75.71l.3.24a8.69,8.69,0,0,0,1,.63,8.78,8.78,0,0,0,5.62,1l9.7-1.36,24-3.37-.22,119.23c0,.33,0,.67,0,1l-53,7.45a12.89,12.89,0,0,0-10.48,10.3,13.52,13.52,0,0,0-.19,1.64c0,.16,0,.31,0,.47a9.4,9.4,0,0,0,0,1.19c0,.13,0,.27,0,.4a9.54,9.54,0,0,0,.26,1.45l.06.22a10.18,10.18,0,0,0,.39,1.14l.17.38a8.82,8.82,0,0,0,.51,1l.15.26a10.37,10.37,0,0,0,.8,1.05l.22.22a6.3,6.3,0,0,0,.75.71l.3.24a7.27,7.27,0,0,0,.94.62,8.74,8.74,0,0,0,5.63,1l83.65-11.75,24-3.38L210.78,527a12.94,12.94,0,0,0,.14,1.77c0,.17.06.33.09.5a9.85,9.85,0,0,0,.29,1.22c0,.16.09.32.15.48a10.88,10.88,0,0,0,.59,1.4,1.17,1.17,0,0,1,.05.11,8.66,8.66,0,0,0,.86,1.33c.09.12.19.23.29.35a10.21,10.21,0,0,0,.78.83l.36.31a7.41,7.41,0,0,0,1.09.77l.17.11a7.94,7.94,0,0,0,3.29,1,9.35,9.35,0,0,0,2.12-.07c5.69-.8,10.31-6.42,10.32-12.57l.27-145.78.05-24.53Zm-26.35,92.85-22.54,3.16a5.77,5.77,0,0,1-1,0l-.27,0a4.53,4.53,0,0,1-.75-.15l-.2-.05a4.72,4.72,0,0,1-2.79-2.53,6.06,6.06,0,0,1-.55-2.53c0-3.14,0-7,0-10.38,0-.61,0-1.24,0-1.81a6.93,6.93,0,0,1,5.61-6.8l4.1-.58,15.17-2.13,3.24-.46a4.72,4.72,0,0,1,4,1.28,1.81,1.81,0,0,1,.18.21,4.44,4.44,0,0,1,.58.77c.07.11.13.24.2.36a5.92,5.92,0,0,1,.34.86c0,.13.08.25.11.39a5.67,5.67,0,0,1,.17,1.38l0,12.17A7,7,0,0,1,205.34,444.33ZM211,391a7,7,0,0,1-5.61,6.84L182.92,401a4.92,4.92,0,0,1-1,0l-.27,0a4.53,4.53,0,0,1-.75-.15l-.2-.05a4.8,4.8,0,0,1-2.79-2.54,5.75,5.75,0,0,1-.56-2.54l0-10.36v-3.82a7,7,0,0,1,5.61-6.83l4.1-.57L202.24,372l3.24-.45a4.79,4.79,0,0,1,3,.55,4.51,4.51,0,0,1,1,.73,1.81,1.81,0,0,1,.18.21,4.36,4.36,0,0,1,.58.76l.2.37a5.79,5.79,0,0,1,.34.85c0,.13.08.26.11.39a5.69,5.69,0,0,1,.17,1.39Zm.09-48.49a7,7,0,0,1-5.61,6.82L183,352.52a4.92,4.92,0,0,1-1,0l-.27,0a4.52,4.52,0,0,1-.75-.14l-.2-.05a4.77,4.77,0,0,1-2.79-2.54,5.73,5.73,0,0,1-.56-2.52l0-10.38v-2.81a7,7,0,0,1,5.61-6.82l4.1-.58,15.17-2.13,3.24-.46a4.72,4.72,0,0,1,4,1.28,1.81,1.81,0,0,1,.18.21,5,5,0,0,1,.58.77c.07.11.13.24.2.36a7.33,7.33,0,0,1,.34.86c0,.13.08.25.11.39a6.22,6.22,0,0,1,.17,1.39Z" transform="translate(-69.59 -261.88)"/><path class="cls-1" d="M426.7,321c0,.22.06.43.09.64C426.76,321.43,426.72,321.22,426.7,321Z" transform="translate(-69.59 -261.88)"/><path class="cls-1" d="M446.82,280.46l.58,0Z" transform="translate(-69.59 -261.88)"/><path class="cls-1" d="M427.06,323.1c.05.22.1.44.16.65C427.16,323.54,427.11,323.32,427.06,323.1Z" transform="translate(-69.59 -261.88)"/><path class="cls-1" d="M452,281.38l-.46-.17Z" transform="translate(-69.59 -261.88)"/><path class="cls-1" d="M427.7,325.24l.15.43Z" transform="translate(-69.59 -261.88)"/><path class="cls-1" d="M449.53,280.69l-.39-.05Z" transform="translate(-69.59 -261.88)"/><path class="cls-1" d="M428.69,327.42c.07.13.16.26.24.39C428.85,327.68,428.76,327.55,428.69,327.42Z" transform="translate(-69.59 -261.88)"/><path class="cls-1" d="M432.76,332.14l.07.05Z" transform="translate(-69.59 -261.88)"/><path class="cls-1" d="M431.36,330.93c-.13-.12-.25-.26-.38-.4C431.11,330.67,431.23,330.81,431.36,330.93Z" transform="translate(-69.59 -261.88)"/><path class="cls-1" d="M429.72,329c.12.17.25.33.38.49C430,329.36,429.84,329.2,429.72,329Z" transform="translate(-69.59 -261.88)"/><path class="cls-2" d="M439.45,274.36a14.51,14.51,0,0,0-9-1.54l14.26,7.75a16.23,16.23,0,0,1,2.18-.13h.59a16.16,16.16,0,0,1,1.72.16c.13,0,.26,0,.38.06a12.69,12.69,0,0,1,1.95.51l.45.17a14.66,14.66,0,0,1,1.46.64l.29.13Z" transform="translate(-69.59 -261.88)"/><path class="cls-2" d="M429.27,272.91c-9.38,1.32-17,10.61-17,20.76l0,17.33c0,6.54,3.14,11.83,7.9,14.42l14.38,7.82-.17-.11a12.62,12.62,0,0,1-1.47-.94l-.07-.05a14.63,14.63,0,0,1-1.4-1.21c-.13-.12-.25-.26-.38-.4-.31-.32-.6-.66-.88-1-.13-.16-.26-.32-.38-.49-.28-.39-.54-.8-.79-1.22-.08-.13-.17-.26-.24-.39a16.6,16.6,0,0,1-.84-1.75l-.15-.43c-.18-.48-.34-1-.48-1.49-.06-.21-.11-.43-.16-.65-.11-.48-.2-1-.27-1.46,0-.21-.07-.42-.09-.64a19.31,19.31,0,0,1-.13-2.17l0-17.33c0-10.15,7.67-19.44,17.06-20.76l1-.14-14.39-7.82Z" transform="translate(-69.59 -261.88)"/><path class="cls-4" d="M453.42,282a16,16,0,0,0-1.47-.65l-.46-.17a14.49,14.49,0,0,0-2-.52l-.39-.05a14.24,14.24,0,0,0-1.74-.16l-.58,0a16.35,16.35,0,0,0-2.2.14l-1,.14c-9.39,1.32-17,10.61-17.06,20.76l0,17.33a19.31,19.31,0,0,0,.13,2.17c0,.22.06.43.09.64.07.5.16,1,.27,1.46.05.22.1.44.16.65.14.51.3,1,.48,1.49l.15.43a16.6,16.6,0,0,0,.84,1.75c.07.13.16.26.24.39.25.42.51.83.79,1.22.12.17.25.33.38.49.28.35.57.69.88,1,.13.14.25.28.38.4a14.63,14.63,0,0,0,1.4,1.21l.07.05a12.62,12.62,0,0,0,1.47.94,14.55,14.55,0,0,0,9.26,1.67l1-.13c9.4-1.32,17-10.61,17.05-20.76l0-17.33C461.61,289.91,458.33,284.56,453.42,282Z" transform="translate(-69.59 -261.88)"/><path class="cls-5" d="M172.35,474.72c.06.11.12.21.17.32C172.47,474.93,172.41,474.83,172.35,474.72Z" transform="translate(-69.59 -261.88)"/><path class="cls-5" d="M174,477.07l0-.05Z" transform="translate(-69.59 -261.88)"/><path class="cls-5" d="M171.85,473.5a.08.08,0,0,1,0,0A.08.08,0,0,0,171.85,473.5Z" transform="translate(-69.59 -261.88)"/><path class="cls-5" d="M173,475.83l.21.3Z" transform="translate(-69.59 -261.88)"/><path class="cls-5" d="M174.86,477.86a2.92,2.92,0,0,0,.28.21A2.92,2.92,0,0,1,174.86,477.86Z" transform="translate(-69.59 -261.88)"/><path class="cls-5" d="M171.47,471.87l.06.39Z" transform="translate(-69.59 -261.88)"/><path class="cls-5" d="M224.29,429.17a4.34,4.34,0,0,1,.61.8A4.83,4.83,0,0,0,224.29,429.17Z" transform="translate(-69.59 -261.88)"/><path class="cls-5" d="M225.59,431.66a6.28,6.28,0,0,1,.18,1.46A6.34,6.34,0,0,0,225.59,431.66Z" transform="translate(-69.59 -261.88)"/><path class="cls-5" d="M223.09,428.19a4.65,4.65,0,0,1,1,.75A4.65,4.65,0,0,0,223.09,428.19Z" transform="translate(-69.59 -261.88)"/><path class="cls-5" d="M174.51,430.87l-.18-.18Z" transform="translate(-69.59 -261.88)"/><path class="cls-5" d="M225.11,430.35a7,7,0,0,1,.36.9A7,7,0,0,0,225.11,430.35Z" transform="translate(-69.59 -261.88)"/><path class="cls-5" d="M171.35,470.86c0-.14,0-.27,0-.42C171.33,470.59,171.34,470.72,171.35,470.86Z" transform="translate(-69.59 -261.88)"/><path class="cls-5" d="M223.07,379.57a5.13,5.13,0,0,1,1.06.79A5.13,5.13,0,0,0,223.07,379.57Z" transform="translate(-69.59 -261.88)"/><path class="cls-5" d="M224.33,380.6a5.18,5.18,0,0,1,.63.83A5.18,5.18,0,0,0,224.33,380.6Z" transform="translate(-69.59 -261.88)"/><path class="cls-5" d="M225.86,384.7a6.18,6.18,0,0,0-.19-1.51A6.71,6.71,0,0,1,225.86,384.7Z" transform="translate(-69.59 -261.88)"/><path class="cls-5" d="M225.18,381.83a6.57,6.57,0,0,1,.37.94A5.57,5.57,0,0,0,225.18,381.83Z" transform="translate(-69.59 -261.88)"/><path class="cls-5" d="M195.55,408.62l-.22-.05Z" transform="translate(-69.59 -261.88)"/><path class="cls-5" d="M196.68,408.81a1.53,1.53,0,0,1-.3,0A1.45,1.45,0,0,0,196.68,408.81Z" transform="translate(-69.59 -261.88)"/><path class="cls-1" d="M220.41,433.77c0-.14-.08-.28-.12-.41a6,6,0,0,0-.33-.9c-.06-.13-.12-.26-.19-.39a6.7,6.7,0,0,0-.56-.8c-.07-.07-.12-.16-.18-.22a4.54,4.54,0,0,0-.94-.76,4.39,4.39,0,0,0-3-.59l-3.13.48-4.74.72v8c0,3.76-2.63,7.22-5.87,7.71l-34.54,5.25c-4.93.75-9.4,5.61-9.87,11.41-.35,4.37,1.47,8,4.34,9.67l13.3,7.82a1.77,1.77,0,0,1-.17-.12,5.23,5.23,0,0,1-.68-.48l-.26-.2a7.74,7.74,0,0,1-.82-.8l0-.05a7.66,7.66,0,0,1-.67-.89c-.07-.1-.13-.2-.19-.3-.16-.25-.3-.51-.44-.78l-.16-.33a11.07,11.07,0,0,1-.45-1.18v0a12.43,12.43,0,0,1-.29-1.24c0-.13,0-.27-.06-.4-.05-.33-.09-.66-.11-1,0-.13,0-.27,0-.41a11.77,11.77,0,0,1,0-1.45c.48-5.8,4.94-10.66,9.88-11.41l34.54-5.25c3.24-.49,5.86-3.94,5.87-7.71l0-11.51A7.49,7.49,0,0,0,220.41,433.77Z" transform="translate(-69.59 -261.88)"/><path class="cls-1" d="M219.36,385.29c0-.14-.08-.28-.12-.42a6,6,0,0,0-.38-.94,3,3,0,0,0-.21-.4,5.18,5.18,0,0,0-.63-.83l-.2-.24a5.09,5.09,0,0,0-1.06-.78,5.25,5.25,0,0,0-3.33-.61l-3.52.49-4.75.67,0,11a6.76,6.76,0,0,1-5.46,6.64l-14.34,2v3.23a6.38,6.38,0,0,0,.61,2.74,5.26,5.26,0,0,0,3.08,2.8l.22.06a5.54,5.54,0,0,0,.83.16l.3,0a5.85,5.85,0,0,0,1.1,0l22.6-3.17a6.76,6.76,0,0,0,5.45-6.64l0-14.26A6.8,6.8,0,0,0,219.36,385.29Z" transform="translate(-69.59 -261.88)"/><path class="cls-4" d="M234.42,357.61c-.16-.06-.31-.15-.47-.21a7.35,7.35,0,0,0-1.49-.35,8,8,0,0,0-2.94-.12l-48.7,7.41a8.58,8.58,0,0,0-1.11.09,9.68,9.68,0,0,0-4.56,2.08,13.5,13.5,0,0,0-5,10.41,11.84,11.84,0,0,0,.14,1.71l-.08,46.77a10.63,10.63,0,0,0,1.61,5.88,8.38,8.38,0,0,0,1.18,1.51l.17.19a8.09,8.09,0,0,0,1.39,1.08,7.41,7.41,0,0,0,5.1,1l27.59-4.19,4.74-.72,3.13-.48a4.39,4.39,0,0,1,3,.59,4.54,4.54,0,0,1,.94.76c.06.06.11.15.18.22a6.7,6.7,0,0,1,.56.8c.07.13.13.26.19.39a6,6,0,0,1,.33.9c0,.13.09.27.12.41a7.49,7.49,0,0,1,.16,1.45l0,11.51c0,3.77-2.63,7.22-5.87,7.71l-34.54,5.25c-4.94.75-9.4,5.61-9.88,11.41a11.77,11.77,0,0,0,0,1.45c0,.14,0,.28,0,.41,0,.35.06.68.11,1,0,.13,0,.27.06.4a12.43,12.43,0,0,0,.29,1.24v0a11.07,11.07,0,0,0,.45,1.18l.16.33c.14.27.28.53.44.78.06.1.12.2.19.3a7.66,7.66,0,0,0,.67.89l0,.05a7.74,7.74,0,0,0,.82.8l.26.2a5.23,5.23,0,0,0,.68.48,7.43,7.43,0,0,0,5.15,1.05l49.57-7.53c.23,0,.48,0,.86-.09,5.22-.8,9.46-6.39,9.47-12.48l.17-95C239.66,362.31,237.52,358.94,234.42,357.61Zm-13.79,43.46c0,3.25-2.27,6.21-5,6.64l-20.9,3.17a5,5,0,0,1-1,0l-.27,0a4.78,4.78,0,0,1-.77-.16l-.2-.06a5,5,0,0,1-2.85-2.8,6.84,6.84,0,0,1-.56-2.74V392.54c0-4.15,2.91-8,6.48-8.51l11.83-1.8,4.39-.67,3.25-.49a4.58,4.58,0,0,1,3.09.61,4.81,4.81,0,0,1,1,.78l.19.24a5.57,5.57,0,0,1,.58.83c.07.13.14.26.2.4a5.83,5.83,0,0,1,.34.94c0,.14.09.28.12.42a7.45,7.45,0,0,1,.17,1.52Z" transform="translate(-69.59 -261.88)"/><path class="cls-2" d="M222,350.2a7.56,7.56,0,0,0-2.84-1,8,8,0,0,0-2.94-.11l-48.7,7.4a10.45,10.45,0,0,0-1.1.1,9.7,9.7,0,0,0-4.57,2.07,13.52,13.52,0,0,0-5,10.42,11.58,11.58,0,0,0,.14,1.7l-.08,46.78a10.76,10.76,0,0,0,1.61,5.88,8.21,8.21,0,0,0,2.87,2.87l13.3,7.83s-.09-.08-.13-.1a8.09,8.09,0,0,1-1.39-1.08l-.17-.19a8.38,8.38,0,0,1-1.18-1.51,10.63,10.63,0,0,1-1.61-5.88l.08-46.77a11.84,11.84,0,0,1-.14-1.71,13.5,13.5,0,0,1,5-10.41,9.68,9.68,0,0,1,4.56-2.08,8.58,8.58,0,0,1,1.11-.09l48.7-7.41a8,8,0,0,1,2.94.12,7.35,7.35,0,0,1,1.49.35c.16.06.31.15.47.21a8.82,8.82,0,0,1,.88.41Z" transform="translate(-69.59 -261.88)"/><path class="cls-6" d="M266.19,517.58a11.05,11.05,0,0,0,.11,1.54A11.05,11.05,0,0,1,266.19,517.58Z" transform="translate(-69.59 -261.88)"/><path class="cls-6" d="M336.27,392.07h0Z" transform="translate(-69.59 -261.88)"/><path class="cls-6" d="M266.39,519.6a10,10,0,0,0,.22,1A10,10,0,0,1,266.39,519.6Z" transform="translate(-69.59 -261.88)"/><path class="cls-6" d="M266.78,521.1a7.5,7.5,0,0,0,.32.83A8.36,8.36,0,0,1,266.78,521.1Z" transform="translate(-69.59 -261.88)"/><path class="cls-6" d="M268.05,523.61a7.34,7.34,0,0,0,.56.69C268.42,524.08,268.22,523.85,268.05,523.61Z" transform="translate(-69.59 -261.88)"/><path class="cls-6" d="M267.33,522.43c.14.26.28.5.43.74C267.61,522.93,267.47,522.68,267.33,522.43Z" transform="translate(-69.59 -261.88)"/><path class="cls-6" d="M337.94,392.23c-.12,0-.24,0-.36-.06C337.7,392.19,337.82,392.2,337.94,392.23Z" transform="translate(-69.59 -261.88)"/><path class="cls-6" d="M291.6,448.67l-.28,0Z" transform="translate(-69.59 -261.88)"/><path class="cls-6" d="M339.25,443.23l-.31-.11Z" transform="translate(-69.59 -261.88)"/><path class="cls-6" d="M337.67,442.8l-.13,0Z" transform="translate(-69.59 -261.88)"/><path class="cls-6" d="M269.78,525.42a9,9,0,0,1-.87-.77A9,9,0,0,0,269.78,525.42Z" transform="translate(-69.59 -261.88)"/><path class="cls-6" d="M290.53,448.49l-.2-.05Z" transform="translate(-69.59 -261.88)"/><path class="cls-6" d="M339.16,392.55h0Z" transform="translate(-69.59 -261.88)"/><path class="cls-6" d="M335.94,442.67h0Z" transform="translate(-69.59 -261.88)"/><path class="cls-6" d="M323.93,469.65a5.53,5.53,0,0,1,.35.91A5.53,5.53,0,0,0,323.93,469.65Z" transform="translate(-69.59 -261.88)"/><path class="cls-6" d="M321.91,467.49a4.65,4.65,0,0,1,1,.75A4.65,4.65,0,0,0,321.91,467.49Z" transform="translate(-69.59 -261.88)"/><path class="cls-6" d="M323.12,468.47a5.39,5.39,0,0,1,.6.8A5.39,5.39,0,0,0,323.12,468.47Z" transform="translate(-69.59 -261.88)"/><path class="cls-6" d="M324.58,472.43a6.21,6.21,0,0,0-.18-1.46A6.21,6.21,0,0,1,324.58,472.43Z" transform="translate(-69.59 -261.88)"/><path class="cls-6" d="M291.12,503.17l-.26,0Z" transform="translate(-69.59 -261.88)"/><path class="cls-6" d="M310.16,485l0-16.91-17.56,2.47a7.27,7.27,0,0,0-5.86,7.13l0,16.34,18.08-2.54A6.6,6.6,0,0,0,310.16,485Z" transform="translate(-69.59 -261.88)"/><path class="cls-6" d="M290.14,503,290,503Z" transform="translate(-69.59 -261.88)"/><path class="cls-2" d="M324.4,471a4,4,0,0,0-.12-.41,5.53,5.53,0,0,0-.35-.91l-.21-.38a5.39,5.39,0,0,0-.6-.8c-.07-.07-.13-.16-.2-.23a4.65,4.65,0,0,0-1-.75,5,5,0,0,0-3.2-.58l-3.4.47-5.12.72,0,16.91a6.6,6.6,0,0,1-5.34,6.49L286.74,494v4a5.55,5.55,0,0,0,.54,2.42A4.5,4.5,0,0,0,290,503l.19.05a3.4,3.4,0,0,0,.72.14l.26,0a5.41,5.41,0,0,0,1,0l27.11-3.81a6.6,6.6,0,0,0,5.33-6.5l0-20.4A6.21,6.21,0,0,0,324.4,471Z" transform="translate(-69.59 -261.88)"/><path class="cls-1" d="M326,435.91a9.39,9.39,0,0,0-5.9-1l-33.27,4.67v3.56a6,6,0,0,0,.59,2.62,4.93,4.93,0,0,0,2.91,2.65l.2.05a4.26,4.26,0,0,0,.79.16l.28,0a5.31,5.31,0,0,0,1,0l41.84-5.88a10.17,10.17,0,0,1,1.45-.09h.36a10,10,0,0,1,1.24.11l.13,0a8.74,8.74,0,0,1,1.27.32l.31.11c.34.13.68.28,1,.44,0,0,.1,0,.14.07Z" transform="translate(-69.59 -261.88)"/><path class="cls-4" d="M340.25,443.67c-.32-.16-.66-.31-1-.44l-.31-.11a8.74,8.74,0,0,0-1.27-.32l-.13,0a10,10,0,0,0-1.24-.11h-.36a10.17,10.17,0,0,0-1.45.09l-41.84,5.88a5.31,5.31,0,0,1-1,0l-.28,0a4.26,4.26,0,0,1-.79-.16l-.2-.05a4.93,4.93,0,0,1-2.91-2.65,6,6,0,0,1-.59-2.62v-3.56l0-12.12A7.67,7.67,0,0,1,293,420l41.39-5.82A12.91,12.91,0,0,0,345,402.83c.42-4.47-1.61-8.14-4.8-9.8a8.53,8.53,0,0,0-1.07-.48h0a8,8,0,0,0-1.19-.31c-.12,0-.24,0-.36-.06a7,7,0,0,0-.93-.09h-.38a9.94,9.94,0,0,0-1.32.08l-58.31,8.2c-5.6.78-10.17,6.35-10.18,12.39,0,.22,0,.42,0,.62-.05.46-.08.92-.09,1.39l-.19,102.83a11.05,11.05,0,0,0,.11,1.54c0,.17.06.32.09.48a10,10,0,0,0,.22,1c.05.18.11.35.17.52a8.36,8.36,0,0,0,.32.83c.07.17.15.33.23.5s.28.5.43.74.19.3.29.44.37.47.56.69.19.24.3.35a9,9,0,0,0,.87.77l.12.11a8.55,8.55,0,0,0,2.49,1.29,9.08,9.08,0,0,0,4.25.42l55.6-7.82a9.1,9.1,0,0,0,2.5,0c5.66-.8,10.25-6.41,10.26-12.5l.1-54.6A9.42,9.42,0,0,0,340.25,443.67Zm-15.71,49.16a6.6,6.6,0,0,1-5.33,6.5l-27.11,3.81a5.41,5.41,0,0,1-1,0l-.26,0a3.4,3.4,0,0,1-.72-.14L290,503a4.5,4.5,0,0,1-2.68-2.44,5.55,5.55,0,0,1-.54-2.42v-4l0-16.34a7.27,7.27,0,0,1,5.86-7.13l17.56-2.47,5.12-.72,3.4-.47a5,5,0,0,1,3.2.58,4.65,4.65,0,0,1,1,.75c.07.07.13.16.2.23a5.39,5.39,0,0,1,.6.8l.21.38a5.53,5.53,0,0,1,.35.91,4,4,0,0,1,.12.41,6.21,6.21,0,0,1,.18,1.46Z" transform="translate(-69.59 -261.88)"/><path class="cls-2" d="M327,384.92a8.73,8.73,0,0,0-5.4-.94l-58.32,8.2c-5.59.79-10.17,6.36-10.18,12.4,0,.21,0,.41,0,.61a12.83,12.83,0,0,0-.09,1.4l-.19,102.82a9.55,9.55,0,0,0,4.74,8.62L272,525.85a8.69,8.69,0,0,1-1-.66l-.12-.11a9,9,0,0,1-.87-.77l-.3-.35c-.19-.22-.38-.45-.56-.69s-.19-.29-.29-.44-.29-.49-.43-.74-.16-.33-.23-.5a8.36,8.36,0,0,1-.32-.83c-.06-.17-.12-.34-.17-.52a10,10,0,0,1-.22-1c0-.16-.07-.31-.09-.48a11.07,11.07,0,0,1-.1-1.54l.19-102.83a12.81,12.81,0,0,1,.08-1.39c0-.2,0-.4,0-.62,0-6,4.58-11.61,10.18-12.39l58.32-8.2a9.7,9.7,0,0,1,1.31-.08h.38a7.3,7.3,0,0,1,.94.09l.35.06a7.69,7.69,0,0,1,1.19.31h0a7.93,7.93,0,0,1,1.07.48l.13.05Z" transform="translate(-69.59 -261.88)"/></svg>