<svg xmlns="http://www.w3.org/2000/svg" width="259.596" height="408.174" viewBox="0 0 259.596 408.174">
  <g id="Group_180" data-name="Group 180" transform="translate(-268.144 -589.576)">
    <g id="Group_88" data-name="Group 88">
      <path id="Path_1129" data-name="Path 1129" d="M527,723l-3.42-5.13a2.2,2.2,0,0,0,.08-.35,4.517,4.517,0,0,1,1.22,1.35c.34.49.74,1.09,1.17,1.78.21.36.44.73.68,1.12.11.2.23.41.36.62.21.39.42.79.65,1.2-.7,1.06-1.45,2.22-2.25,3.45-.01.01-.01.02-.02.03a8.081,8.081,0,0,0,.27-1.55Z"/>
      <path id="Path_1130" data-name="Path 1130" d="M525.74,725.52a8.081,8.081,0,0,1-.27,1.55c-.6.91-1.24,1.85-1.91,2.82L524,729Z"/>
      <path id="Path_1131" data-name="Path 1131" d="M523.58,717.87c-.03.16-.07.31-.11.47a1.7,1.7,0,0,1-.05-.71Z"/>
      <path id="Path_1132" data-name="Path 1132" d="M523.42,717.63a.158.158,0,0,1,.08-.13.16.16,0,0,1,.16.02,2.2,2.2,0,0,1-.08.35Z"/>
      <path id="Path_1133" data-name="Path 1133" d="M521.85,732.28c-.38.53-.75,1.04-1.12,1.55.25-.56.5-1.1.73-1.62.67-1.46,1.31-2.76,1.87-3.84,1.13-2.15,1.98-3.41,2.29-3.28.09.03.13.18.12.43L524,729l-.44.89c-.09.12-.17.25-.26.37C522.8,730.95,522.32,731.63,521.85,732.28Z"/>
      <path id="Path_1134" data-name="Path 1134" d="M520.62,738.97a85.185,85.185,0,0,1-10.78,7.17c-.02-.01-.03-.02-.05-.03C513.44,742.89,519,739,519,739l4.56-9.11c.67-.97,1.31-1.91,1.91-2.82-.13.55-.32,1.21-.55,1.96-.35,1.16-.82,2.53-1.37,4.04-.28.76-.58,1.55-.89,2.37q-.555,1.38-1.14,2.85C521.22,738.52,520.92,738.74,520.62,738.97Z"/>
      <path id="Path_1135" data-name="Path 1135" d="M520.01,709a1.572,1.572,0,0,0-.12-.26l.24.06c.33.08.74.21,1.2.37.23.08.47.16.73.26l.2.07.32.14c.23.09.46.19.7.3.25,1.32.38,1.73.52,2.66a13.542,13.542,0,0,1,.14,2.75,12.907,12.907,0,0,1-.28,2.17.16.16,0,0,0-.16-.02.158.158,0,0,0-.08.13L523,717v-7Z"/>
      <path id="Path_1136" data-name="Path 1136" d="M508.6,696.64c3-3.76,6.53-8.26,10.42-13.28.46-.59.92-1.19,1.39-1.79a.682.682,0,0,1,.78-.11c.13.22.15-.25-.18.86-.27.79-.55,1.59-.83,2.4-1.18,3.24-2.4,6.6-3.65,10.04-2.53,6.87-4.96,13.42-7.09,19.41-.17.47-.34.93-.5,1.39a17.3,17.3,0,0,0-3.09-4.07c-.7-.71-1.43-1.4-2.19-2.06-.39-.33-.78-.66-1.18-.98l-.61-.48-1.09-.81c-.56.12-.96.21-1.28.31C501.93,704.75,505.32,700.77,508.6,696.64Z" fill="#f3d2c2"/>
      <path id="Path_1137" data-name="Path 1137" d="M520,679l.15.1c-.1.03-.2.06-.3.1Z" fill="#fffff8"/>
      <path id="Path_1138" data-name="Path 1138" d="M520,709l-.24-.29c.04.01.08.02.13.03a1.572,1.572,0,0,1,.12.26Z"/>
      <path id="Path_1139" data-name="Path 1139" d="M518.29,731.93l-.37-.11c-.12-.03-.07-.01-.11-.01l-.15-.01-.03-.11-.01-.07c-.01,0,.02-.18.02-.26.03-.42.06-.82.09-1.19.05-.74.08-1.39.08-1.93a6.214,6.214,0,0,0-.02-.63h.31c.68-.96,1.41-2,2.17-3.08.32-.46.64-.93.97-1.41a16.374,16.374,0,0,0,.99-1.61,14.968,14.968,0,0,0,1.24-3.17,10.563,10.563,0,0,0,.3,1.09c.18.56.43,1.24.72,2,.16.38.32.79.49,1.21.09.21.18.43.27.65l.01.12-.05.04-.03.02s-.01.01-.06.07c-.17.22-.34.45-.52.68q-.525.69-1.08,1.44c-.73.99-1.5,2.06-2.27,3.16-.48.7-.95,1.39-1.41,2.05-.23.34-.45.67-.67.99l-.08.13-.04.06v.02l-.01.04a.429.429,0,0,1-.05.01C518.75,732.06,518.52,731.99,518.29,731.93Z" fill="#f3d2c2"/>
      <path id="Path_1140" data-name="Path 1140" d="M520.06,709.17a1.427,1.427,0,0,1,.01.74c-.13-.1-.25-.19-.36-.28-.54-.43-.8-.74-.73-.89.06-.11.33-.12.78-.03l.24.29h.01C520.03,709.05,520.04,709.11,520.06,709.17Z"/>
      <path id="Path_1141" data-name="Path 1141" d="M518.87,695.62c-1.01,2.75-2.02,5.45-3.01,8.07-.48-.48-.8-.73-.86-.69l8-22-2.85-1.9a2.949,2.949,0,0,1,2.33.35,2.631,2.631,0,0,1,1.22,1.94,3.975,3.975,0,0,1-.08.59,2.3,2.3,0,0,1-.06.28l-.05.16-.19.64c-.27.81-.55,1.64-.82,2.47C521.36,688.81,520.14,692.17,518.87,695.62Z"/>
      <path id="Path_1142" data-name="Path 1142" d="M519.76,708.71l-3.98-4.78a2.248,2.248,0,0,0,.08-.24,33.3,33.3,0,0,1,2.55,2.87,18.694,18.694,0,0,1,1.32,1.88c.05.09.11.19.16.3C519.84,708.73,519.8,708.72,519.76,708.71Z"/>
      <path id="Path_1143" data-name="Path 1143" d="M517.79,727.61l-.98-.03c.28-.72.51-1.11.69-1.08C517.66,726.53,517.76,726.92,517.79,727.61Z"/>
      <path id="Path_1144" data-name="Path 1144" d="M515.71,731.41l.08-.36c.11-.41.21-.79.3-1.15.19-.72.38-1.35.55-1.86.06-.17.11-.32.17-.46l.98.03a6.214,6.214,0,0,1,.02.63c0,.54-.03,1.19-.08,1.93-.03.37-.06.77-.09,1.19,0,.08-.03.26-.02.26l.01.07.03.11.15.01c.04,0-.01-.02.11.01l.37.11c.23.06.46.13.7.19a.429.429,0,0,0,.05-.01l.01-.04v-.02l.04-.06.08-.13c.22-.32.44-.65.67-.99.46-.66.93-1.35,1.41-2.05.77-1.1,1.54-2.17,2.27-3.16q.555-.75,1.08-1.44c.18-.23.35-.46.52-.68.05-.06.06-.07.06-.07l.03-.02.05-.04-.01-.12c-.09-.22-.18-.44-.27-.65-.17-.42-.33-.83-.49-1.21-.29-.76-.54-1.44-.72-2a10.563,10.563,0,0,1-.3-1.09c.04-.16.08-.31.11-.47L527,723l-1.26,2.52c.01-.25-.03-.4-.12-.43-.31-.13-1.16,1.13-2.29,3.28-.56,1.08-1.2,2.38-1.87,3.84-.23.52-.48,1.06-.73,1.62-.26.36-.52.71-.77,1.06q-.78-.27-1.53-.54c-.28-.11-.56-.21-.84-.32-.78-.29-1.53-.56-2.25-.83.09-.42.17-.82.25-1.22Z"/>
      <path id="Path_1145" data-name="Path 1145" d="M515.93,725.47l-.18.01-.04.01-.07.02c-.07.02-.14.03-.2.05a1.911,1.911,0,0,1-.09-.26,2.926,2.926,0,0,1-.05-.4c-.02-.16-.03-.32-.05-.47-.07-.62-.15-1.15-.23-1.58a5.993,5.993,0,0,0-.14-.65,2.83,2.83,0,0,0,.88-1.16q.765-1.815,1.47-3.48c.91-2.23,1.72-4.25,2.36-6.08.16-.46.31-.89.44-1.37a.648.648,0,0,0,.04-.2c.2.14.42.29.66.46.2.13.42.27.65.43l.18.11.06.05.1.1a13.547,13.547,0,0,0,.06,1.72,15.362,15.362,0,0,1-1.75,7.55c-.27.5-.53.93-.85,1.42s-.63.96-.93,1.43-.59.93-.87,1.38c-.14.23-.27.45-.41.67l-.05.08v.03l-.02.05-.04.01c-.02.01.02.02-.16.02C516.44,725.44,516.18,725.45,515.93,725.47Z" fill="#f3d2c2"/>
      <path id="Path_1146" data-name="Path 1146" d="M515,703c.06-.04.38.21.86.69a2.248,2.248,0,0,1-.08.24Z"/>
      <path id="Path_1147" data-name="Path 1147" d="M515.68,704.19c-.47-.7-.75-1.14-.68-1.19l.78.93C515.75,704.02,515.71,704.1,515.68,704.19Z"/>
      <path id="Path_1148" data-name="Path 1148" d="M513.7,724.9c.02-.16.03-.32.05-.47.07-.62.15-1.15.23-1.58.01-.08.03-.15.04-.22a2.621,2.621,0,0,0,.84-.41l.02-.02a5.993,5.993,0,0,1,.14.65c.08.43.16.96.23,1.58.02.15.03.31.05.47a2.926,2.926,0,0,0,.05.4,1.911,1.911,0,0,0,.09.26c.06-.02.13-.03.2-.05l.07-.02.04-.01.18-.01c.25-.02.51-.03.77-.05.18,0,.14-.01.16-.02l.04-.01.02-.05v-.03l.05-.08c.14-.22.27-.44.41-.67.28-.45.58-.91.87-1.38s.61-.95.93-1.43.58-.92.85-1.42a15.362,15.362,0,0,0,1.75-7.55,13.547,13.547,0,0,1-.06-1.72l-.1-.1-.06-.05-.18-.11c-.23-.16-.45-.3-.65-.43-.24-.17-.46-.32-.66-.46a1.427,1.427,0,0,0-.01-.74c-.02-.06-.03-.12-.05-.17l2.99,1v7l.42.63a1.7,1.7,0,0,0,.05.71,14.968,14.968,0,0,1-1.24,3.17,16.374,16.374,0,0,1-.99,1.61c-.33.48-.65.95-.97,1.41-.76,1.08-1.49,2.12-2.17,3.08h-.31c-.03-.69-.13-1.08-.29-1.11-.18-.03-.41.36-.69,1.08h-.11c-.26-.02-.52-.03-.77-.05q-1.245-.045-2.37-.09c.03-.68.06-1.32.09-1.93C513.67,725.17,513.68,725.09,513.7,724.9Z"/>
      <path id="Path_1149" data-name="Path 1149" d="M514.88,722.2l-.02.02a2.621,2.621,0,0,1-.84.41c.14-.73.31-1.13.48-1.13C514.64,721.5,514.77,721.74,514.88,722.2Z"/>
      <path id="Path_1150" data-name="Path 1150" d="M509.02,745.55a79.245,79.245,0,0,1,10.1-8.58l.32-.23c.03-.03.04-.03.04-.03.32-.75.63-1.49.94-2.19.1-.23.21-.46.31-.69.37-.51.74-1.02,1.12-1.55.47-.65.95-1.33,1.45-2.02.09-.12.17-.25.26-.37L519,739s-5.56,3.89-9.21,7.11C509.54,745.92,509.28,745.74,509.02,745.55Z"/>
      <path id="Path_1151" data-name="Path 1151" d="M513.7,720.62c-.15.1-.18.1-.6.2-.33.07-.66.15-1,.23l-.5.12a1.769,1.769,0,0,1-.23.01.794.794,0,0,1-.55-.33c-.03-.05-.02-.04-.07-.13l-.13-.24c-.17-.32-.34-.65-.51-.98a.717.717,0,0,1-.07-.43.436.436,0,0,0,.01-.05c.01-.02.01-.04.02-.05l.07-.2.2-.53c.14-.35.28-.71.42-1.07.27-.73.55-1.46.84-2.2,1.29-3.41,2.67-7.02,4.08-10.78.49.74,1.2,1.76,1.93,2.92.34.57.74,1.21,1.07,1.89.19.4.21.47.1.75-.13.37-.31.8-.49,1.23-.75,1.73-1.67,3.7-2.68,5.87-.51,1.08-1.05,2.22-1.6,3.4A.785.785,0,0,1,513.7,720.62Z" fill="#f3d2c2"/>
      <path id="Path_1152" data-name="Path 1152" d="M509.69,719.32c.02-.11.03-.23.04-.34l.32.04a.436.436,0,0,1-.01.05.717.717,0,0,0,.07.43c.17.33.34.66.51.98l.13.24c.05.09.04.08.07.13a.794.794,0,0,0,.55.33,1.769,1.769,0,0,0,.23-.01l.5-.12c.34-.08.67-.16,1-.23.42-.1.45-.1.6-.2a.785.785,0,0,0,.31-.37c.55-1.18,1.09-2.32,1.6-3.4,1.01-2.17,1.93-4.14,2.68-5.87.18-.43.36-.86.49-1.23.11-.28.09-.35-.1-.75-.33-.68-.73-1.32-1.07-1.89-.73-1.16-1.44-2.18-1.93-2.92.03-.09.07-.17.1-.26l3.98,4.78c-.45-.09-.72-.08-.78.03-.07.15.19.46.73.89.11.09.23.18.36.28a.648.648,0,0,1-.04.2c-.13.48-.28.91-.44,1.37-.64,1.83-1.45,3.85-2.36,6.08q-.7,1.665-1.47,3.48a2.83,2.83,0,0,1-.88,1.16c-.11-.46-.24-.7-.38-.7-.17,0-.34.4-.48,1.13a2.666,2.666,0,0,1-.43.13c-.33.09-.66.18-1,.27l-.51.13a2.789,2.789,0,0,1-2.39-.47,2.941,2.941,0,0,1-.6-.62c-.08-.1-.18-.27-.22-.33l-.12-.21A4.441,4.441,0,0,0,509.69,719.32Z"/>
      <path id="Path_1153" data-name="Path 1153" d="M509.84,746.14l-.18.09a1.547,1.547,0,0,1,.13-.12C509.81,746.12,509.82,746.13,509.84,746.14Z"/>
      <path id="Path_1154" data-name="Path 1154" d="M509.79,746.11a1.547,1.547,0,0,0-.13.12h-.01c-.64.3-1.05.41-1.15.27s.09-.46.52-.95C509.28,745.74,509.54,745.92,509.79,746.11Z"/>
      <path id="Path_1155" data-name="Path 1155" d="M508.02,718.14l.04-.13.2-.54c.12-.36.25-.72.38-1.09.1-.27.2-.54.3-.82.12.23.23.47.33.71a6.484,6.484,0,0,1,.46,2.71c-.01.11-.02.23-.04.34a4.441,4.441,0,0,1-.94,2.21l-.01-.03c-.18-.32-.36-.64-.54-.97a2.89,2.89,0,0,1-.36-1.45,2.641,2.641,0,0,1,.02-.28,3.587,3.587,0,0,1,.09-.45Z"/>
      <path id="Path_1156" data-name="Path 1156" d="M499.04,710.24c.29-.11.58-.21.87-.29l.32-.1.13.1.57.44c.38.31.75.61,1.12.92.74.61,1.43,1.24,2.08,1.88a14.791,14.791,0,0,1,3.06,3.96,4.191,4.191,0,0,1,.37,1.91,2.4,2.4,0,0,1-.68,1.52,3.5,3.5,0,0,1-.69.57c-.13.07-.25.15-.39.22l-.17.09c-.04.04-.08.01-.12-.01a.2.2,0,0,1-.08-.03l-.24-.12c-.3-.15-.6-.3-.89-.45-4.69-2.35-7.64-3.64-7.8-3.35s2.5,2.11,6.96,4.85c.28.17.57.34.86.52l.6.36c.13.07.26.13.4.21.03.01.07.03.1.04l.11-.02.22-.06a6.754,6.754,0,0,0,.84-.29,6.357,6.357,0,0,0,.59-.28,5.627,5.627,0,0,0,1.12-.82,3.449,3.449,0,0,0,.45-.48l.12.21c.04.06.14.23.22.33a2.941,2.941,0,0,0,.6.62,2.789,2.789,0,0,0,2.39.47l.51-.13c.34-.09.67-.18,1-.27a2.666,2.666,0,0,0,.43-.13c-.01.07-.03.14-.04.22-.08.43-.16.96-.23,1.58-.02.15-.03.31-.05.47-.02.19-.03.27-.05.61-.03.61-.06,1.25-.09,1.93q1.125.045,2.37.09c.25.02.51.03.77.05h.11c-.06.14-.11.29-.17.46-.17.51-.36,1.14-.55,1.86-.09.36-.19.74-.3,1.15l-.08.36-.12.57c-.08.4-.16.8-.25,1.22.72.27,1.47.54,2.25.83.28.11.56.21.84.32q.75.27,1.53.54c.25-.35.51-.7.77-1.06-.1.23-.21.46-.31.69-.31.7-.62,1.44-.94,2.19,0,0-.01,0-.04.03l-.32.23a79.245,79.245,0,0,0-10.1,8.58q-1.845-1.335-3.93-2.85c-1.44-1.03-2.97-2.11-4.58-3.21-1.32-.89-2.6-1.76-3.83-2.59-1.46-.96-2.86-1.89-4.17-2.75-.16-1.49-.61-4.15-1.04-7.67-.16-1.38-.31-2.89-.39-4.5a24.122,24.122,0,0,1,.2-5,6.118,6.118,0,0,1,.76-2.23,2.917,2.917,0,0,1,.29-.38l.5-.46c.33-.31.7-.6,1.07-.89A19.683,19.683,0,0,1,499.04,710.24Z" fill="#f3d2c2"/>
      <path id="Path_1157" data-name="Path 1157" d="M504.98,752.23c.49-.84,1.16-1.94,2.02-3.23a16.93,16.93,0,0,1,2.65-2.77h.01l.18-.09a.01.01,0,0,0,.01.01c-.29.55-.58,1.09-.85,1.61-.17.31-.34.6-.5.9-.31.53-.6,1.03-.88,1.5-.55.95-1.05,1.76-1.48,2.42-.28.43-.53.8-.75,1.09l-.19-.11-.55-.32C504.73,752.95,504.85,752.61,504.98,752.23Z"/>
      <path id="Path_1158" data-name="Path 1158" d="M503.46,722.35c-4.46-2.74-7.12-4.56-6.96-4.85s3.11,1,7.8,3.35c.29.15.59.3.89.45l.24.12a.2.2,0,0,0,.08.03c.04.02.08.05.12.01l.17-.09c.14-.07.26-.15.39-.22a3.5,3.5,0,0,0,.69-.57,2.4,2.4,0,0,0,.68-1.52l.28.02a2.89,2.89,0,0,0,.36,1.45c.18.33.36.65.54.97l.01.03a3.449,3.449,0,0,1-.45.48,5.627,5.627,0,0,1-1.12.82,6.357,6.357,0,0,1-.59.28,6.754,6.754,0,0,1-.84.29l-.22.06-.11.02c-.03-.01-.07-.03-.1-.04-.14-.08-.27-.14-.4-.21l-.6-.36C504.03,722.69,503.74,722.52,503.46,722.35Z"/>
      <path id="Path_1159" data-name="Path 1159" d="M505.39,753.67c-.45.6-.76.9-.89.83s-.08-.51.15-1.26l.55.32Z"/>
      <path id="Path_1160" data-name="Path 1160" d="M498.7,707.71l21.15-28.51c.1-.04.2-.07.3-.1L523,681l-8,22c-.07.05.21.49.68,1.19-1.41,3.76-2.79,7.37-4.08,10.78-.29.74-.57,1.47-.84,2.2-.14.36-.28.72-.42,1.07l-.2.53-.07.2c-.01.01-.01.03-.02.05l-.32-.04a6.484,6.484,0,0,0-.46-2.71c-.1-.24-.21-.48-.33-.71.16-.46.33-.92.5-1.39,2.13-5.99,4.56-12.54,7.09-19.41,1.25-3.44,2.47-6.8,3.65-10.04.28-.81.56-1.61.83-2.4.33-1.11.31-.64.18-.86a.682.682,0,0,0-.78.11c-.47.6-.93,1.2-1.39,1.79-3.89,5.02-7.42,9.52-10.42,13.28-3.28,4.13-6.67,8.11-9.1,10.83C499.18,707.55,498.94,707.63,498.7,707.71Z"/>
      <path id="Path_1161" data-name="Path 1161" d="M519.85,679.2,498.7,707.71c-.16.06-.32.11-.51.18l-.15.06c2.14-2.92,5.69-7.58,9.16-12.38,2.81-3.89,6.19-8.5,9.98-13.6.24-.32.48-.64.72-.97l.36-.48c.13-.16.21-.3.47-.59A2.98,2.98,0,0,1,519.85,679.2Z"/>
      <path id="Path_1162" data-name="Path 1162" d="M498.7,707.71,497,710l-.78.52c.31-.51.95-1.4,1.82-2.57l.15-.06C498.38,707.82,498.54,707.77,498.7,707.71Z"/>
      <path id="Path_1163" data-name="Path 1163" d="M499.5,707.47c-2.01,2.24-3.37,3.62-3.5,3.53-.04-.03.04-.19.22-.48L497,710l1.7-2.29C498.94,707.63,499.18,707.55,499.5,707.47Z"/>
      <path id="Path_1164" data-name="Path 1164" d="M491.78,737.88c.25-.26.5-.53.76-.8a.446.446,0,0,1,.15-.1l.07.09c.25.18.51.37.77.56.58.41,1.17.84,1.77,1.27,1.22.85,2.49,1.74,3.8,2.65,1.6,1.1,3.16,2.15,4.64,3.13.74.48,1.46.95,2.15,1.4.35.23.69.45,1.03.66.12.08.06.04.09.05l.04.02.1.04-.03.15c-.12.28-.23.54-.34.8-.24.56-.47,1.1-.69,1.6-.42,1.01-.77,1.89-1.04,2.63-.02.07-.05.13-.07.2-.21.35-.38.65-.52.9l-.45-.26c-.87-.5-1.74-.99-2.6-1.49-3.43-1.97-6.79-3.89-10.04-5.75q-2.43-1.395-4.78-2.74c.36-.28.82-.68,1.35-1.17.69-.64,1.5-1.44,2.41-2.36C490.8,738.9,491.28,738.4,491.78,737.88Z" fill="#fffff8"/>
      <path id="Path_1165" data-name="Path 1165" d="M492.5,735.5c-.1.03-.32-.31-.61-.98.14-.17.28-.33.42-.5.07.04.13.09.2.13C492.62,735,492.63,735.47,492.5,735.5Z"/>
      <path id="Path_1166" data-name="Path 1166" d="M491.83,734.36a1.653,1.653,0,0,1,.06.16c-.07.09-.14.17-.21.26Q491.77,734.555,491.83,734.36Z" fill="#fffff8"/>
      <path id="Path_1167" data-name="Path 1167" d="M492,733c-4-8-1-19-1-19l5.22-3.48c-.18.29-.26.45-.22.48.13.09,1.49-1.29,3.5-3.53.32-.1.72-.19,1.28-.31l1.09.81.61.48c.4.32.79.65,1.18.98.76.66,1.49,1.35,2.19,2.06a17.3,17.3,0,0,1,3.09,4.07c-.1.28-.2.55-.3.82-.13.37-.26.73-.38,1.09l-.2.54-.04.13-.07.21a3.587,3.587,0,0,0-.09.45,2.641,2.641,0,0,0-.02.28l-.28-.02a4.191,4.191,0,0,0-.37-1.91,14.791,14.791,0,0,0-3.06-3.96c-.65-.64-1.34-1.27-2.08-1.88-.37-.31-.74-.61-1.12-.92l-.57-.44-.13-.1-.32.1c-.29.08-.58.18-.87.29a19.683,19.683,0,0,0-5.14,2.78c-.37.29-.74.58-1.07.89l-.5.46a2.917,2.917,0,0,0-.29.38,6.118,6.118,0,0,0-.76,2.23,24.122,24.122,0,0,0-.2,5c.08,1.61.23,3.12.39,4.5.43,3.52.88,6.18,1.04,7.67-.07-.04-.13-.09-.2-.13-.14.17-.28.33-.42.5a1.653,1.653,0,0,0-.06-.16A2.193,2.193,0,0,0,492,733Z"/>
      <path id="Path_1168" data-name="Path 1168" d="M491,714s-3,11,1,19a2.193,2.193,0,0,1-.17,1.36,48.579,48.579,0,0,1-2.11-7.6c-.27-1.4-.54-2.94-.71-4.62a24.1,24.1,0,0,1-.01-5.51,8.165,8.165,0,0,1,1.02-3.15,4.71,4.71,0,0,1,.59-.78c.2-.21.38-.38.57-.57.38-.37.8-.7,1.22-1.04a20.52,20.52,0,0,1,5.64-3.14c-.87,1.17-1.51,2.06-1.82,2.57Z"/>
      <path id="Path_1169" data-name="Path 1169" d="M486.36,742.76a41.135,41.135,0,0,0,5.32-7.98c.07-.09.14-.17.21-.26.29.67.51,1.01.61.98.13-.03.12-.5.01-1.35,1.31.86,2.71,1.79,4.17,2.75,1.23.83,2.51,1.7,3.83,2.59,1.61,1.1,3.14,2.18,4.58,3.21q2.085,1.515,3.93,2.85c-.43.49-.62.82-.52.95s.51.03,1.15-.27A16.93,16.93,0,0,0,507,749c-.86,1.29-1.53,2.39-2.02,3.23.02-.07.05-.13.07-.2.27-.74.62-1.62,1.04-2.63.22-.5.45-1.04.69-1.6.11-.26.22-.52.34-.8l.03-.15-.1-.04-.04-.02c-.03-.01.03.03-.09-.05-.34-.21-.68-.43-1.03-.66-.69-.45-1.41-.92-2.15-1.4-1.48-.98-3.04-2.03-4.64-3.13-1.31-.91-2.58-1.8-3.8-2.65-.6-.43-1.19-.86-1.77-1.27-.26-.19-.52-.38-.77-.56l-.07-.09a.446.446,0,0,0-.15.1c-.26.27-.51.54-.76.8-.5.52-.98,1.02-1.43,1.48-.91.92-1.72,1.72-2.41,2.36-.53.49-.99.89-1.35,1.17C486.51,742.85,486.44,742.8,486.36,742.76Z"/>
      <path id="Path_1170" data-name="Path 1170" d="M486.36,742.76c.08.04.15.09.23.13a4.468,4.468,0,0,1-.76.54C486.02,743.21,486.2,742.98,486.36,742.76Z"/>
      <path id="Path_1171" data-name="Path 1171" d="M486.27,742.71c.03.02.06.03.09.05-.16.22-.34.45-.53.67-.17.09-.28.12-.33.07-.67-.22-.86-.44-.76-.74l.47-.48.11-.11a.827.827,0,0,1,.13.07l.27.16Z"/>
      <path id="Path_1172" data-name="Path 1172" d="M488.96,738.15c.4-.51.83-1.05,1.27-1.62.23-.28.46-.57.7-.86s.49-.59.75-.89a41.135,41.135,0,0,1-5.32,7.98c-.03-.02-.06-.03-.09-.05l-.55-.31-.27-.16a.827.827,0,0,0-.13-.07l-.11.11-.47.48A10.086,10.086,0,0,1,486,741,25.9,25.9,0,0,0,488.96,738.15Z"/>
      <path id="Path_1173" data-name="Path 1173" d="M458.25,773.59c2.82-3.86,6.18-8.13,10.06-12.73s8.26-9.51,13.11-14.65c.61-.64,1.22-1.28,1.84-1.94l1.06-1.09.42-.42c-.1.3.09.52.76.74.05.05.16.02.33-.07-3.97,4.93-8.75,10.01-10.83,11.57-4,3-18,21-21,26a.8.8,0,0,1-1.04.44C454.41,779.08,456.19,776.46,458.25,773.59Z"/>
      <path id="Path_1174" data-name="Path 1174" d="M452.5,782.2q.06.27,0,.3c-.03.01-.07-.02-.13-.09C452.41,782.34,452.46,782.27,452.5,782.2Z"/>
      <path id="Path_1175" data-name="Path 1175" d="M452.96,781.44c-.16.26-.31.51-.46.76a12.2,12.2,0,0,0-.46-1.48A2.729,2.729,0,0,0,452.96,781.44Z" fill="#fffff8"/>
      <path id="Path_1176" data-name="Path 1176" d="M451.13,786.37c-.39.63-.68,1.25-.99,1.81a28.4,28.4,0,0,0-1.47,2.89,11.372,11.372,0,0,1-1.17,2.43,11.273,11.273,0,0,1,.7-2.62,23.339,23.339,0,0,1,1.27-3.03c.28-.59.54-1.24.9-1.9s.76-1.35,1.17-2.08c.26-.47.54-.96.83-1.46.06.07.1.1.13.09s.04-.12,0-.3c.15-.25.3-.5.46-.76A.8.8,0,0,0,454,781c3-5,17-23,21-26,2.08-1.56,6.86-6.64,10.83-11.57a4.468,4.468,0,0,0,.76-.54q2.355,1.35,4.78,2.74c3.25,1.86,6.61,3.78,10.04,5.75.86.5,1.73.99,2.6,1.49l.45.26c-.31.56-.46.87-.46.87l-11,24-19.95,36.2-.1-.06c3.18-5.72,6.26-11.72,9.4-17.8,4.17-8.13,8.16-16.12,11.99-23.84q2.865-5.79,5.62-11.38,1.365-2.79,2.71-5.52l.27-.57.03-.05c.02-.01-.01-.02-.02-.03l-.11-.07-2.58-1.5c-3.42-2-6.76-3.96-10-5.85-1.52-.9-3.03-1.78-4.51-2.65-.02-.01-.05-.05-.08-.04l-.07.07-.83.83c-.62.64-1.24,1.28-1.86,1.9-4.89,5.06-9.33,9.87-13.26,14.37s-7.38,8.67-10.29,12.42c-2.86,3.78-5.25,7.09-6.99,9.94C451.93,785.07,451.52,785.74,451.13,786.37Z"/>
      <path id="Path_1177" data-name="Path 1177" d="M423.61,803.27c-3.01-6.41-5.56-12.15-7.68-17.06.05-.78.07-1.21.07-1.21s19,42,24,44,16,3,16,3l10-5,7.05-12.8L493,778l11-24s.15-.31.46-.87l.19.11c-.23.75-.29,1.19-.15,1.26s.44-.23.89-.83l.45.26.15.09c.06.03-.03.1-.03.15l-.16.33c-.34.7-.68,1.41-1.02,2.12l-2.67,5.55q-2.73,5.6-5.57,11.42c-3.81,7.74-7.79,15.74-11.96,23.89-4.21,8.14-8.29,16.07-12.75,23.55a36.6,36.6,0,0,1-3.79,5.41l-1.12,1.24c-.4.39-.83.74-1.24,1.11a20.155,20.155,0,0,1-2.68,1.98,19.563,19.563,0,0,1-6.14,2.27,24.8,24.8,0,0,1-6.31.16,53.969,53.969,0,0,1-5.91-.97c-.94-.19-1.87-.4-2.78-.54l-.34-.06-.17-.03-.28-.07a1.764,1.764,0,0,1-.52-.19,2.175,2.175,0,0,1-.43-.23,7,7,0,0,1-1.29-1.05,30.189,30.189,0,0,1-3.5-4.59c-1-1.55-1.92-3.11-2.8-4.66C429.05,814.63,426.18,808.7,423.61,803.27Z"/>
      <path id="Path_1178" data-name="Path 1178" d="M415.8,785.91c.05.1.09.2.13.3-.03.59-.07,1.37-.13,2.33C415.81,787.52,415.81,786.64,415.8,785.91Z" fill="#fffff8"/>
      <path id="Path_1179" data-name="Path 1179" d="M415.8,785.91l-.39-.93a5.529,5.529,0,0,1,.25-1.68,8.417,8.417,0,0,1,.14,2.16C415.8,785.6,415.81,785.75,415.8,785.91Z"/>
      <path id="Path_1180" data-name="Path 1180" d="M412.5,944.79l.28,29.03c-.28-6.7-.49-13.1-.55-19.13-.02-3.13-.05-6.2.2-9.05C412.46,945.35,412.48,945.07,412.5,944.79Z" fill="#603813"/>
      <path id="Path_1181" data-name="Path 1181" d="M412.65,921.78c.08,4.61.14,9.7.1,15.21-.05,2.51-.05,5.08-.25,7.8l-.42-43.6C412.28,906.16,412.5,913.14,412.65,921.78Z"/>
      <path id="Path_1182" data-name="Path 1182" d="M412.08,901.15c-.02-.32-.03-.63-.04-.93-.1-2.5-.21-4.44-.3-5.74-.02-.29-.04-.55-.06-.77.11-.01.22-.02.33-.02Z" fill="#603813"/>
      <path id="Path_1183" data-name="Path 1183" d="M412,893l.01.69c-.11,0-.22.01-.33.02-.02-.3-.05-.54-.07-.73C411.87,892.99,412,893,412,893Z"/>
      <path id="Path_1184" data-name="Path 1184" d="M411.68,893.71c-.1,0-.2.01-.31.02.01-.31.02-.56.04-.75h.2C411.63,893.17,411.66,893.41,411.68,893.71Z"/>
      <path id="Path_1185" data-name="Path 1185" d="M411.5,892.5c.03,0,.07.16.11.48h-.2Q411.455,892.5,411.5,892.5Z"/>
      <path id="Path_1186" data-name="Path 1186" d="M402.8,891.76l8.71-.1s-4.39.5-10.09.94h-.04c-3.07-.12-6.67-.26-10.6-.4q2.7-.06,5.37-.15Q399.5,891.9,402.8,891.76Z"/>
      <path id="Path_1187" data-name="Path 1187" d="M411.02,892.96c.38-.77,6.95-14.19,5.98-21.96-1-8-7-11-5-30,1.62-15.43,3.25-42.72,3.8-52.44-.01.93-.02,1.97-.04,3.13-.09,5.43-.31,13.32-.75,23.19-.23,4.93-.5,10.36-.89,16.22-.19,2.93-.43,5.97-.66,9.1a79.826,79.826,0,0,0-.2,9.58,53.4,53.4,0,0,0,1.43,9.95c.79,3.35,2.11,6.68,2.79,10.5a21.759,21.759,0,0,1,.13,5.87,47.734,47.734,0,0,1-.96,5.74,51.135,51.135,0,0,1-1.66,5.69c-.33.94-.7,1.87-1.1,2.8-.2.46-.4.92-.62,1.38l-.37.74-.31.59-.35.63c-.08.01-.15.01-.23.02L412,893s-.13-.01-.39-.02c-.04-.32-.08-.48-.11-.48s-.06.16-.09.48C411.3,892.97,411.17,892.97,411.02,892.96Z"/>
      <path id="Path_1188" data-name="Path 1188" d="M411.41,892.98c-.02.19-.03.44-.04.75-.12.01-.24.01-.36.02L411,893a.109.109,0,0,0,.02-.04C411.17,892.97,411.3,892.97,411.41,892.98Z"/>
      <path id="Path_1189" data-name="Path 1189" d="M411.26,990.93c.05.95.09,1.82.07,2.76,0,.54-.01,1.09-.01,1.63-14.01-.02-28.96-.04-44.52-.06l-3.13-.12L359.5,922.5l1.71,72.55L360,995l-52.35-.35c-.2-14.28-.39-27.54-.56-39.41-.16-8.95-.31-17.13-.44-24.4l.35-35.66c.07.03.15.06.23.09a6.978,6.978,0,0,0,3.44.37,4.828,4.828,0,0,0,1.77-.7,5.411,5.411,0,0,0,.75-.59l.09-.08.03-.02.07-.06a1.759,1.759,0,0,1,.2-.12,9.6,9.6,0,0,1,2.55-.77c.95-.18,1.95-.31,2.95-.41,1.07-.11,2.16-.18,3.26-.24L336,892.5h.17c5.08.09,10.29.29,15.61.52,9.21.4,18.74,1,28.53,1.51,1.34.06,2.68.12,4.01.17s2.72.05,4.03.04c2.66-.03,5.28-.11,7.89-.21s5.18-.22,7.74-.36l3.81-.21,3.22-.21.2,21.04c-.01,2.19-.01,4.53-.02,7-.02,4.6-.05,9.68-.19,15.17-.09,2.73-.14,5.62-.44,8.47-.3,3.05-.31,6.09-.33,9.26-.02,6.32.15,13,.38,19.99.13,3.5.27,7.07.4,10.72C411.09,987.22,411.17,989.07,411.26,990.93Z" fill="#603813"/>
      <path id="Path_1190" data-name="Path 1190" d="M411.21,914.79l-.2-21.04c.12-.01.24-.01.36-.02-.01.22-.02.48-.03.76-.04,1.3-.06,3.24-.08,5.75C411.25,903.91,411.23,908.81,411.21,914.79Z" fill="#603813"/>
      <path id="Path_1191" data-name="Path 1191" d="M411.51,891.66l-8.71.1c.35-.02.7-.03,1.05-.05q3.48-.2,6.89-.38l.01-.01.03-.07.29-.59c.21-.43.4-.86.6-1.3.37-.87.73-1.76,1.05-2.65a49.021,49.021,0,0,0,1.6-5.41,47.327,47.327,0,0,0,.96-5.46,19.95,19.95,0,0,0-.08-5.24c-.58-3.44-1.88-6.86-2.68-10.35a54.681,54.681,0,0,1-1.37-10.38,79.425,79.425,0,0,1,.31-9.84q.405-4.7.8-9.07c.47-5.84.85-11.25,1.18-16.17.63-9.85,1.13-17.72,1.47-23.13.18-2.71.33-4.8.45-6.22.01-.16.03-.32.05-.46l.39.93c.01.73.01,1.61,0,2.63v.02c-.55,9.72-2.18,37.01-3.8,52.44-2,19,4,22,5,30,.97,7.77-5.6,21.19-5.98,21.96-1.58-.06-5-.19-9.6-.36C407.12,892.16,411.51,891.66,411.51,891.66Z"/>
      <path id="Path_1192" data-name="Path 1192" d="M409.78,769.88c.75,1.6,1.86,3.95,3.28,6.99,2.83,6.08,6.86,14.9,12.15,25.64,2.66,5.35,5.61,11.21,9.12,17.27.88,1.51,1.8,3.03,2.79,4.52a27.733,27.733,0,0,0,3.26,4.19,5.61,5.61,0,0,0,.89.74,1.849,1.849,0,0,0,.2.1.261.261,0,0,0,.14.05l.06.02.18.03.36.06c.98.15,1.93.35,2.88.53a52.568,52.568,0,0,0,5.67.89,23.052,23.052,0,0,0,5.69-.18,15.391,15.391,0,0,0,7.66-3.76c.37-.33.75-.65,1.1-.99l1-1.13a35.41,35.41,0,0,0,3.53-5.08q1.62-2.76,3.21-5.63l.1.06L466,827l-10,5s-11-1-16-3-24-44-24-44-.02.43-.07,1.21c-.04-.1-.08-.2-.13-.3.01-.16,0-.31,0-.45a8.417,8.417,0,0,0-.14-2.16,5.529,5.529,0,0,0-.25,1.68c-1.24-2.9-2.32-5.49-3.24-7.72-1.28-3.1-2.23-5.53-2.85-7.18a10.773,10.773,0,0,1-.82-2.58A11.487,11.487,0,0,1,409.78,769.88Z"/>
      <path id="Path_1193" data-name="Path 1193" d="M403.98,639.7c.25,1.63-.43,3.1-1.52,3.27s-2.19-1.03-2.44-2.67.43-3.1,1.52-3.27S403.73,638.06,403.98,639.7Z"/>
      <path id="Path_1194" data-name="Path 1194" d="M404.5,629.5c.38.57-.65,1.94-2.31,3.04s-3.31,1.53-3.69.96.65-1.94,2.31-3.04S404.12,628.93,404.5,629.5Z"/>
      <path id="Path_1195" data-name="Path 1195" d="M384.46,891.96l18.34-.2q-3.3.135-6.65.29-2.67.09-5.37.15Q387.735,892.08,384.46,891.96Z"/>
      <path id="Path_1196" data-name="Path 1196" d="M413,997l-21.4-.81L412,996l-.79-81.21c.02-5.98.04-10.88.05-14.55.02-2.51.04-4.45.08-5.75.01-.28.02-.54.03-.76.11-.01.21-.02.31-.02.02.22.04.48.06.77.09,1.3.2,3.24.3,5.74.01.3.02.61.04.93v.04l.42,43.6c-.02.28-.04.56-.07.85-.25,2.85-.22,5.92-.2,9.05.06,6.03.27,12.43.55,19.13Z"/>
      <path id="Path_1197" data-name="Path 1197" d="M400,607l-.53.53V605.9C399.81,606.59,400,607,400,607Z"/>
      <path id="Path_1198" data-name="Path 1198" d="M399.47,607.96,398,610s-.32.04-.91.12L397,610l1.14-1.14,1.33-1.33Z"/>
      <path id="Path_1199" data-name="Path 1199" d="M399.47,605.9a65.331,65.331,0,0,0-3.49-6.13l1.19,1.42,2.3,4.21Z"/>
      <path id="Path_1200" data-name="Path 1200" d="M397.64,649.72a2.943,2.943,0,0,1-2.01,1.25c-.62.07-1.03-.15-1.13-.47a1.394,1.394,0,0,1,.3-1.09c.25-.38.53-.76.83-1.17.61-.79,1.18-1.73,1.87-1.74.34,0,.66.36.76.96A3.089,3.089,0,0,1,397.64,649.72Z"/>
      <path id="Path_1201" data-name="Path 1201" d="M396.54,678.43a44.137,44.137,0,0,1-11.68.65c.21-.44.39-.78.51-1.03,2.14.27,13.03,1.35,16.63-4.05,4-6,5-27,5-31s0-16-1-19c-.77-2.31-5.69-9.36-7.91-12.48.26.06,1.45,1.34,3.22,3.74.94,1.28,2.04,2.87,3.18,4.79a28.4,28.4,0,0,1,3.11,6.97,22.843,22.843,0,0,1,.46,4.38c.04,1.51-.04,3.07-.14,4.65a17.7,17.7,0,0,0,.07,4.61l.15.6c.07.28.09.5.13.73.06.46.1.91.13,1.35.06.89.1,1.79.12,2.69a96.735,96.735,0,0,1-.46,11.26,59.306,59.306,0,0,1-2.31,11.99,19.543,19.543,0,0,1-2.9,5.86,8.028,8.028,0,0,1-2.84,2.38c-.31.14-.65.25-.98.37s-.57.13-.86.2C397.63,678.21,397.09,678.35,396.54,678.43Z"/>
      <path id="Path_1202" data-name="Path 1202" d="M390.45,775.76c-.19-.61-.36-1.03-.19-1.19.11-.12.41-.08.82.18.05.03.1.07.16.11a4.872,4.872,0,0,1-.53.64C390.62,775.59,390.54,775.68,390.45,775.76Z"/>
      <path id="Path_1203" data-name="Path 1203" d="M390.78,892.2c-.82.02-1.64.03-2.46.04-2.62.06-5.2-.08-7.89-.21-.1-.01-.19-.01-.29-.02l4.32-.05Q387.73,892.08,390.78,892.2Z" fill="#603813"/>
      <path id="Path_1204" data-name="Path 1204" d="M390.59,782.12l-.19-.55s-.02.05-.05.14c-.05-.75-.01-1.17.15-1.21s.41.32.72,1.02C391.02,781.72,390.81,781.93,390.59,782.12Z"/>
      <path id="Path_1205" data-name="Path 1205" d="M390.4,781.57l.19.55a1.167,1.167,0,0,1-.2.19c-.02-.22-.04-.42-.04-.6C390.38,781.62,390.4,781.57,390.4,781.57Z"/>
      <path id="Path_1206" data-name="Path 1206" d="M390.89,791.88c-.79.19-1.6.39-2.42.59-3.4.85-6.55,1.71-9.16,2.5-.31.1-.62.19-.92.28a.441.441,0,0,1-.06-.16c.68-.32,1.37-.69,2.06-1.08a34.2,34.2,0,0,0,5.29-3.69,21.14,21.14,0,0,0,3.67-3.88,10.56,10.56,0,0,0,.58-1.02,4.294,4.294,0,0,0,.34-1.04,4.842,4.842,0,0,0,.07-1.68,1.344,1.344,0,0,0-.07-.27v-.01a.6.6,0,0,0,.12-.11c.05.5.13,1.09.23,1.77.16,1.09.39,2.4.68,3.87.15.73.31,1.51.48,2.32.09.4.18.81.27,1.24l.01.07v.02a.037.037,0,0,0-.01.03.353.353,0,0,1-.06-.01C391.63,791.7,391.26,791.79,390.89,791.88Z" fill="#999"/>
      <path id="Path_1207" data-name="Path 1207" d="M390.15,782.16c.09-.2.15-.35.2-.45,0,.18.02.38.04.6a.6.6,0,0,1-.12.11A.893.893,0,0,0,390.15,782.16Z"/>
      <path id="Path_1208" data-name="Path 1208" d="M389.85,768.38c-.26-.4-.45-.69-.35-.88.05-.14.33-.23.74-.13A4.33,4.33,0,0,1,389.85,768.38Z"/>
      <path id="Path_1209" data-name="Path 1209" d="M390.11,782.57c-.09.07-.17.15-.26.21.12-.24.22-.44.3-.62a.893.893,0,0,1,.12.26v.01C390.22,782.48,390.16,782.52,390.11,782.57Z"/>
      <path id="Path_1210" data-name="Path 1210" d="M389.85,782.78c-.21.18-.43.35-.64.51a4.447,4.447,0,0,0,.16-.55,1.038,1.038,0,0,0,.03-.38.561.561,0,0,0-.22-.34.23.23,0,0,0-.09-.03.035.035,0,0,1,.02-.01,2.572,2.572,0,0,1,.61-.08.608.608,0,0,1,.35.14.36.36,0,0,1,.08.12C390.07,782.34,389.97,782.54,389.85,782.78Z"/>
      <path id="Path_1211" data-name="Path 1211" d="M388.37,663.03c.5-.41,1.2-1.05,2.12-1.75a7.6,7.6,0,0,1,3.14-1.51,3.9,3.9,0,0,1,.9-.07,6.1,6.1,0,0,1,.98.12,1.674,1.674,0,0,1,1.19.75,1.1,1.1,0,0,1,.1.57.88.88,0,0,1-.06.29c-.03.08-.06.13-.06.14-.02.01.05,0-.07.04a2.233,2.233,0,0,1-.43.13,10.589,10.589,0,0,1-1.04.22c-1.44.25-2.8.41-3.93.57C389.99,662.7,389.01,662.87,388.37,663.03Z" fill="#fffff8"/>
      <path id="Path_1212" data-name="Path 1212" d="M382.5,786.5c-.38-.61,2.58-2.94,5.97-5.82.41-.36.82-.73,1.18-1.07a4.513,4.513,0,0,0,.74-.9,2.565,2.565,0,0,0,.34-1.81,8.654,8.654,0,0,0-.28-1.14c.09-.08.17-.17.26-.26a4.872,4.872,0,0,0,.53-.64,4.154,4.154,0,0,1,1.17,1.47,4.237,4.237,0,0,1,.4,1.52,4.169,4.169,0,0,1-.34,1.84,5.6,5.6,0,0,1-1.07,1.64c-.06.06-.12.12-.18.19-.31-.7-.56-1.06-.72-1.02s-.2.46-.15,1.21c-.05.1-.11.25-.2.45a.36.36,0,0,0-.08-.12.608.608,0,0,0-.35-.14,2.572,2.572,0,0,0-.61.08.035.035,0,0,0-.02.01c-.04-.01-.04,0,0,0a.23.23,0,0,1,.09.03.561.561,0,0,1,.22.34,1.038,1.038,0,0,1-.03.38,4.447,4.447,0,0,1-.16.55v.01C385.87,785.89,382.81,787.02,382.5,786.5Z"/>
      <path id="Path_1213" data-name="Path 1213" d="M389.09,781.99c-.04,0-.04-.01,0,0Z"/>
      <path id="Path_1214" data-name="Path 1214" d="M395.97,599.76c-1.91-2.92-4.35-6.01-6.97-7.76a15.323,15.323,0,0,1,3.5,2.62,56.3,56.3,0,0,1,6.09,7,13.991,13.991,0,0,1,2.24,4.39,4.081,4.081,0,0,1-2.57,5.12l-.36.13c-.39-.55-.67-.95-.81-1.14.59-.08.91-.12.91-.12l1.47-2.04v-.43L400,607s-.19-.41-.53-1.1v-.5l-2.3-4.21-1.19-1.42Z"/>
      <path id="Path_1215" data-name="Path 1215" d="M388.9,591.94a12.87,12.87,0,0,0-1.34-.67A7.288,7.288,0,0,1,388.9,591.94Z" fill="#fffff8"/>
      <path id="Path_1216" data-name="Path 1216" d="M398.96,698.41c-6.68-4.57-11.57-7.68-13.52-9.08.01-.06.03-.11.04-.16A29.256,29.256,0,0,1,391,692c3,2,29,21,30,23s17,35,18,36c.84.84,8.75,25.02,13.04,29.71v.01a12.2,12.2,0,0,1,.46,1.48c-.04.07-.09.14-.13.21a29.691,29.691,0,0,1-2.23-4.01c-1.37-2.7-3.28-6.65-5.61-11.54-4.6-9.81-10.95-23.36-17.96-38.32-1.79-3.7-3.5-7.41-5.31-10.72a24.025,24.025,0,0,0-3.35-4.28c-1.25-1.33-2.58-2.55-3.9-3.71A171.14,171.14,0,0,0,398.96,698.41Z"/>
      <path id="Path_1217" data-name="Path 1217" d="M385.56,688.83c.73.33,1.83.87,3.25,1.62,2.69,1.43,6.51,3.59,11.12,6.49a142.692,142.692,0,0,1,15.58,11.14,53.721,53.721,0,0,1,4.12,3.81,25.723,25.723,0,0,1,3.75,4.7c1.95,3.51,3.64,7.13,5.44,10.88,7.07,14.97,13.07,28.69,17.32,38.66,2.12,4.99,3.79,9.05,4.89,11.87.42,1.09.76,2,1.01,2.71-4.29-4.69-12.2-28.87-13.04-29.71-1-1-17-34-18-36s-27-21-30-23a29.256,29.256,0,0,0-5.52-2.83c.02-.11.05-.21.07-.32Z"/>
      <path id="Path_1218" data-name="Path 1218" d="M385.5,778.5c-.2-.28.24-1.02,1.1-1.97.42-.49.89-1.06,1.45-1.65.25-.32.52-.64.8-.97s.49-.69.76-1.04a5.477,5.477,0,0,0,.9-1.98,2.671,2.671,0,0,0-.13-1.55,7.01,7.01,0,0,0-.53-.96,4.33,4.33,0,0,0,.39-1.01,3.346,3.346,0,0,1,1.58.95,3.831,3.831,0,0,1,.99,2.76,5.693,5.693,0,0,1-.33,1.67,8.82,8.82,0,0,1-.78,1.49c-.16.21-.31.42-.46.62-.06-.04-.11-.08-.16-.11-.41-.26-.71-.3-.82-.18-.17.16,0,.58.19,1.19-.26.27-.53.52-.78.75a16.006,16.006,0,0,1-1.95,1.38C386.53,778.54,385.7,778.78,385.5,778.5Z"/>
      <path id="Path_1219" data-name="Path 1219" d="M388.37,663.03c-.44.37-.73.56-.87.47C387.5,663.34,387.81,663.19,388.37,663.03Z"/>
      <path id="Path_1220" data-name="Path 1220" d="M387.5,763.5c-.09.02-.23-.15-.4-.5a1.941,1.941,0,0,1,.54-.04C387.63,763.29,387.59,763.48,387.5,763.5Z"/>
      <path id="Path_1221" data-name="Path 1221" d="M387.5,663.5c-.28-.16.15-1.65,1.79-3.52a9.292,9.292,0,0,1,1.55-1.38,6.893,6.893,0,0,1,2.28-1.08,6.019,6.019,0,0,1,1.43-.21,8.393,8.393,0,0,1,1.46.11,4.824,4.824,0,0,1,1.58.6,3.381,3.381,0,0,1,1.34,1.43,3.424,3.424,0,0,1,.34,1.97,2.973,2.973,0,0,1-.25.95,2.6,2.6,0,0,1-.6.91c-.12.18-.33.24-.49.37a1.45,1.45,0,0,1-.47.23,4.756,4.756,0,0,1-.74.19,10.616,10.616,0,0,1-1.28.18,29.469,29.469,0,0,1-4.16.05c-2.34-.13-3.78-.46-3.78-.8.14.09.43-.1.87-.47.64-.16,1.62-.33,2.84-.5,1.13-.16,2.49-.32,3.93-.57a10.589,10.589,0,0,0,1.04-.22,2.233,2.233,0,0,0,.43-.13c.12-.04.05-.03.07-.04,0-.01.03-.06.06-.14a.88.88,0,0,0,.06-.29,1.1,1.1,0,0,0-.1-.57,1.674,1.674,0,0,0-1.19-.75,6.1,6.1,0,0,0-.98-.12,3.9,3.9,0,0,0-.9.07,7.6,7.6,0,0,0-3.14,1.51c-.92.7-1.62,1.34-2.12,1.75C387.81,663.19,387.5,663.34,387.5,663.5Z"/>
      <path id="Path_1222" data-name="Path 1222" d="M387.1,763a.319.319,0,0,0-.14.03l-.02-.39C387,762.78,387.05,762.9,387.1,763Z" fill="#fffff8"/>
      <path id="Path_1223" data-name="Path 1223" d="M385.68,790.32a34.2,34.2,0,0,1-5.29,3.69c-.69.39-1.38.76-2.06,1.08-.29-.86.08-2.3,3.67-4.09a18.578,18.578,0,0,0,7.85-8.22c.09-.06.17-.14.26-.21.05-.05.11-.09.16-.14a1.344,1.344,0,0,1,.07.27,4.842,4.842,0,0,1-.07,1.68,4.294,4.294,0,0,1-.34,1.04,10.56,10.56,0,0,1-.58,1.02A21.14,21.14,0,0,1,385.68,790.32Z"/>
      <path id="Path_1224" data-name="Path 1224" d="M385.48,689.17c-.01.05-.03.1-.04.16A5.016,5.016,0,0,1,385,689Z"/>
      <path id="Path_1225" data-name="Path 1225" d="M385,678s.13.02.37.05c-.12.25-.3.59-.51,1.03a2.338,2.338,0,0,1-.38-.03Z"/>
      <path id="Path_1226" data-name="Path 1226" d="M385,689l-.15-.45c.17.06.41.15.71.28l-.01.02c-.02.11-.05.21-.07.32Z"/>
      <path id="Path_1227" data-name="Path 1227" d="M385,689c-.36-.27-.53-.44-.5-.5.02-.04.14-.02.35.05Z"/>
      <path id="Path_1228" data-name="Path 1228" d="M383.98,678.71c.78-.98,1.4-1.33,1.52-1.21.07.06.01.24-.13.55-.24-.03-.37-.05-.37-.05l-.52,1.05c-.24-.02-.47-.04-.7-.07A1.888,1.888,0,0,1,383.98,678.71Z"/>
      <path id="Path_1229" data-name="Path 1229" d="M384.85,688.55,383,683l.37-1.12a.424.424,0,0,0,.13-.38l.5-1.5.48-.95a2.338,2.338,0,0,0,.38.03c-.02.04-.04.09-.06.14a9.387,9.387,0,0,0-.95,4.48,6.888,6.888,0,0,0,.81,2.93,4.159,4.159,0,0,0,.42.73l.38.64c.06.13.21.25.19.4l-.09.43C385.26,688.7,385.02,688.61,384.85,688.55Z"/>
      <path id="Path_1230" data-name="Path 1230" d="M382.59,681.18a8.449,8.449,0,0,1,1.19-2.2c.23.03.46.05.7.07L384,680l-.5,1.5C383.44,681.3,383.11,681.19,382.59,681.18Z"/>
      <path id="Path_1231" data-name="Path 1231" d="M383.5,681.5a.424.424,0,0,1-.13.38Z"/>
      <path id="Path_1232" data-name="Path 1232" d="M382.59,681.18c.52.01.85.12.91.32l-.13.38a4.215,4.215,0,0,1-1.19.87A7.651,7.651,0,0,1,382.59,681.18Z"/>
      <ellipse id="Ellipse_38" data-name="Ellipse 38" cx="2.5" cy="3" rx="2.5" ry="3" transform="translate(379 640)"/>
      <path id="Path_1233" data-name="Path 1233" d="M382.93,796.34c-.25.06-.51.11-.76.16l-.11-.33c.12-.67.27-1.04.41-1.04S382.78,795.55,382.93,796.34Z"/>
      <path id="Path_1234" data-name="Path 1234" d="M386.91,761.87,384,751l-3.68.74a8.721,8.721,0,0,0,.15-1.69c1.7-.3,3.33-.59,4.88-.86.18.85.36,1.67.53,2.48.09.47.18.92.27,1.37.17.89.33,1.73.48,2.53.29,1.6.52,3,.69,4.17a23.712,23.712,0,0,1,.32,3.22,1.941,1.941,0,0,0-.54.04c-.05-.1-.1-.22-.16-.36Z"/>
      <path id="Path_1235" data-name="Path 1235" d="M382.17,796.5a1.04,1.04,0,0,1-.17.04c.02-.13.04-.26.06-.37Z"/>
      <path id="Path_1236" data-name="Path 1236" d="M379,796l15-4-3.41-9.88c.22-.19.43-.4.63-.6.25.54.54,1.28.86,2.2.37,1.04.78,2.3,1.22,3.73.21.72.43,1.48.67,2.27.11.4.23.8.34,1.22.21.8.43,1.61.64,2.43-1.86.48-3.83,1-5.87,1.52-2.17.54-4.24,1.03-6.15,1.45-.15-.79-.31-1.21-.46-1.21s-.29.37-.41,1.04L382,796Z"/>
      <path id="Path_1237" data-name="Path 1237" d="M382,591l-4.55-.65c3.89-.23,7.57-.06,10.11.92a12.87,12.87,0,0,1,1.34.67.266.266,0,0,1,.1.06c2.62,1.75,5.06,4.84,6.97,7.76l-2.88-3.42L388,593Z"/>
      <path id="Path_1238" data-name="Path 1238" d="M394,792l-15,4a1.92,1.92,0,0,1-.61-.75c.3-.09.61-.18.92-.28,2.61-.79,5.76-1.65,9.16-2.5.82-.2,1.63-.4,2.42-.59.37-.09.74-.18,1.1-.26a.353.353,0,0,0,.06.01.037.037,0,0,1,.01-.03v-.02l-.01-.07c-.09-.43-.18-.84-.27-1.24-.17-.81-.33-1.59-.48-2.32-.29-1.47-.52-2.78-.68-3.87-.1-.68-.18-1.27-.23-1.77a1.167,1.167,0,0,0,.2-.19Z"/>
      <path id="Path_1239" data-name="Path 1239" d="M380.47,750.05a8.721,8.721,0,0,1-.15,1.69l-.33.06a6.083,6.083,0,0,1-.31-.91l.68-.17-.06-.64A.554.554,0,0,1,380.47,750.05Z"/>
      <path id="Path_1240" data-name="Path 1240" d="M380.3,750.08l.06.64-.68.17c-.05-.2-.1-.43-.16-.68C379.78,750.16,380.05,750.12,380.3,750.08Z"/>
      <path id="Path_1241" data-name="Path 1241" d="M379.99,751.8l.33-.06q-.06.225-.15.24T379.99,751.8Z"/>
      <path id="Path_1242" data-name="Path 1242" d="M378.14,697.64c-1.35-2.45-2.6-4.64-3.68-6.47a56.752,56.752,0,0,0-3.16-4.92c.08-.14.16-.28.25-.42a22.427,22.427,0,0,0,5.82-1.14,25.784,25.784,0,0,0,4.81-1.94,9.234,9.234,0,0,0-.1.95,8.388,8.388,0,0,0,.69,3.78,5.878,5.878,0,0,0,.45.95l.1.18.01.03a.066.066,0,0,1-.01.06c-.01.02-.01-.01-.02.05l-.07.24-.14.49c-.09.33-.18.66-.27,1-.74,2.7-1.52,5.68-2.31,8.82-.15.61-.3,1.22-.45,1.81.01.01,0,.02-.02.02C379.38,699.92,378.75,698.75,378.14,697.64Z" fill="#fffff8"/>
      <path id="Path_1243" data-name="Path 1243" d="M384.9,613.17c-3.33.31-6.65.51-9.93.56v-.26A25.952,25.952,0,0,0,380,613c8.01-1.6,14.73-2.56,17.09-2.88.14.19.42.59.81,1.14l-.58.21-.93.22c-.59.11-1.12.2-1.68.29-1.1.17-2.2.32-3.29.47C389.24,612.73,387.06,612.98,384.9,613.17Z"/>
      <path id="Path_1244" data-name="Path 1244" d="M380,872.24c-3.35.81-5.48.56-5.5.26-.04-.39,1.98-.77,4.96-1.94a31.611,31.611,0,0,0,10.34-6.73,49.764,49.764,0,0,0,7.74-9.86c1.7-2.77,2.63-4.58,2.96-4.47s-.03,2.2-1.4,5.3a34.767,34.767,0,0,1-7.57,10.83A25.653,25.653,0,0,1,380,872.24Z"/>
      <path id="Path_1245" data-name="Path 1245" d="M380.3,750.08l-4.25-45.25c.8,3.27,2.01,12.22,3.03,22.79.97,10.06,1.49,18.72,1.39,22.43A.554.554,0,0,0,380.3,750.08Z"/>
      <path id="Path_1246" data-name="Path 1246" d="M379,796h-2.71c.27-.1.54-.22.81-.33q.615-.21,1.29-.42A1.92,1.92,0,0,0,379,796Z"/>
      <path id="Path_1247" data-name="Path 1247" d="M336.97,817.77a115.711,115.711,0,0,0,22.16-13.83c.52.79,1.32,1.88,2.34,3.18,1.03,1.32,2.3,2.86,3.73,4.55l.27.31a4.4,4.4,0,0,0,.37.41,2.732,2.732,0,0,0,1.36.67,2.645,2.645,0,0,0,1.54-.19,2.768,2.768,0,0,0,.68-.42l.34-.29c.92-.78,1.87-1.59,2.84-2.42,3.86-3.35,7.26-6.48,9.64-8.84l.47-.47a2.054,2.054,0,0,0,.48-.83,2.126,2.126,0,0,0,.07-.44,1.632,1.632,0,0,0-.02-.36c-.02-.18-.03-.35-.05-.52-.07-.66-.15-1.24-.22-1.7-.01-.08-.03-.16-.04-.24,1.91-.42,3.98-.91,6.15-1.45,2.04-.52,4.01-1.04,5.87-1.52-.21-.82-.43-1.63-.64-2.43-.11-.42-.23-.82-.34-1.22-.24-.79-.46-1.55-.67-2.27-.44-1.43-.85-2.69-1.22-3.73-.32-.92-.61-1.66-.86-2.2.06-.07.12-.13.18-.19a5.6,5.6,0,0,0,1.07-1.64,4.169,4.169,0,0,0,.34-1.84,4.237,4.237,0,0,0-.4-1.52,4.154,4.154,0,0,0-1.17-1.47c.15-.2.3-.41.46-.62a8.82,8.82,0,0,0,.78-1.49,5.693,5.693,0,0,0,.33-1.67,3.831,3.831,0,0,0-.99-2.76,3.346,3.346,0,0,0-1.58-.95,4.479,4.479,0,0,0,.13-1.07,3.8,3.8,0,0,0-.74-2.25,2.719,2.719,0,0,0-1.16-.91,2.282,2.282,0,0,0-.83-.18,23.712,23.712,0,0,0-.32-3.22c-.17-1.17-.4-2.57-.69-4.17-.15-.8-.31-1.64-.48-2.53-.09-.45-.18-.9-.27-1.37-.17-.81-.35-1.63-.53-2.48-1.55.27-3.18.56-4.88.86.1-3.71-.42-12.37-1.39-22.43-1.02-10.57-2.23-19.52-3.03-22.79l-.04-.42c.17-.16.32-.31.48-.46.1-.11.21-.22.3-.32.2-.22.38-.42.55-.61.21-.25.4-.49.57-.7l.1.19a2.829,2.829,0,0,0,.32.45,2.342,2.342,0,0,0,1.94.79,2.369,2.369,0,0,0,1.83-1.08,2.723,2.723,0,0,0,.26-.51c.02-.1.06-.19.08-.29l.06-.22.14-.58c.1-.39.2-.77.3-1.17.78-3.13,1.49-6.13,2.11-8.86q.2-.87.39-1.71c1.95,1.4,6.84,4.51,13.52,9.08a171.14,171.14,0,0,1,15.05,11.42c1.32,1.16,2.65,2.38,3.9,3.71a24.025,24.025,0,0,1,3.35,4.28c1.81,3.31,3.52,7.02,5.31,10.72,7.01,14.96,13.36,28.51,17.96,38.32,2.33,4.89,4.24,8.84,5.61,11.54a29.691,29.691,0,0,0,2.23,4.01c-.29.5-.57.99-.83,1.46-.41.73-.8,1.43-1.17,2.08s-.62,1.31-.9,1.9a23.339,23.339,0,0,0-1.27,3.03,11.273,11.273,0,0,0-.7,2.62,11.372,11.372,0,0,0,1.17-2.43,28.4,28.4,0,0,1,1.47-2.89c.31-.56.6-1.18.99-1.81s.8-1.3,1.24-2c1.74-2.85,4.13-6.16,6.99-9.94,2.91-3.75,6.35-7.92,10.29-12.42s8.37-9.31,13.26-14.37c.62-.62,1.24-1.26,1.86-1.9l.83-.83.07-.07c.03-.01.06.03.08.04,1.48.87,2.99,1.75,4.51,2.65,3.24,1.89,6.58,3.85,10,5.85l2.58,1.5.11.07c.01.01.04.02.02.03l-.03.05-.27.57q-1.35,2.73-2.71,5.52-2.745,5.58-5.62,11.38c-3.83,7.72-7.82,15.71-11.99,23.84-3.14,6.08-6.22,12.08-9.4,17.8q-1.59,2.865-3.21,5.63a35.41,35.41,0,0,1-3.53,5.08l-1,1.13c-.35.34-.73.66-1.1.99a15.391,15.391,0,0,1-7.66,3.76,23.052,23.052,0,0,1-5.69.18,52.568,52.568,0,0,1-5.67-.89c-.95-.18-1.9-.38-2.88-.53l-.36-.06-.18-.03-.06-.02a.261.261,0,0,1-.14-.05,1.849,1.849,0,0,1-.2-.1,5.61,5.61,0,0,1-.89-.74,27.733,27.733,0,0,1-3.26-4.19c-.99-1.49-1.91-3.01-2.79-4.52-3.51-6.06-6.46-11.92-9.12-17.27-5.29-10.74-9.32-19.56-12.15-25.64-1.42-3.04-2.53-5.39-3.28-6.99a11.487,11.487,0,0,0-1.28-2.38,10.773,10.773,0,0,0,.82,2.58c.62,1.65,1.57,4.08,2.85,7.18.92,2.23,2,4.82,3.24,7.72-.02.14-.04.3-.05.46-.12,1.42-.27,3.51-.45,6.22-.34,5.41-.84,13.28-1.47,23.13-.33,4.92-.71,10.33-1.18,16.17q-.39,4.38-.8,9.07a79.425,79.425,0,0,0-.31,9.84,54.681,54.681,0,0,0,1.37,10.38c.8,3.49,2.1,6.91,2.68,10.35a19.95,19.95,0,0,1,.08,5.24,47.327,47.327,0,0,1-.96,5.46,49.021,49.021,0,0,1-1.6,5.41c-.32.89-.68,1.78-1.05,2.65-.2.44-.39.87-.6,1.3l-.29.59-.03.07-.01.01q-3.4.18-6.89.38c-.35.02-.7.03-1.05.05l-18.34.2c-5.22-.19-10.8-.4-16.38-.6H368c-5.46-.29-10.84-.57-16.11-.79-7.2-.28-14.21-.51-21-.46-2.77-.07-4.82-.11-5.89-.11a44.688,44.688,0,0,0-9.19,1.09c-.03.01-.07.01-.1.02-.42.09-.84.18-1.26.29-1.9.46-3.62.95-5,1.39l-2.57.03a19.538,19.538,0,0,1-3.62-2.26,42.386,42.386,0,0,1-4.05-3.61l-.93-.95-.77-.84c-.05-.03-.04-.08-.04-.13l-.02-.64q-.015-.675-.03-1.32-.135-5.25-.27-10.07c-.35-12.82-.67-23.2-.96-30.37-.14-3.58-.27-6.37-.38-8.25-.02-.38-.05-.72-.07-1.02a101.3,101.3,0,0,0,10.37-2.85c5.51-1.81,10.79-3.91,15.92-6.06,3.27-1.38,6.48-2.76,9.63-4.19a38.112,38.112,0,0,0,.47,6.51,57.72,57.72,0,0,0,5.59,17.85,34.369,34.369,0,0,0,6.08,8.51,23.862,23.862,0,0,0,7.03,4.94,22.368,22.368,0,0,0,3.11,1.11,23.083,23.083,0,0,0,2.44.44c1.36.09,2.1.05,2.12-.12.08-.45-2.91-.74-6.87-3.01a25.568,25.568,0,0,1-6.17-4.96,37.164,37.164,0,0,1-5.53-8.07,77.761,77.761,0,0,1-6.06-17.03c-.74-3.01-1.21-5.28-1.54-6.47C333.89,819.24,335.44,818.52,336.97,817.77ZM399.1,854.8c1.37-3.1,1.73-5.19,1.4-5.3s-1.26,1.7-2.96,4.47a49.764,49.764,0,0,1-7.74,9.86,31.611,31.611,0,0,1-10.34,6.73c-2.98,1.17-5,1.55-4.96,1.94.02.3,2.15.55,5.5-.26a25.653,25.653,0,0,0,11.53-6.61A34.767,34.767,0,0,0,399.1,854.8Z" fill="#fffff8"/>
      <path id="Path_1248" data-name="Path 1248" d="M378.33,795.09a.441.441,0,0,0,.06.16q-.675.21-1.29.42C377.51,795.49,377.92,795.3,378.33,795.09Z" fill="#fffff8"/>
      <path id="Path_1249" data-name="Path 1249" d="M377.91,702.32l-.07-.13.58-.6a4.077,4.077,0,0,1-.25.39C378.09,702.09,378.01,702.2,377.91,702.32Z"/>
      <path id="Path_1250" data-name="Path 1250" d="M377.81,702.13l-.26-.5c-.08-.17-.16-.34-.25-.5a.4.4,0,0,1,.09-.05c.67-.34,1.11-.46,1.25-.29.11.12.03.4-.22.8l-.58.6Z"/>
      <path id="Path_1251" data-name="Path 1251" d="M375,590l2.44.35c-2.22.13-4.5.39-6.69.7Z"/>
      <path id="Path_1252" data-name="Path 1252" d="M377.1,795.67c-.27.11-.54.23-.81.33h-.22C376.4,795.89,376.74,795.78,377.1,795.67Z"/>
      <path id="Path_1253" data-name="Path 1253" d="M375.98,704.09l1.86-1.9.07.13c-.17.21-.36.45-.57.7-.17.19-.35.39-.55.61-.09.1-.2.21-.3.32-.16.15-.31.3-.48.46Z"/>
      <path id="Path_1254" data-name="Path 1254" d="M376.59,727.86c-1.05-10.95-1.57-20.24-1.35-23.29.22-.02.43-.03.64-.04l.07-.07c.03.11.07.24.1.37l4.25,45.25c-.25.04-.52.08-.78.13C378.72,746.63,377.57,737.99,376.59,727.86Z"/>
      <path id="Path_1255" data-name="Path 1255" d="M376.01,704.41l.04.42c-.03-.13-.07-.26-.1-.37A.265.265,0,0,1,376.01,704.41Z" fill="#ff7e00"/>
      <path id="Path_1256" data-name="Path 1256" d="M375.5,703.5c.12-.01.28.32.45.96l-.07.07c-.21.01-.42.02-.64.04C375.29,703.88,375.37,703.51,375.5,703.5Z"/>
      <path id="Path_1257" data-name="Path 1257" d="M373.29,796h2.78c-.08.03-.16.05-.24.08-.25.09-.49.17-.71.25a5.661,5.661,0,0,0-.54.21c-.23.12-.43.21-.6.3-.02.01-.04.01-.06.02-.22-.39-.45-.84-.63-.84Z"/>
      <path id="Path_1258" data-name="Path 1258" d="M374.48,693a.357.357,0,0,1,.07.26c-.02.26-.3.49-.77.65-.15-.31-.29-.62-.42-.91Z"/>
      <path id="Path_1259" data-name="Path 1259" d="M374.55,693.26a.357.357,0,0,0-.07-.26H375l4,8-.58.59c.25-.4.33-.68.22-.8-.14-.17-.58-.05-1.25.29a.4.4,0,0,0-.09.05c-.08-.17-.16-.33-.24-.49-.33-.66-.65-1.3-.96-1.93-.85-1.72-1.63-3.34-2.32-4.8C374.25,693.75,374.53,693.52,374.55,693.26Z"/>
      <path id="Path_1260" data-name="Path 1260" d="M374.48,693a2.576,2.576,0,0,0-1.54-.89.614.614,0,0,0-.05-.12c-.95-2.09-1.66-3.77-2.07-4.9l.48-.84a56.752,56.752,0,0,1,3.16,4.92c1.08,1.83,2.33,4.02,3.68,6.47.61,1.11,1.24,2.28,1.9,3.49.02,0,.03-.01.02-.02.15-.59.3-1.2.45-1.81.79-3.14,1.57-6.12,2.31-8.82.09-.34.18-.67.27-1l.14-.49.07-.24c.01-.06.01-.03.02-.05a.066.066,0,0,0,.01-.06l-.01-.03-.1-.18a5.878,5.878,0,0,1-.45-.95,8.388,8.388,0,0,1-.69-3.78,9.234,9.234,0,0,1,.1-.95,4.215,4.215,0,0,0,1.19-.87L383,683l1.85,5.55c-.21-.07-.33-.09-.35-.05-.03.06.14.23.5.5a5.016,5.016,0,0,0,.44.33q-.2.84-.39,1.71c-.62,2.73-1.33,5.73-2.11,8.86-.1.4-.2.78-.3,1.17l-.14.58-.06.22c-.02.1-.06.19-.08.29a2.723,2.723,0,0,1-.26.51,2.369,2.369,0,0,1-1.83,1.08,2.342,2.342,0,0,1-1.94-.79,2.829,2.829,0,0,1-.32-.45l-.1-.19c.1-.12.18-.23.26-.34a4.077,4.077,0,0,0,.25-.39L379,701l-4-8Z"/>
      <path id="Path_1261" data-name="Path 1261" d="M373.98,796.84c.17-.09.37-.18.6-.3a5.661,5.661,0,0,1,.54-.21c.22-.08.46-.16.71-.25.08-.03.16-.05.24-.08h.22C375.5,796.33,374.73,796.6,373.98,796.84Z"/>
      <path id="Path_1262" data-name="Path 1262" d="M379.21,634.03c-3.48.33-6.43,1.13-6.71.47-.14-.31.46-.92,1.6-1.54a13.045,13.045,0,0,1,4.89-1.42,10.806,10.806,0,0,1,2.92.13c.45.12.87.23,1.26.37a11.092,11.092,0,0,1,1.04.53c.29.22.54.43.75.62a2.571,2.571,0,0,1,.43.59c.2.36.23.6.11.72s-.39.12-.72.04c-.18-.04-.34-.13-.57-.17s-.47-.11-.72-.18A13.946,13.946,0,0,0,379.21,634.03Z"/>
      <path id="Path_1263" data-name="Path 1263" d="M373.36,693c-.15-.31-.28-.6-.42-.89a2.576,2.576,0,0,1,1.54.89Z"/>
      <path id="Path_1264" data-name="Path 1264" d="M373.98,796.84l-.06.03v-.01C373.94,796.85,373.96,796.85,373.98,796.84Z" fill="#ff7e00"/>
      <path id="Path_1265" data-name="Path 1265" d="M373.06,797.12c.29-.08.57-.16.86-.26v.01l.06-.03c.75-.24,1.52-.51,2.31-.84H382l.06.17c-.02.11-.04.24-.06.37-.76.17-1.49.32-2.18.46-1.34.26-2.55.48-3.59.65-.57.09-1.09.17-1.55.24-.66.11-1.19.19-1.6.24C373.06,797.73,373.05,797.4,373.06,797.12Z"/>
      <path id="Path_1266" data-name="Path 1266" d="M373.06,797.12c0-.77.09-1.09.22-1.1h.01c.18,0,.41.45.63.84C373.63,796.96,373.35,797.04,373.06,797.12Z"/>
      <path id="Path_1267" data-name="Path 1267" d="M380.03,892.01q-6.03-.315-11.95-.65c5.58.2,11.16.41,16.38.6l-4.32.05Z" fill="#603813"/>
      <path id="Path_1268" data-name="Path 1268" d="M377.37,684.69a22.427,22.427,0,0,1-5.82,1.14c.12-.21.24-.43.36-.64-.26-.17-.52-.35-.77-.52a21.852,21.852,0,0,1,5.49-2.36,21.14,21.14,0,0,1,5.96-1.13,7.651,7.651,0,0,0-.41,1.57A25.784,25.784,0,0,1,377.37,684.69Z"/>
      <path id="Path_1269" data-name="Path 1269" d="M371.55,685.83c-.09.14-.17.28-.25.42a4.918,4.918,0,0,0-.39-.49A2.312,2.312,0,0,0,371.55,685.83Z"/>
      <path id="Path_1270" data-name="Path 1270" d="M381,893c-2.81-.28-9.09-.56-16.68-.82l15.71-.17h.11c.1.01.19.01.29.02,2.69.13,5.27.27,7.89.21.82-.01,1.64-.02,2.46-.04,3.93.14,7.53.28,10.6.4C394.76,893.11,386.37,893.54,381,893Z"/>
      <path id="Path_1271" data-name="Path 1271" d="M368.13,691.78a10.053,10.053,0,0,1,2.57-.09,10.394,10.394,0,0,1,2.24.42c.14.29.27.58.42.89h-5.94C367.66,692.59,367.9,692.18,368.13,691.78Z"/>
      <path id="Path_1272" data-name="Path 1272" d="M370.7,691.69a10.053,10.053,0,0,0-2.57.09c.93-1.61,1.82-3.18,2.69-4.69.41,1.13,1.12,2.81,2.07,4.9a.614.614,0,0,1,.05.12A10.394,10.394,0,0,0,370.7,691.69Z" fill="#fffff8"/>
      <path id="Path_1273" data-name="Path 1273" d="M370.91,685.76c-.23-.05-.37-.14-.41-.26C370.57,685.46,370.71,685.55,370.91,685.76Z"/>
      <path id="Path_1274" data-name="Path 1274" d="M370.82,687.09c-.34-.96-.46-1.52-.32-1.59.04.12.18.21.41.26a4.918,4.918,0,0,1,.39.49Z"/>
      <path id="Path_1275" data-name="Path 1275" d="M370.5,685.5c-.06-.21.17-.5.64-.83.25.17.51.35.77.52-.12.21-.24.43-.36.64a2.312,2.312,0,0,1-.64-.07C370.71,685.55,370.57,685.46,370.5,685.5Z"/>
      <path id="Path_1276" data-name="Path 1276" d="M370.5,694.18a8.311,8.311,0,0,1-3.28-.83,2.434,2.434,0,0,0,.2-.35h5.94c.13.29.27.6.42.91A8.379,8.379,0,0,1,370.5,694.18Z"/>
      <path id="Path_1277" data-name="Path 1277" d="M391.6,996.19l-28.02.27.17-.01-.07-1.2c1.04.01,2.08.01,3.12.01Z"/>
      <path id="Path_1278" data-name="Path 1278" d="M391.6,996.19l-24.8-.93c15.56.02,30.51.04,44.52.06,0-.54.01-1.09.01-1.63.02-.94-.02-1.81-.07-2.76-.09-1.86-.17-3.71-.25-5.53-.13-3.65-.27-7.22-.4-10.72-.23-6.99-.4-13.67-.38-19.99.02-3.17.03-6.21.33-9.26.3-2.85.35-5.74.44-8.47.14-5.49.17-10.57.19-15.17.01-2.47.01-4.81.02-7L412,996Z"/>
      <path id="Path_1279" data-name="Path 1279" d="M372,796l-5.61.8c.71-.17,1.61-.37,2.63-.65a45.82,45.82,0,0,0,10.13-4.31,42.2,42.2,0,0,0,8.81-6.5c.2-.24.44-.49.59-.7a3.178,3.178,0,0,0,.38-.66c.11-.25.2-.48.28-.68v-.01c.21-.16.43-.33.64-.51A18.578,18.578,0,0,1,382,791c-3.59,1.79-3.96,3.23-3.67,4.09-.41.21-.82.4-1.23.58-.36.11-.7.22-1.03.33H372Z"/>
      <path id="Path_1280" data-name="Path 1280" d="M367.99,702.32c-.08-.05-.48-.41-.74-.63-.35-.29-.69-.57-1.01-.83-.65-.52-1.25-.97-1.76-1.31-.21-.15-.41-.27-.6-.38.1-.18.21-.36.31-.54.53-.9,1.04-1.8,1.55-2.68s1-1.74,1.48-2.6a10.159,10.159,0,0,0,6.56.56c.69,1.46,1.47,3.08,2.32,4.8.31.63.63,1.27.96,1.93.08.16.16.32.24.49-.31.16-.67.37-1.06.62-.21.14-.44.29-.68.45-.11.08-.23.16-.36.25l-.08.02-.06-.03c-.01-.01-.01-.01-.15-.02-.2-.02-.4-.03-.61-.04-.42-.03-.85-.05-1.3-.07-.91-.04-1.86-.06-2.86-.06-.46,0-.91.01-1.35.01-.22.01-.44.01-.65.02H368v.01l-.02.01Z" fill="#ff7e00"/>
      <path id="Path_1281" data-name="Path 1281" d="M368,704l-.15.72a2.272,2.272,0,0,0-.26-.01,3.813,3.813,0,0,0-.04-1.16Z"/>
      <path id="Path_1282" data-name="Path 1282" d="M367.99,702.32Z" fill="#ff7e00"/>
      <path id="Path_1283" data-name="Path 1283" d="M367.85,704.72l-.46,2.23c.1-.93.17-1.68.2-2.24A2.272,2.272,0,0,1,367.85,704.72Z" fill="#fffff8"/>
      <path id="Path_1284" data-name="Path 1284" d="M366.91,810.13c-1.52-1.61-2.93-3.03-4.13-4.2-1.17-1.13-2.14-2.02-2.87-2.62.9-.76,1.79-1.53,2.65-2.32.44-.42.88-.84,1.31-1.28.21-.21.43-.43.64-.65l.34-.37.53-.61.16-.19.25.03a14.8,14.8,0,0,0,3.57-.04,23.911,23.911,0,0,0,3.7-.76c-.01.28,0,.61.02,1.01.41-.05.94-.13,1.6-.24.46-.07.98-.15,1.55-.24,1.04-.17,2.25-.39,3.59-.65.69-.14,1.42-.29,2.18-.46a.06.06,0,0,0-.01.04c-.07.47-.14,1.05-.2,1.71-.01.17-.03.34-.04.52a.758.758,0,0,1-.03.18.355.355,0,0,1-.04.09.535.535,0,0,1-.15.15c-.08.05-.3.22-.45.33-2.68,2.02-6.26,4.94-10.12,8.29-.96.84-1.9,1.66-2.8,2.46l-.34.3a.179.179,0,0,1-.07.05.328.328,0,0,1-.17.04.349.349,0,0,1-.17-.06c0,.01-.11-.11-.21-.21Z" fill="#ff7e00"/>
      <path id="Path_1285" data-name="Path 1285" d="M367.55,703.55a3.813,3.813,0,0,1,.04,1.16c-.19,0-.38-.01-.57-.01a.263.263,0,0,0-.06-.05v-.01c.24-.74.42-1.14.53-1.14h.01Z"/>
      <path id="Path_1286" data-name="Path 1286" d="M367.5,703.5c.02,0,.04.02.05.05Z"/>
      <path id="Path_1287" data-name="Path 1287" d="M367.22,693.35a1.453,1.453,0,0,1-.3-.22L367,693h.42A2.434,2.434,0,0,1,367.22,693.35Z"/>
      <path id="Path_1288" data-name="Path 1288" d="M367.42,693H367l-.08.13a.6.6,0,0,1-.28-.51c.03-.38.61-.69,1.49-.84C367.9,692.18,367.66,692.59,367.42,693Z"/>
      <path id="Path_1289" data-name="Path 1289" d="M367,769l-.49-2.31a5.15,5.15,0,0,0-.01-.87,2.136,2.136,0,0,1,.32.2,2.075,2.075,0,0,1,.6.65,1.06,1.06,0,0,1,.15.42,1.335,1.335,0,0,1,.09.45,4.126,4.126,0,0,0,.19.75c.1.27.21.55.34.84.03.07.02.04.04.05l.03-.01.69-.11c.54-.08,1.08-.17,1.63-.26,1.09-.19,2.21-.39,3.35-.59,1.72-.33,3.4-.67,4.98-1.07a27.357,27.357,0,0,0,4.37-1.41,3.637,3.637,0,0,0,1.37-.93,4.3,4.3,0,0,1,2.16-1.73.827.827,0,0,1,.15-.04l.04.97-2,2-16,5Z"/>
      <path id="Path_1290" data-name="Path 1290" d="M366.8,995.26c-1.04,0-2.08,0-3.12-.01l-.01-.11Z" fill="#fffff8"/>
      <path id="Path_1291" data-name="Path 1291" d="M366.51,766.69l-.21-.97c.04.02.08.04.13.06a.248.248,0,0,1,.07.04A5.15,5.15,0,0,1,366.51,766.69Z"/>
      <path id="Path_1292" data-name="Path 1292" d="M366.37,796.8c-.35.09-.66.16-.92.23l-.03-.09Z" fill="#ff7e00"/>
      <path id="Path_1293" data-name="Path 1293" d="M366.38,767.04c-.16.04-.45-.51-.83-1.55a4.607,4.607,0,0,1,.5.13c.07.02.15.06.25.1l.21.97C366.49,766.91,366.45,767.03,366.38,767.04Z"/>
      <path id="Path_1294" data-name="Path 1294" d="M365.64,797.77c.03-.11-.06-.25-.08-.37l-.11-.37c.26-.07.57-.14.92-.23h.02L372,796h1.29v.02h-.01c-.13.01-.22.33-.22,1.1a23.911,23.911,0,0,1-3.7.76,14.8,14.8,0,0,1-3.57.04l-.25-.03Z"/>
      <path id="Path_1295" data-name="Path 1295" d="M364.94,763.71c.22.69.43,1.29.61,1.78a.585.585,0,0,0-.13-.02,5.073,5.073,0,0,0-.53-.06l-.85-4.68C364.37,761.86,364.67,762.86,364.94,763.71Z" fill="#fffff8"/>
      <path id="Path_1296" data-name="Path 1296" d="M364.86,755.63c-.04-.16-.02-.11-.02-.14v-.11h.14c.41-.07.81-.14,1.23-.2.85-.15,1.74-.31,2.64-.46,1.8-.33,3.68-.68,5.62-1.04,1.84-.36,3.63-.71,5.34-1.05.86-.18,1.7-.35,2.52-.52.4-.08.81-.17,1.2-.25l.12-.05.03.06c.02.03.01-.03.09.29.12.46.24.9.36,1.34.24.88.47,1.71.68,2.49.44,1.56.84,2.93,1.2,4.05s.68,2.01.93,2.6l.02.39a.827.827,0,0,0-.15.04,4.3,4.3,0,0,0-2.16,1.73,3.637,3.637,0,0,1-1.37.93,27.357,27.357,0,0,1-4.37,1.41c-1.58.4-3.26.74-4.98,1.07-1.14.2-2.26.4-3.35.59-.55.09-1.09.18-1.63.26l-.69.11-.03.01c-.02-.01-.01.02-.04-.05-.13-.29-.24-.57-.34-.84a4.126,4.126,0,0,1-.19-.75,1.335,1.335,0,0,0-.09-.45,1.06,1.06,0,0,0-.15-.42,2.075,2.075,0,0,0-.6-.65,2.136,2.136,0,0,0-.32-.2c-.04-.6-.13-1.41-.27-2.4-.16-1.13-.39-2.48-.66-4.02-.15-.77-.3-1.59-.46-2.45C365.03,756.52,364.94,756.08,364.86,755.63Z" fill="#999"/>
      <path id="Path_1297" data-name="Path 1297" d="M365.45,797.03a5.24,5.24,0,0,0-.67.22L365,797l.42-.06Z"/>
      <path id="Path_1298" data-name="Path 1298" d="M365.54,797.89c-.62-.1-.97-.21-1.03-.35l.27-.29a5.24,5.24,0,0,1,.67-.22l.11.37c.02.12.11.26.08.37Z"/>
      <path id="Path_1299" data-name="Path 1299" d="M364.78,797.25l-.27.29a.06.06,0,0,1-.01-.04C364.5,797.41,364.6,797.33,364.78,797.25Z"/>
      <path id="Path_1300" data-name="Path 1300" d="M358.05,774.18l-.54.27c0-.12-.01-.25-.01-.39a5.293,5.293,0,0,1,.95-3.33,6.612,6.612,0,0,1,1.81-1.64,9.687,9.687,0,0,1,2.63-1.26,4.927,4.927,0,0,1,1.45-.23,2.836,2.836,0,0,1,.67.06,1.869,1.869,0,0,1,.28.08c.04.02.06.04.05.03l.01.01a.1.1,0,0,1,.02.07,5.181,5.181,0,0,0,.25,1.16,10.415,10.415,0,0,0,.37,1.03c.21.55.53,1.18.81,1.77.82-.11,1.66-.21,2.5-.32l1.67-.24c1.12-.17,2.26-.37,3.42-.58,1.77-.34,3.49-.71,5.14-1.16a26.688,26.688,0,0,0,4.76-1.71,8.565,8.565,0,0,0,1.13-.69,4.5,4.5,0,0,0,.56-.47,5.207,5.207,0,0,0,.48-.59,2.375,2.375,0,0,1,.99-1,.353.353,0,0,1,.31-.04.674.674,0,0,1,.36.25,2.01,2.01,0,0,1,.49,1.13,4.121,4.121,0,0,1-.74,2.45c-.45.74-.93,1.37-1.31,1.88-.78,1.04-1.19,1.66-1.06,1.78s.75-.26,1.77-1.11a13.031,13.031,0,0,0,1.74-1.75,7.653,7.653,0,0,0,.84-1.26,7.01,7.01,0,0,1,.53.96,2.671,2.671,0,0,1,.13,1.55,5.477,5.477,0,0,1-.9,1.98c-.27.35-.48.71-.76,1.04s-.55.65-.8.97c-.56.59-1.03,1.16-1.45,1.65-.86.95-1.3,1.69-1.1,1.97s1.03.04,2.22-.61a16.006,16.006,0,0,0,1.95-1.38c.25-.23.52-.48.78-.75a8.654,8.654,0,0,1,.28,1.14,2.565,2.565,0,0,1-.34,1.81,4.513,4.513,0,0,1-.74.9c-.36.34-.77.71-1.18,1.07-3.39,2.88-6.35,5.21-5.97,5.82.31.52,3.37-.61,6.71-3.2-.08.2-.17.43-.28.68a3.178,3.178,0,0,1-.38.66c-.15.21-.39.46-.59.7a42.2,42.2,0,0,1-8.81,6.5,45.82,45.82,0,0,1-10.13,4.31c-1.02.28-1.92.48-2.63.65h-.02l-.95.14-.1-.31-.29-.89c-.18-.56-.36-1.11-.54-1.67-.71-2.21-1.42-4.38-2.11-6.51Q360.13,780.615,358.05,774.18Z" fill="#f3d2c2"/>
      <path id="Path_1301" data-name="Path 1301" d="M363.87,799.71c-.43.44-.87.86-1.31,1.28-.86.79-1.75,1.56-2.65,2.32-.12-.1-.24-.19-.34-.27l4.94-5.5c.06.14.41.25,1.03.35l-.16.19-.53.61-.34.37C364.3,799.28,364.08,799.5,363.87,799.71Z"/>
      <path id="Path_1302" data-name="Path 1302" d="M364.48,699.55c.51.34,1.11.79,1.76,1.31.32.26.66.54,1.01.83.26.22.66.58.74.63h0l-.01-.02.02-.01v-.01h.14c.21-.01.43-.01.65-.02.44,0,.89-.01,1.35-.01,1,0,1.95.02,2.86.06.45.02.88.04,1.3.07.21.01.41.02.61.04.14.01.14.01.15.02l.06.03.08-.02c.13-.09.25-.17.36-.25.24-.16.47-.31.68-.45.39-.25.75-.46,1.06-.62.09.16.17.33.25.5l.26.5.03.06-1.86,1.9.03.32a.265.265,0,0,0-.06.05c-.17-.64-.33-.97-.45-.96s-.21.38-.26,1.07c-.7.04-1.45.08-2.24.12-.91.04-1.86.06-2.86.06-.46,0-.91-.01-1.35-.01-.31-.01-.63-.02-.94-.02L368,704l-.45-.45c-.01-.03-.03-.05-.05-.05h-.01l-3.87-3.88c.08-.15.17-.3.26-.45C364.07,699.28,364.27,699.4,364.48,699.55Z"/>
      <path id="Path_1303" data-name="Path 1303" d="M366.3,765.72,364,755l15.99-3.2q.105.18.18.18.09-.015.15-.24L384,751l2.91,10.87.03.77c-.25-.59-.57-1.47-.93-2.6s-.76-2.49-1.2-4.05c-.21-.78-.44-1.61-.68-2.49-.12-.44-.24-.88-.36-1.34-.08-.32-.07-.26-.09-.29l-.03-.06-.12.05c-.39.08-.8.17-1.2.25-.82.17-1.66.34-2.52.52-1.71.34-3.5.69-5.34,1.05-1.94.36-3.82.71-5.62,1.04-.9.15-1.79.31-2.64.46-.42.06-.82.13-1.23.2h-.14v.11c0,.03-.02-.02.02.14.08.45.17.89.25,1.32.16.86.31,1.68.46,2.45.27,1.54.5,2.89.66,4.02.14.99.23,1.8.27,2.4a.248.248,0,0,0-.07-.04C366.38,765.76,366.34,765.74,366.3,765.72Z"/>
      <path id="Path_1304" data-name="Path 1304" d="M365.74,695.95c-.51.88-1.02,1.78-1.55,2.68-.1.18-.21.36-.31.54a4.022,4.022,0,0,0-.74-.38l3.78-5.66a1.453,1.453,0,0,0,.3.22C366.74,694.21,366.24,695.07,365.74,695.95Z"/>
      <path id="Path_1305" data-name="Path 1305" d="M368,891.36c-14.48-.52-28.95-1.02-37.11-1.25,6.79-.05,13.8.18,21,.46C357.16,890.79,362.54,891.07,368,891.36Z"/>
      <path id="Path_1306" data-name="Path 1306" d="M363.62,699.62l3.87,3.88c-.11,0-.29.4-.53,1.14-.79-.78-.94-.96-1.28-1.32-.3-.34-.6-.67-.87-.98-.55-.63-1.01-1.2-1.38-1.7-.08-.11-.15-.21-.22-.31l.19-.33C363.47,699.87,363.55,699.74,363.62,699.62Z"/>
      <path id="Path_1307" data-name="Path 1307" d="M363,755l16.68-4.11a6.083,6.083,0,0,0,.31.91L364,755l2.3,10.72c-.1-.04-.18-.08-.25-.1a4.607,4.607,0,0,0-.5-.13c-.18-.49-.39-1.09-.61-1.78-.27-.85-.57-1.85-.9-2.98Z"/>
      <path id="Path_1308" data-name="Path 1308" d="M363.68,995.25l.07,1.2-.17.01-2.33.02-.03-1.23Z"/>
      <path id="Path_1309" data-name="Path 1309" d="M363.88,699.17c-.09.15-.18.3-.26.45L363,699l.14-.21A4.022,4.022,0,0,1,363.88,699.17Z"/>
      <path id="Path_1310" data-name="Path 1310" d="M363.67,995.14l.01.11h-2.46l-.01-.2Z"/>
      <path id="Path_1311" data-name="Path 1311" d="M359.5,922.5l4.17,72.64-2.46-.09Z"/>
      <path id="Path_1312" data-name="Path 1312" d="M363.58,996.46l-2.33.09v-.07Z"/>
      <path id="Path_1313" data-name="Path 1313" d="M367,812l-7.65-8.23c.19-.15.37-.31.56-.46.73.6,1.7,1.49,2.87,2.62,1.2,1.17,2.61,2.59,4.13,4.2l.29.3c.1.1.21.22.21.21a.349.349,0,0,0,.17.06.328.328,0,0,0,.17-.04.179.179,0,0,0,.07-.05l.34-.3c.9-.8,1.84-1.62,2.8-2.46,3.86-3.35,7.44-6.27,10.12-8.29.15-.11.37-.28.45-.33a.535.535,0,0,0,.15-.15.355.355,0,0,0,.04-.09.758.758,0,0,0,.03-.18c.01-.18.03-.35.04-.52.06-.66.13-1.24.2-1.71a.06.06,0,0,1,.01-.04,1.04,1.04,0,0,0,.17-.04L383,799Z"/>
      <path id="Path_1314" data-name="Path 1314" d="M379.68,750.89,363,755l1.04,5.73c-.08-.29-.17-.6-.26-.92q-.315-1.14-.66-2.4c-.11-.43-.23-.86-.35-1.3-.2-.81-.4-1.64-.61-2.49q2.94-.6,6.23-1.29c1.8-.35,3.68-.72,5.61-1.1,1.84-.34,3.64-.67,5.36-.99l.16-.03C379.58,750.46,379.63,750.69,379.68,750.89Z"/>
      <path id="Path_1315" data-name="Path 1315" d="M363.21,700.33c-.58-.83-.83-1.4-.66-1.59.09-.09.3-.08.59.05L363,699l.62.62c-.07.12-.15.25-.22.38Z"/>
      <path id="Path_1316" data-name="Path 1316" d="M361.47,807.12c-1.02-1.3-1.82-2.39-2.34-3.18.07-.05.15-.11.22-.17L367,812l16-13-.83-2.5c.25-.05.51-.1.76-.16.01.08.03.16.04.24.07.46.15,1.04.22,1.7.02.17.03.34.05.52a1.632,1.632,0,0,1,.02.36,2.126,2.126,0,0,1-.07.44,2.054,2.054,0,0,1-.48.83l-.47.47c-2.38,2.36-5.78,5.49-9.64,8.84-.97.83-1.92,1.64-2.84,2.42l-.34.29a2.768,2.768,0,0,1-.68.42,2.645,2.645,0,0,1-1.54.19,2.732,2.732,0,0,1-1.36-.67,4.4,4.4,0,0,1-.37-.41l-.27-.31C363.77,809.98,362.5,808.44,361.47,807.12Z"/>
      <path id="Path_1317" data-name="Path 1317" d="M359.51,609.69a2.471,2.471,0,0,1,1.27-.38l.65.18c.22.07.44.19.67.29l.57.27.66.19a19.076,19.076,0,0,0,2.75.61,48.68,48.68,0,0,0,5.99.42,116.4,116.4,0,0,0,12.55-.57c2.13-.2,4.26-.45,6.41-.72,1.07-.15,2.14-.3,3.21-.47.52-.08,1.08-.17,1.56-.27l.69-.15.6-.22a3.28,3.28,0,0,0,.66-.4l.39.39L397,610l.09.12c-2.36.32-9.08,1.28-17.09,2.88a25.952,25.952,0,0,1-5.03.47,43.732,43.732,0,0,1-15.88-3.43A2.783,2.783,0,0,1,359.51,609.69Z"/>
      <path id="Path_1318" data-name="Path 1318" d="M361.21,995.05l.01.2h-.95c-18.49.03-36.2.05-52.61.08,0-.23-.01-.46-.01-.68L360,995Z" fill="#fffff8"/>
      <path id="Path_1319" data-name="Path 1319" d="M360.05,699.82l-.25-.33c-.65-.87-1.31-1.76-1.98-2.65-1.89-2.51-3.74-4.96-5.52-7.32-1.74-2.27-3.41-4.46-5.01-6.55a.078.078,0,0,1-.02-.08.076.076,0,0,1,.02-.04l.12-.08c.07-.05.13-.1.2-.15a3.932,3.932,0,0,0,1.13-.94l.29-.26c.97-.9,1.86-1.8,2.7-2.69a9.038,9.038,0,0,0,1.82-3.49c.12-.36.2-.72.28-1.07.73.67,1.99,1.69,3.7,3.01,1.47,1.14,3.27,2.5,5.35,4.04,1.85,1.37,3.93,2.91,6.21,4.59l-.06.08-.03.04-.02.03-.09.14c-.23.38-.47.77-.7,1.16-.48.79-.97,1.59-1.46,2.4q-1.47,2.46-3.05,5.07-1.515,2.535-3.11,5.19a.279.279,0,0,1-.29.09.311.311,0,0,1-.13-.06l-.03-.03-.01-.02Z" fill="#fffff8"/>
      <path id="Path_1320" data-name="Path 1320" d="M370.73,591.05c-4.59.66-8.72,1.55-10.73,1.95a19.437,19.437,0,0,1-4.38.3c.54-.05,1.1-.13,1.65-.22,5.32-.89,10.92-2.61,17.04-3.26a30.523,30.523,0,0,1,9.51.27,17.848,17.848,0,0,1,3.74,1.18c-2.54-.98-6.22-1.15-10.11-.92h-.01L375,590l-4.25,1.05Z"/>
      <path id="Path_1321" data-name="Path 1321" d="M359.91,803.31c-.19.15-.37.31-.56.46l-.22-.24.44-.49C359.67,803.12,359.79,803.21,359.91,803.31Z"/>
      <path id="Path_1322" data-name="Path 1322" d="M359.68,657.81c.27.72.57,1.52.91,2.39.08.22.16.44.25.67l.13.34c.05.12.08.24.11.29.26.43.52.88.79,1.35s.54.95.83,1.45a14.966,14.966,0,0,0,1.03,1.46c.36.5.74,1.01,1.12,1.53.45.48.91.96,1.39,1.46,3.68,4.06,10.08,7.3,17.73,7.94a42.661,42.661,0,0,0,11.95-.65c.52-.09,1.01-.23,1.52-.33.23-.06.55-.11.72-.18s.35-.12.52-.2a5.383,5.383,0,0,0,1.88-1.65,17.128,17.128,0,0,0,2.5-5.15,59.332,59.332,0,0,0,2.27-11.51,100.522,100.522,0,0,0,.61-11.01c.01-.87-.01-1.74-.05-2.58q-.03-.63-.09-1.23c-.03-.18-.05-.39-.08-.52l-.02-.12-.04-.18-.08-.35a18.949,18.949,0,0,1,.02-5.17c.16-1.57.29-3.05.3-4.48a22.627,22.627,0,0,0-.24-4.05,29.318,29.318,0,0,0-2.57-6.68c-.98-1.93-1.93-3.57-2.71-4.9-1.58-2.67-2.49-4.14-2.33-4.23.01,0,.02-.01.03,0s0-.01.01,0c2.22,3.12,7.14,10.17,7.91,12.48,1,3,1,15,1,19s-1,25-5,31c-3.6,5.4-14.49,4.32-16.63,4.05.14-.31.2-.49.13-.55-.12-.12-.74.23-1.52,1.21a1.888,1.888,0,0,0-.2.27h-.05a32.967,32.967,0,0,1-11.19-3.15c-.79-.44-1.61-.81-2.33-1.3s-1.4-.97-2.09-1.44c-.64-.52-1.22-1.07-1.81-1.59-.28-.26-.59-.5-.85-.78-.24-.29-.49-.57-.73-.84-.48-.56-.95-1.1-1.4-1.63-.38-.57-.75-1.13-1.11-1.67-.34-.55-.74-1.05-1-1.59s-.52-1.06-.77-1.56-.48-1-.71-1.47a3.349,3.349,0,0,1-.14-.41l-.1-.35c-.06-.23-.13-.46-.19-.69-.25-.89-.47-1.7-.68-2.44-.15-.57-.27-1.04-.37-1.41a.5.5,0,0,0,.07-.08,4.2,4.2,0,0,0,.49-.77C359.04,656.23,359.31,656.87,359.68,657.81Z"/>
      <path id="Path_1323" data-name="Path 1323" d="M359.13,803.53l.22.24c-.07.06-.15.12-.22.17-.53-.82-.76-1.32-.63-1.44.11-.1.48.1,1.07.54Z"/>
      <path id="Path_1324" data-name="Path 1324" d="M359.09,610.04a.65.65,0,0,0-.09.08V610A.79.79,0,0,1,359.09,610.04Z" fill="#fffff8"/>
      <path id="Path_1325" data-name="Path 1325" d="M360.16,655.29c-.17-.08-.38-.17-.62-.27-.11-.02-.28-.1-.39.04a2.427,2.427,0,0,0-.19.43,2.612,2.612,0,0,1-.14.32,3.43,3.43,0,0,0-.33-.59c.03-.06.06-.11.09-.17a2.074,2.074,0,0,1,.36-.48c.17-.15.4-.04.55.01a5.367,5.367,0,0,1,.77.46c.37.28.53.42.5.46S360.52,655.46,360.16,655.29Z"/>
      <path id="Path_1326" data-name="Path 1326" d="M402.19,632.54c1.66-1.1,2.69-2.47,2.31-3.04s-2.04-.14-3.69.96-2.69,2.47-2.31,3.04S400.54,633.64,402.19,632.54Zm.27,10.43c1.09-.17,1.77-1.64,1.52-3.27s-1.34-2.83-2.44-2.67-1.77,1.64-1.52,3.27S401.36,643.13,402.46,642.97Zm-42.92,12.05c.24.1.45.19.62.27.36.17.58.25.6.21s-.13-.18-.5-.46a5.367,5.367,0,0,0-.77-.46c-.15-.05-.38-.16-.55-.01a2.074,2.074,0,0,0-.36.48c-.03.06-.06.11-.09.17-.19-.27-.29-.26-.38-.24-.11.03-.19.08-.03.87a3.266,3.266,0,0,1-.3.35,6.935,6.935,0,0,1-1.2,1.01,14.609,14.609,0,0,1-1.63.96,3.432,3.432,0,0,1-1.45.33,3.986,3.986,0,0,1-.48-.03,7.971,7.971,0,0,1-4.2-2.32,15.584,15.584,0,0,1-3.34-4.68,12.224,12.224,0,0,1-.97-2.94,5.608,5.608,0,0,1,.21-3.02,2.759,2.759,0,0,1,.36-.65l.5-.6.61-.46c.25-.09.47-.22.72-.29a6.075,6.075,0,0,1,3.51.36,15.863,15.863,0,0,1,3.6,1.92l.42.3a2.142,2.142,0,0,0,.34.23c.17.08.26.11.36.16.4.16.8.33,1.2.5.82.33,1.64.67,2.47,1.02l.62.25.32.13a.5.5,0,0,0,.38.06,2.792,2.792,0,0,0,1.61-.7c.86-.87.38-2.16-.52-3.14a4.253,4.253,0,0,0-.5-.55l-.24-.23a.758.758,0,0,1-.1-.13,2.262,2.262,0,0,1-.35-.7,9.805,9.805,0,0,1-.37-2.06,58.419,58.419,0,0,1,.33-9.43c.29-3.28.7-6.66.97-10.17a30.609,30.609,0,0,0,.06-5.52l-.24-1.35c-.05-.41-.11-.81-.12-1.2a4.969,4.969,0,0,1,.09-1.07.858.858,0,0,1,.07-.21c.02-.07,0-.04.01-.05s.02-.02.03-.02c.01-.02.04-.01.05.01l.76.36.8.24a22.607,22.607,0,0,0,3.17.72,50.574,50.574,0,0,0,6.38.48c.98.02,1.96.02,2.95.01,3.28-.05,6.6-.25,9.93-.56,2.16-.19,4.34-.44,6.52-.72,1.09-.15,2.19-.3,3.29-.47.56-.09,1.09-.18,1.68-.29l.93-.22.58-.21a2.4,2.4,0,0,1,.18.26c-.01-.01-.02,0-.03,0-.16.09.75,1.56,2.33,4.23.78,1.33,1.73,2.97,2.71,4.9a29.318,29.318,0,0,1,2.57,6.68,22.627,22.627,0,0,1,.24,4.05c-.01,1.43-.14,2.91-.3,4.48a18.949,18.949,0,0,0-.02,5.17l.08.35.04.18.02.12c.03.13.05.34.08.52q.06.6.09,1.23c.04.84.06,1.71.05,2.58a100.522,100.522,0,0,1-.61,11.01,59.332,59.332,0,0,1-2.27,11.51,17.128,17.128,0,0,1-2.5,5.15,5.383,5.383,0,0,1-1.88,1.65c-.17.08-.35.13-.52.2s-.49.12-.72.18c-.51.1-1,.24-1.52.33a42.661,42.661,0,0,1-11.95.65c-7.65-.64-14.05-3.88-17.73-7.94-.48-.5-.94-.98-1.39-1.46-.38-.52-.76-1.03-1.12-1.53a14.966,14.966,0,0,1-1.03-1.46c-.29-.5-.57-.98-.83-1.45s-.53-.92-.79-1.35c-.03-.05-.06-.17-.11-.29l-.13-.34c-.09-.23-.17-.45-.25-.67-.34-.87-.64-1.67-.91-2.39-.37-.94-.64-1.58-.86-2a2.612,2.612,0,0,0,.14-.32,2.427,2.427,0,0,1,.19-.43C359.26,654.92,359.43,655,359.54,655.02Zm39.73,6.4a3.424,3.424,0,0,0-.34-1.97,3.381,3.381,0,0,0-1.34-1.43,4.824,4.824,0,0,0-1.58-.6,8.393,8.393,0,0,0-1.46-.11,6.019,6.019,0,0,0-1.43.21,6.893,6.893,0,0,0-2.28,1.08,9.292,9.292,0,0,0-1.55,1.38c-1.64,1.87-2.07,3.36-1.79,3.52,0,.34,1.44.67,3.78.8a29.469,29.469,0,0,0,4.16-.05,10.616,10.616,0,0,0,1.28-.18,4.756,4.756,0,0,0,.74-.19,1.45,1.45,0,0,0,.47-.23c.16-.13.37-.19.49-.37a2.6,2.6,0,0,0,.6-.91A2.973,2.973,0,0,0,399.27,661.42Zm-1.63-11.7a3.089,3.089,0,0,0,.62-2.26c-.1-.6-.42-.96-.76-.96-.69.01-1.26.95-1.87,1.74-.3.41-.58.79-.83,1.17a1.394,1.394,0,0,0-.3,1.09c.1.32.51.54,1.13.47A2.943,2.943,0,0,0,397.64,649.72ZM385.5,634.5c.12-.12.09-.36-.11-.72a2.571,2.571,0,0,0-.43-.59c-.21-.19-.46-.4-.75-.62a11.092,11.092,0,0,0-1.04-.53c-.39-.14-.81-.25-1.26-.37a10.806,10.806,0,0,0-2.92-.13,13.045,13.045,0,0,0-4.89,1.42c-1.14.62-1.74,1.23-1.6,1.54.28.66,3.23-.14,6.71-.47a13.946,13.946,0,0,1,4.28.16q.375.105.72.18c.23.04.39.13.57.17C385.11,634.62,385.38,634.62,385.5,634.5ZM384,643a2.542,2.542,0,1,0-2.5,3A2.783,2.783,0,0,0,384,643Z" fill="#f3d2c2"/>
      <path id="Path_1327" data-name="Path 1327" d="M358.08,655.85a6.8,6.8,0,0,0,.41-.63,3.43,3.43,0,0,1,.33.59,4.2,4.2,0,0,1-.49.77.5.5,0,0,1-.07.08C358.18,656.32,358.12,656.06,358.08,655.85Z"/>
      <path id="Path_1328" data-name="Path 1328" d="M357.1,657.79a6.941,6.941,0,0,0,1.16-1.13c.1.37.22.84.37,1.41.21.74.43,1.55.68,2.44.06.23.13.46.19.69l.1.35a3.349,3.349,0,0,0,.14.41c.23.47.47.96.71,1.47s.51,1.02.77,1.56.66,1.04,1,1.59c.36.54.73,1.1,1.11,1.67.45.53.92,1.07,1.4,1.63.24.27.49.55.73.84.26.28.57.52.85.78.59.52,1.17,1.07,1.81,1.59.69.47,1.38.95,2.09,1.44s1.54.86,2.33,1.3a32.967,32.967,0,0,0,11.19,3.15h.05a8.449,8.449,0,0,0-1.19,2.2,21.14,21.14,0,0,0-5.96,1.13,21.852,21.852,0,0,0-5.49,2.36c-.67-.45-1.33-.9-1.98-1.34-.63-.43-1.25-.84-1.85-1.24-1.22-.8-2.36-1.56-3.44-2.28-2.17-1.42-4.06-2.64-5.64-3.63-1.98-1.24-3.45-2.12-4.29-2.55.01-.03.01-.06.02-.09.09-.55.17-1.09.25-1.61a47.682,47.682,0,0,0,0-9.88c-.13-1.16-.26-2.06-.39-2.64a4.123,4.123,0,0,0,1.59-.5A13.386,13.386,0,0,0,357.1,657.79Z" fill="#f3d2c2"/>
      <path id="Path_1329" data-name="Path 1329" d="M358.08,655.85c-.16-.79-.08-.84.03-.87.09-.02.19-.03.38.24A6.8,6.8,0,0,1,358.08,655.85Z"/>
      <path id="Path_1330" data-name="Path 1330" d="M357.51,774.45c.04.64.1,1-.01,1.05-.09.05-.35-.19-.6-.74C357.1,774.66,357.31,774.56,357.51,774.45Z"/>
      <path id="Path_1331" data-name="Path 1331" d="M361.11,799.44c-1.42,1.28-2.91,2.53-4.47,3.73a75.052,75.052,0,0,0-2.95-11.55,73.994,73.994,0,0,0-4.34-11.18c.77-.37,1.56-.73,2.35-1.1q2.565-1.23,5.25-2.53,1.695,5.46,3.53,11.35,1,3.21,2.05,6.54c.17.55.35,1.11.52,1.67l.25.78c0,.04.05.1,0,.13l-.32.33c-.19.21-.4.41-.6.62C361.97,798.64,361.54,799.03,361.11,799.44Z" fill="#fffff8"/>
      <path id="Path_1332" data-name="Path 1332" d="M356.68,774.21a5.06,5.06,0,0,1-.19-.93A9.361,9.361,0,0,1,359,768c1-1,6-2,6-2l-.11-.59a5.073,5.073,0,0,1,.53.06.585.585,0,0,1,.13.02c.38,1.04.67,1.59.83,1.55.07-.01.11-.13.13-.35L367,769l2,2,16-5,2-2-.04-.97a.319.319,0,0,1,.14-.03c.17.35.31.52.4.5s.13-.21.14-.54a2.282,2.282,0,0,1,.83.18,2.719,2.719,0,0,1,1.16.91,3.8,3.8,0,0,1,.74,2.25,4.479,4.479,0,0,1-.13,1.07c-.41-.1-.69-.01-.74.13-.1.19.09.48.35.88a7.653,7.653,0,0,1-.84,1.26,13.031,13.031,0,0,1-1.74,1.75c-1.02.85-1.65,1.23-1.77,1.11s.28-.74,1.06-1.78c.38-.51.86-1.14,1.31-1.88a4.121,4.121,0,0,0,.74-2.45,2.01,2.01,0,0,0-.49-1.13.674.674,0,0,0-.36-.25.353.353,0,0,0-.31.04,2.375,2.375,0,0,0-.99,1,5.207,5.207,0,0,1-.48.59,4.5,4.5,0,0,1-.56.47,8.565,8.565,0,0,1-1.13.69,26.688,26.688,0,0,1-4.76,1.71c-1.65.45-3.37.82-5.14,1.16-1.16.21-2.3.41-3.42.58l-1.67.24c-.84.11-1.68.21-2.5.32-.28-.59-.6-1.22-.81-1.77a10.415,10.415,0,0,1-.37-1.03,5.181,5.181,0,0,1-.25-1.16.1.1,0,0,0-.02-.07l-.01-.01c.01.01-.01-.01-.05-.03a1.869,1.869,0,0,0-.28-.08,2.836,2.836,0,0,0-.67-.06,4.927,4.927,0,0,0-1.45.23,9.687,9.687,0,0,0-2.63,1.26,6.612,6.612,0,0,0-1.81,1.64,5.293,5.293,0,0,0-.95,3.33c0,.14.01.27.01.39-.2.11-.41.21-.61.31A4.2,4.2,0,0,1,356.68,774.21Z"/>
      <path id="Path_1333" data-name="Path 1333" d="M356.64,803.17c.08.8.04,1.27-.14,1.33-.15.05-.39-.2-.69-.7C356.09,803.59,356.37,803.38,356.64,803.17Z"/>
      <path id="Path_1334" data-name="Path 1334" d="M356.9,774.76c-.12.07-.24.13-.36.19,0-.02-.01-.04-.01-.06a6.715,6.715,0,0,1-.04-1.61,5.06,5.06,0,0,0,.19.93A4.2,4.2,0,0,0,356.9,774.76Z" fill="#fffff8"/>
      <path id="Path_1335" data-name="Path 1335" d="M356.54,774.95c.27,1.99-1.35,1.82-2.48,1.46.03-.07.05-.15.08-.24C354.93,775.77,355.73,775.36,356.54,774.95Z"/>
      <path id="Path_1336" data-name="Path 1336" d="M359,768a9.361,9.361,0,0,0-2.51,5.28,5.565,5.565,0,0,1,.65-3.36,7.943,7.943,0,0,1,2.05-2.32,10.944,10.944,0,0,1,3.06-1.74,6.888,6.888,0,0,1,2.01-.44,4.382,4.382,0,0,1,.63-.01l.11.59S360,767,359,768Z"/>
      <path id="Path_1337" data-name="Path 1337" d="M354.14,776.17c1.3-3.96,4.4-18.34,7.65-35.56,2.79-14.88,4.92-27.75,5.6-33.66l.46-2.23c.31,0,.63.01.94.02.44,0,.89.01,1.35.01,1,0,1.95-.02,2.86-.06.79-.04,1.54-.08,2.24-.12-.22,3.05.3,12.34,1.35,23.29.98,10.13,2.13,18.77,2.93,22.35l-.16.03c-1.72.32-3.52.65-5.36.99-1.93.38-3.81.75-5.61,1.1q-3.285.69-6.23,1.29c.21.85.41,1.68.61,2.49.12.44.24.87.35,1.3q.345,1.26.66,2.4c.09.32.18.63.26.92l.85,4.68a4.382,4.382,0,0,0-.63.01,6.888,6.888,0,0,0-2.01.44,10.944,10.944,0,0,0-3.06,1.74,7.943,7.943,0,0,0-2.05,2.32,5.565,5.565,0,0,0-.65,3.36,6.715,6.715,0,0,0,.04,1.61c0,.02.01.04.01.06C355.73,775.36,354.93,775.77,354.14,776.17Z" fill="#ff7e00"/>
      <path id="Path_1338" data-name="Path 1338" d="M354.95,658.17a14.609,14.609,0,0,0,1.63-.96,6.935,6.935,0,0,0,1.2-1.01,3.266,3.266,0,0,0,.3-.35c.04.21.1.47.18.81a6.941,6.941,0,0,1-1.16,1.13,13.386,13.386,0,0,1-1.69,1.12,4.123,4.123,0,0,1-1.59.5c-.12-.61-.24-.92-.32-.91A3.432,3.432,0,0,0,354.95,658.17Z"/>
      <path id="Path_1339" data-name="Path 1339" d="M361.79,740.61c-3.25,17.22-6.35,31.6-7.65,35.56-.05.03-.11.05-.16.08a1.3,1.3,0,0,1-.17.08c-.1-.03-.2-.07-.29-.1.05-1.14.29-3.2.68-5.98l13.19-63.3C366.71,712.86,364.58,725.73,361.79,740.61Z"/>
      <path id="Path_1340" data-name="Path 1340" d="M367.39,706.95l-13.19,63.3c.95-6.75,2.8-17.73,5.13-30.1,3.21-17.12,6.32-31.44,7.63-35.5a.263.263,0,0,1,.06.05c.19,0,.38.01.57.01C367.56,705.27,367.49,706.02,367.39,706.95Z"/>
      <path id="Path_1341" data-name="Path 1341" d="M353,776l1.2-5.75c-.39,2.78-.63,4.84-.68,5.98C353.21,776.1,353,776,353,776Z" fill="#ff7e00"/>
      <path id="Path_1342" data-name="Path 1342" d="M353.98,776.25c.05-.03.11-.05.16-.08-.03.09-.05.17-.08.24a1.828,1.828,0,0,1-.25-.08A1.3,1.3,0,0,0,353.98,776.25Z"/>
      <path id="Path_1343" data-name="Path 1343" d="M353.81,776.33c-.1.05-.19.1-.29.15a2.088,2.088,0,0,1,0-.25C353.61,776.26,353.71,776.3,353.81,776.33Z"/>
      <path id="Path_1344" data-name="Path 1344" d="M354.06,776.41c-.2.57-.35.87-.44.85s-.12-.28-.1-.78c.1-.05.19-.1.29-.15A1.828,1.828,0,0,0,354.06,776.41Z"/>
      <path id="Path_1345" data-name="Path 1345" d="M353.11,673.34c.04-.07.33.03.83.29-.04.18-.08.36-.11.54C353.31,673.7,353.06,673.42,353.11,673.34Z"/>
      <path id="Path_1346" data-name="Path 1346" d="M353.82,659.41a2.808,2.808,0,0,1-.5.04c.04-.61.09-.94.18-.95S353.7,658.8,353.82,659.41Z"/>
      <path id="Path_1347" data-name="Path 1347" d="M353.69,791.62a75.052,75.052,0,0,1,2.95,11.55c-.27.21-.55.42-.83.63a67.294,67.294,0,0,1-4.5-11.42,75.105,75.105,0,0,1-2.94-11.48c.33-.16.65-.31.98-.46A73.994,73.994,0,0,1,353.69,791.62Z"/>
      <path id="Path_1348" data-name="Path 1348" d="M350.49,594.12c.95-1.08,2.78-.87,5.13-.82l-.31.03c-.32.03-.63.04-.95.05l-1.09.04a7.951,7.951,0,0,0-2.39.51A2.328,2.328,0,0,0,350.49,594.12Z" fill="#fffff8"/>
      <path id="Path_1349" data-name="Path 1349" d="M353.17,659.44a.756.756,0,0,0,.15.01c-.01.11-.01.24-.02.37C353.25,659.67,353.21,659.55,353.17,659.44Z" fill="#fffff8"/>
      <path id="Path_1350" data-name="Path 1350" d="M384.32,894.7c-1.33-.05-2.67-.11-4.01-.17-9.79-.51-19.32-1.11-28.53-1.51-5.32-.23-10.53-.43-15.61-.52l28.15-.32c7.59.26,13.87.54,16.68.82,5.37.54,13.76.11,20.38-.4h.04c4.6.17,8.02.3,9.6.36a.109.109,0,0,1-.02.04l.01.75-3.22.21-3.81.21q-3.84.21-7.74.36c-2.61.1-5.23.18-7.89.21C387.04,894.75,385.66,894.76,384.32,894.7Z"/>
      <path id="Path_1351" data-name="Path 1351" d="M352,595l4-1,11.94-2.26,2.79-.69h.02c2.19-.31,4.47-.57,6.69-.7h.01L382,591l6,2,5.09,3.34,2.88,3.42.01.01a65.331,65.331,0,0,1,3.49,6.13v1.63l-1.33,1.33-.39-.39a1.486,1.486,0,0,0,.38-.47,2.378,2.378,0,0,0,.02-1.44,11.951,11.951,0,0,0-1.87-3.6,54.374,54.374,0,0,0-5.79-6.67,14.211,14.211,0,0,0-7.28-3.83,28.186,28.186,0,0,0-8.61-.27c-5.79.57-11.27,2.21-16.92,3.12-.71.11-1.43.2-2.16.25-.37.03-.74.04-1.12.05l-.95.02a5.469,5.469,0,0,0-1.56.3c-.09.04-.17.07-.24.11Z"/>
      <path id="Path_1352" data-name="Path 1352" d="M351.65,596.04l-.45,1.36a1.654,1.654,0,0,1,0-.86A.865.865,0,0,1,351.65,596.04Z" fill="#fffff8"/>
      <path id="Path_1353" data-name="Path 1353" d="M350,617v6C348,616,350,617,350,617Z" fill="#fffff8"/>
      <path id="Path_1354" data-name="Path 1354" d="M353,673a19.239,19.239,0,0,0,.3-13.18c.01-.13.01-.26.02-.37a2.808,2.808,0,0,0,.5-.04c.13.58.26,1.48.39,2.64a47.682,47.682,0,0,1,0,9.88c-.08.52-.16,1.06-.25,1.61-.01.03-.01.06-.02.09-.5-.26-.79-.36-.83-.29s.2.36.72.83c-.08.35-.16.71-.28,1.07a9.038,9.038,0,0,1-1.82,3.49c-.84.89-1.73,1.79-2.7,2.69l-.29.26C350.03,680.19,351.12,677.38,353,673Z"/>
      <path id="Path_1355" data-name="Path 1355" d="M349.35,780.44c-.33.15-.65.3-.98.46-.09-.84-.06-1.34.13-1.4S348.97,779.79,349.35,780.44Z"/>
      <path id="Path_1356" data-name="Path 1356" d="M357.81,700.99c-.66-.88-1.32-1.76-1.99-2.65-1.88-2.52-3.71-4.98-5.48-7.35q-2.73-3.7-5.24-7.12a1.8,1.8,0,0,1-.23-.58,2,2,0,0,1,.21-.1c.02-.01.03-.02.05-.02A4.156,4.156,0,0,1,346,683a3.248,3.248,0,0,0,1.61-.38c-.07.05-.13.1-.2.15l-.12.08a.076.076,0,0,0-.02.04.078.078,0,0,0,.02.08c1.6,2.09,3.27,4.28,5.01,6.55,1.78,2.36,3.63,4.81,5.52,7.32.67.89,1.33,1.78,1.98,2.65l.25.33.06.08.01.02.03.03a.311.311,0,0,0,.13.06.279.279,0,0,0,.29-.09q1.59-2.655,3.11-5.19,1.575-2.61,3.05-5.07c.49-.81.98-1.61,1.46-2.4.23-.39.47-.78.7-1.16l.09-.14.02-.03.03-.04.06-.08c-2.28-1.68-4.36-3.22-6.21-4.59-2.08-1.54-3.88-2.9-5.35-4.04-1.71-1.32-2.97-2.34-3.7-3.01.03-.18.07-.36.11-.54.84.43,2.31,1.31,4.29,2.55,1.58.99,3.47,2.21,5.64,3.63,1.08.72,2.22,1.48,3.44,2.28.6.4,1.22.81,1.85,1.24.65.44,1.31.89,1.98,1.34-.47.33-.7.62-.64.83-.14.07-.02.63.32,1.59-.87,1.51-1.76,3.08-2.69,4.69-.88.15-1.46.46-1.49.84a.6.6,0,0,0,.28.51l-3.78,5.66c-.29-.13-.5-.14-.59-.05-.17.19.08.76.66,1.59l-.21.36a7.054,7.054,0,0,1-.56.86,2.788,2.788,0,0,1-3.95.25,1.539,1.539,0,0,1-.25-.26l-.12-.14-.06-.08Z"/>
      <path id="Path_1357" data-name="Path 1357" d="M347,615v6C345,614,347,615,347,615Z" fill="#fffff8"/>
      <path id="Path_1358" data-name="Path 1358" d="M353.3,659.82A19.239,19.239,0,0,1,353,673c-1.88,4.38-2.97,7.19-4.26,8.68a13.723,13.723,0,0,1-1.13.94A3.248,3.248,0,0,1,346,683a4.156,4.156,0,0,0-.87.17,21.094,21.094,0,0,0,3.37-1.67,21.321,21.321,0,0,0-3.61,1.22c-.02.01-.05.02-.07.03a1.731,1.731,0,0,1,.13-.63,1.871,1.871,0,0,1,.5-.74,2.073,2.073,0,0,1,.37-.27l.31-.2a14.421,14.421,0,0,0,1.43-1.13c.95-.82,1.84-1.67,2.7-2.5a7.465,7.465,0,0,0,1.46-2.63c.18-.49.29-1.01.43-1.49.11-.51.21-1.01.31-1.5a68.024,68.024,0,0,0,.77-9.57C353.25,661.16,353.27,660.4,353.3,659.82Z"/>
      <path id="Path_1359" data-name="Path 1359" d="M344.89,682.72a21.321,21.321,0,0,1,3.61-1.22,21.094,21.094,0,0,1-3.37,1.67c-.08.02-.17.04-.27.07a1.6,1.6,0,0,1-.04-.49C344.84,682.74,344.87,682.73,344.89,682.72Z"/>
      <path id="Path_1360" data-name="Path 1360" d="M344,619v-6S342,612,344,619Zm3-4s-2-1,0,6Zm3,2s-2-1,0,6Zm5.73,27.64-.49-.33a17.946,17.946,0,0,0-4.12-2.09,8.067,8.067,0,0,0-4.78-.31,9.761,9.761,0,0,0-1.15.5c-.31.24-.63.49-.93.74-.09.11-.18.22-.26.33-.21-.6-.53-1.44-.93-2.53-.61-1.7-1.45-3.97-2.35-6.8a1.023,1.023,0,0,0-.04-.14c-2.46-8.34-3.2-13.95-3.07-18,.02-.32.06-.65.1-.97a10.917,10.917,0,0,1,1.48-4.37,12.959,12.959,0,0,1,3.19-3.86,14.129,14.129,0,0,1,4.78-2.54,15.657,15.657,0,0,1,2.83-.61,17.175,17.175,0,0,1,2.3-.14c1.06.04,2.3.12,3.44.2-.76-.84-1.76-1.83-2.47-2.7-.18-.22-.36-.44-.52-.67l-.23-.31-.12-.17c-.17-.24-.31-.48-.45-.72a6.149,6.149,0,0,1-.74-1.74v-.01l.45-1.36c.07-.04.15-.07.24-.11a5.469,5.469,0,0,1,1.56-.3l.95-.02c.38-.01.75-.02,1.12-.05.73-.05,1.45-.14,2.16-.25,5.65-.91,11.13-2.55,16.92-3.12a28.186,28.186,0,0,1,8.61.27,14.211,14.211,0,0,1,7.28,3.83,54.374,54.374,0,0,1,5.79,6.67,11.951,11.951,0,0,1,1.87,3.6,2.378,2.378,0,0,1-.02,1.44,1.486,1.486,0,0,1-.38.47,3.28,3.28,0,0,1-.66.4l-.6.22-.69.15c-.48.1-1.04.19-1.56.27-1.07.17-2.14.32-3.21.47-2.15.27-4.28.52-6.41.72a116.4,116.4,0,0,1-12.55.57,48.68,48.68,0,0,1-5.99-.42,19.076,19.076,0,0,1-2.75-.61l-.66-.19-.57-.27c-.23-.1-.45-.22-.67-.29l-.65-.18a2.471,2.471,0,0,0-1.27.38,2.783,2.783,0,0,0-.42.35A.79.79,0,0,0,359,610v.12a2.366,2.366,0,0,0-.4.54,2.485,2.485,0,0,0-.27.58,2.149,2.149,0,0,0-.13.44,6.31,6.31,0,0,0-.14,1.64,14.456,14.456,0,0,0,.15,1.49l.25,1.3a29.677,29.677,0,0,1-.03,5.07c-.23,3.44-.6,6.84-.85,10.15a60.587,60.587,0,0,0-.19,9.79,11.486,11.486,0,0,0,.5,2.48,4.315,4.315,0,0,0,.73,1.33c.09.1.22.25.29.31l.19.19c.11.1.31.29.31.29a1.315,1.315,0,0,1,.17.22.18.18,0,0,1-.01.22.364.364,0,0,1-.23.09c0,.02-.08-.02-.15-.05l-.22-.1-.43-.19c-.57-.25-1.14-.5-1.7-.75l-.84-.37C355.79,644.69,355.89,644.76,355.73,644.64Z" fill="#392a2d"/>
      <path id="Path_1361" data-name="Path 1361" d="M345.13,683.17c-.02,0-.03.01-.05.02a2,2,0,0,0-.21.1.075.075,0,0,1-.01-.05C344.96,683.21,345.05,683.19,345.13,683.17Z"/>
      <path id="Path_1362" data-name="Path 1362" d="M356.34,646.98c-.4-.17-.8-.34-1.2-.5-.1-.05-.19-.08-.36-.16a2.142,2.142,0,0,1-.34-.23l-.42-.3a15.863,15.863,0,0,0-3.6-1.92,6.075,6.075,0,0,0-3.51-.36c-.25.07-.47.2-.72.29l-.61.46-.5.6a2.759,2.759,0,0,0-.36.65,5.608,5.608,0,0,0-.21,3.02,12.224,12.224,0,0,0,.97,2.94,15.584,15.584,0,0,0,3.34,4.68,7.971,7.971,0,0,0,4.2,2.32,3.986,3.986,0,0,0,.48.03c-.09.01-.14.34-.18.95a.756.756,0,0,1-.15-.01c-.1-.29-.17-.44-.17-.44l-2-1s-6-3-7-7a14.038,14.038,0,0,1-.13-6.49c.19.44.3.58.32.34a1.823,1.823,0,0,1,.06-.35h.02c.02-.01.02-.04.01-.1,0,0,.01,0,0-.01.52-1.64,2.96-1.39,5.72-1.39,3,0,9,4,9,4l1-1-1-1-1-8,2-14-1-8v-4.88a.65.65,0,0,1,.09-.08,43.732,43.732,0,0,0,15.88,3.43v.26c-.99.01-1.97.01-2.95-.01a50.574,50.574,0,0,1-6.38-.48,22.607,22.607,0,0,1-3.17-.72l-.8-.24-.76-.36c-.01-.02-.04-.03-.05-.01-.01,0-.02.01-.03.02s.01-.02-.01.05a.858.858,0,0,0-.07.21,4.969,4.969,0,0,0-.09,1.07c.01.39.07.79.12,1.2l.24,1.35a30.609,30.609,0,0,1-.06,5.52c-.27,3.51-.68,6.89-.97,10.17a58.419,58.419,0,0,0-.33,9.43,9.805,9.805,0,0,0,.37,2.06,2.262,2.262,0,0,0,.35.7.758.758,0,0,0,.1.13l.24.23a4.253,4.253,0,0,1,.5.55c.9.98,1.38,2.27.52,3.14a2.792,2.792,0,0,1-1.61.7.5.5,0,0,1-.38-.06l-.32-.13-.62-.25C357.98,647.65,357.16,647.31,356.34,646.98Z"/>
      <path id="Path_1363" data-name="Path 1363" d="M359,647s-6-4-9-4c-2.76,0-5.2-.25-5.72,1.39a7.049,7.049,0,0,0-.28-.91c.08-.11.17-.22.26-.33.3-.25.62-.5.93-.74a9.761,9.761,0,0,1,1.15-.5,8.067,8.067,0,0,1,4.78.31,17.946,17.946,0,0,1,4.12,2.09l.49.33c.16.12.06.05.27.15l.84.37c.56.25,1.13.5,1.7.75l.43.19.22.1c.07.03.15.07.15.05a.364.364,0,0,0,.23-.09.18.18,0,0,0,.01-.22,1.315,1.315,0,0,0-.17-.22s-.2-.19-.31-.29l-.19-.19c-.07-.06-.2-.21-.29-.31a4.315,4.315,0,0,1-.73-1.33,11.486,11.486,0,0,1-.5-2.48,60.587,60.587,0,0,1,.19-9.79c.25-3.31.62-6.71.85-10.15a29.677,29.677,0,0,0,.03-5.07l-.25-1.3a14.456,14.456,0,0,1-.15-1.49,6.31,6.31,0,0,1,.14-1.64,2.149,2.149,0,0,1,.13-.44,2.485,2.485,0,0,1,.27-.58,2.366,2.366,0,0,1,.4-.54V615l1,8-2,14,1,8,1,1Z"/>
      <path id="Path_1364" data-name="Path 1364" d="M344.28,644.4c.01.06.01.09-.01.1h-.02C344.26,644.46,344.27,644.43,344.28,644.4Z"/>
      <path id="Path_1365" data-name="Path 1365" d="M344,643.48a7.049,7.049,0,0,1,.28.91c.01.01,0,.01,0,.01-.01.03-.02.06-.03.1a1.488,1.488,0,0,1-.29-.37c.03-.09.04-.13.04-.13-.04-.12-.09-.24-.13-.36A1.839,1.839,0,0,1,344,643.48Z"/>
      <path id="Path_1366" data-name="Path 1366" d="M343.96,644.13a1.488,1.488,0,0,0,.29.37,1.823,1.823,0,0,0-.06.35c-.02.24-.13.1-.32-.34C343.9,644.34,343.94,644.21,343.96,644.13Z"/>
      <path id="Path_1367" data-name="Path 1367" d="M344,613v6C342,612,344,613,344,613Z" fill="#fffff8"/>
      <path id="Path_1368" data-name="Path 1368" d="M343.76,643.78a1.337,1.337,0,0,1,.11-.14c.04.12.09.24.13.36,0,0-.01.04-.04.13C343.91,644.04,343.84,643.92,343.76,643.78Z"/>
      <path id="Path_1369" data-name="Path 1369" d="M343.76,643.78c.08.14.15.26.2.35-.02.08-.06.21-.09.38-.07-.15-.15-.35-.23-.58A.788.788,0,0,1,343.76,643.78Z"/>
      <path id="Path_1370" data-name="Path 1370" d="M343.76,643.78a.788.788,0,0,0-.12.15c-.12-.3-.25-.66-.39-1.09C343.45,643.22,343.62,643.53,343.76,643.78Z" fill="#392a2d"/>
      <path id="Path_1371" data-name="Path 1371" d="M353,659s.07.15.17.44a2.258,2.258,0,0,1-.26-.01,8.933,8.933,0,0,1-5.02-2.44,16.977,16.977,0,0,1-3.82-4.95,13.341,13.341,0,0,1-1.18-3.25,6.887,6.887,0,0,1,.19-3.82,4.578,4.578,0,0,1,.49-.96.5.5,0,0,1,.07-.08c.08.23.16.43.23.58A14.038,14.038,0,0,0,344,651c1,4,7,7,7,7Z"/>
      <path id="Path_1372" data-name="Path 1372" d="M343.07,640.95c.4,1.09.72,1.93.93,2.53a1.839,1.839,0,0,0-.13.16c-1.27-3.51-2.31-6.66-3.15-9.49C341.62,636.98,342.46,639.25,343.07,640.95Z"/>
      <path id="Path_1373" data-name="Path 1373" d="M356,594l-4,1-.35,1.04a.865.865,0,0,0-.45.5,1.654,1.654,0,0,0,0,.86v.01l-.2.59,2,5-6.38.62-6.13,3.57-2.71,6.51A19.031,19.031,0,0,1,339,609c2-5,13-7,13-7s-3-4-2-7a2.4,2.4,0,0,1,.49-.88,2.328,2.328,0,0,1,.39-.19,7.951,7.951,0,0,1,2.39-.51l1.09-.04c.32-.01.63-.02.95-.05l.31-.03A19.437,19.437,0,0,0,360,593c2.01-.4,6.14-1.29,10.73-1.95l-2.79.69Z"/>
      <path id="Path_1374" data-name="Path 1374" d="M353.26,601.02c.71.87,1.71,1.86,2.47,2.7-1.14-.08-2.38-.16-3.44-.2a17.175,17.175,0,0,0-2.3.14,15.657,15.657,0,0,0-2.83.61,14.129,14.129,0,0,0-4.78,2.54,12.959,12.959,0,0,0-3.19,3.86,10.917,10.917,0,0,0-1.48,4.37c-.04.32-.08.65-.1.97a22.736,22.736,0,0,1,.17-2.31l2.71-6.51,6.13-3.57L353,603l-2-5,.2-.59a6.149,6.149,0,0,0,.74,1.74c.14.24.28.48.45.72l.12.17.23.31C352.9,600.58,353.08,600.8,353.26,601.02Z"/>
      <path id="Path_1375" data-name="Path 1375" d="M337.61,616.01c-.13,4.05.61,9.66,3.07,18-.3-.96-.61-1.99-.92-3.08a67.592,67.592,0,0,1-1.68-7.29A31.153,31.153,0,0,1,337.61,616.01Z" fill="#392a2d"/>
      <path id="Path_1376" data-name="Path 1376" d="M343.76,643.78c-.14-.25-.31-.56-.51-.94,0-.01-.01-.02-.01-.03C341.08,636.42,336,618,336,618l1.78-4.3a22.736,22.736,0,0,0-.17,2.31,31.153,31.153,0,0,0,.47,7.63,67.592,67.592,0,0,0,1.68,7.29c.31,1.09.62,2.12.92,3.08a1.023,1.023,0,0,1,.04.14c.84,2.83,1.88,5.98,3.15,9.49A1.337,1.337,0,0,0,343.76,643.78Z"/>
      <path id="Path_1377" data-name="Path 1377" d="M336,618s5.08,18.42,7.24,24.81c-.24-.46-.51-1-.81-1.64a86.929,86.929,0,0,1-3.94-9.92,66.094,66.094,0,0,1-1.99-7.36,36.621,36.621,0,0,1-.73-5.88Z"/>
      <path id="Path_1378" data-name="Path 1378" d="M350,595c-1,3,2,7,2,7s-11,2-13,7a19.031,19.031,0,0,0-1.22,4.7L336,618l-.23.01a22.537,22.537,0,0,1,.1-3.16,14.083,14.083,0,0,1,.49-2.51c.13-.42.29-.85.46-1.27.2-.39.4-.8.6-1.2a14.837,14.837,0,0,1,3.54-4.46,16.21,16.21,0,0,1,5.48-3.02,17.963,17.963,0,0,1,3.22-.75c.71-.1.76-.1.91-.11a1.153,1.153,0,0,1,.26-.01c-.04-.07-.14-.16-.19-.23l-.05-.05-.18-.26c-.18-.26-.36-.54-.53-.82a8.752,8.752,0,0,1-.87-1.85,3.83,3.83,0,0,1-.1-2.39,2.84,2.84,0,0,1,.78-1.23,3.562,3.562,0,0,1,.8-.57A2.4,2.4,0,0,0,350,595Z"/>
      <path id="Path_1379" data-name="Path 1379" d="M336,892.5l-13.66.15c.97-.06,1.95-.09,2.93-.12C328.77,892.44,332.35,892.44,336,892.5Z" fill="#603813"/>
      <path id="Path_1380" data-name="Path 1380" d="M351.63,856.49c3.96,2.27,6.95,2.56,6.87,3.01-.02.17-.76.21-2.12.12a23.083,23.083,0,0,1-2.44-.44,22.368,22.368,0,0,1-3.11-1.11,23.862,23.862,0,0,1-7.03-4.94,34.369,34.369,0,0,1-6.08-8.51,57.72,57.72,0,0,1-5.59-17.85,38.112,38.112,0,0,1-.47-6.51c.22-.1.45-.2.67-.3.33,1.19.8,3.46,1.54,6.47a77.761,77.761,0,0,0,6.06,17.03,37.164,37.164,0,0,0,5.53,8.07A25.568,25.568,0,0,0,351.63,856.49Z"/>
      <path id="Path_1381" data-name="Path 1381" d="M332.33,819.96c-.22.1-.45.2-.67.3.03-.79.12-1.21.25-1.22S332.16,819.36,332.33,819.96Z"/>
      <path id="Path_1382" data-name="Path 1382" d="M330.89,890.11c-1.92.01-3.82.05-5.7.11-2.13.08-4.25.21-6.34.43-1.02.12-2.03.24-3.04.44A44.688,44.688,0,0,1,325,890C326.07,890,328.12,890.04,330.89,890.11Z" fill="#603813"/>
      <path id="Path_1383" data-name="Path 1383" d="M313,892.75c1.49-.62,3.04-1.27,3.36-1.43.46-.23,28.51.22,47.96.86l-28.15.32H336c-3.65-.06-7.23-.06-10.73.03-.98.03-1.96.06-2.93.12Z"/>
      <path id="Path_1384" data-name="Path 1384" d="M364.32,892.18c-19.45-.64-47.5-1.09-47.96-.86-.32.16-1.87.81-3.36,1.43l-1.33.02.39-.33a3.5,3.5,0,0,1,.43-.28,8.763,8.763,0,0,1,1.96-.76c.42-.11.84-.2,1.26-.29.03-.01.07-.01.1-.02,1.01-.2,2.02-.32,3.04-.44,2.09-.22,4.21-.35,6.34-.43,1.88-.06,3.78-.1,5.7-.11,8.16.23,22.63.73,37.11,1.25h.08q5.91.33,11.95.65Z"/>
      <path id="Path_1385" data-name="Path 1385" d="M309.45,892.79c1.38-.44,3.1-.93,5-1.39a8.763,8.763,0,0,0-1.96.76,3.5,3.5,0,0,0-.43.28l-.39.33Z" fill="#603813"/>
      <path id="Path_1386" data-name="Path 1386" d="M311.67,892.77a3.464,3.464,0,0,1-.42.34,2.575,2.575,0,0,1-.97.39,4.614,4.614,0,0,1-2.26-.23c.42-.15.9-.31,1.43-.48Z" fill="#603813"/>
      <path id="Path_1387" data-name="Path 1387" d="M309.5,794.5c.92.19,4.85-19.68,6.7-44.52.23-3.11.39-6.15.51-9.09,0-1.49-.03-3-.09-4.45-.1-.72-.2-1.44-.29-2.15a12.937,12.937,0,0,0-.38-2.08,29.653,29.653,0,0,0-6.58-13.07,30.559,30.559,0,0,0-7.55-6.28c-2-1.15-3.25-1.52-3.32-1.36s1,.81,2.79,2.17a37.979,37.979,0,0,1,6.72,6.59,29.676,29.676,0,0,1,5.69,12.42,12.444,12.444,0,0,1,.3,1.94c.08.66.16,1.33.23,2,.04,1.36.05,2.74.03,4.17-.15,2.91-.32,5.92-.55,9.01-.91,12.34-2.1,23.51-2.96,31.59C309.92,789.48,309.22,794.42,309.5,794.5Zm6.77-1.81c-5.01,1.68-9.03,2.63-11.79,2.74a7.1,7.1,0,0,1-3.05-.41c-.64-.27-.88-.57-.93-.52-.02.01.16.38.81.77a6.709,6.709,0,0,0,3.17.69c2.87.06,7-.75,12.1-2.29a193.056,193.056,0,0,0,18.15-6.72q5.205-2.175,11.02-4.84c.86-.4,1.74-.8,2.62-1.21a75.105,75.105,0,0,0,2.94,11.48,67.294,67.294,0,0,0,4.5,11.42,121.014,121.014,0,0,1-19.87,11.88c-4.74,2.29-9.74,4.43-14.84,6.56-5.1,2.11-10.34,4.18-15.75,5.94a75.783,75.783,0,0,1-16.75,3.73,25.437,25.437,0,0,1-8.46-.56,12.08,12.08,0,0,1-6.78-4.35,6.248,6.248,0,0,1-.62-.9,8.228,8.228,0,0,1-.55-.96l-.48-1c-.14-.34-.22-.68-.33-1.02a20.488,20.488,0,0,1-.67-4.45,76.53,76.53,0,0,1,.2-9.33c.5-6.22,1.37-12.34,2.33-18.34,1.97-11.99,4.37-23.49,6.77-34.42,2.42-10.92,4.9-21.27,7.29-30.93q1.83-7.23,3.54-13.96c.29-1.12.58-2.23.86-3.32a9.92,9.92,0,0,1,1.13-2.84,4.3,4.3,0,0,1,.89-1.03,3.018,3.018,0,0,1,.52-.36,4.656,4.656,0,0,1,.64-.26c1.02-.38,2.03-.75,3.03-1.12,7.93-3.04,15.01-5.96,21.24-8.52s11.57-4.83,15.92-6.69c4.23-1.8,7.53-3.25,9.8-4.26a1.8,1.8,0,0,0,.23.58q2.5,3.405,5.24,7.12c1.77,2.37,3.6,4.83,5.48,7.35.67.89,1.33,1.77,1.99,2.65l.25.33.06.08.12.14a1.539,1.539,0,0,0,.25.26,2.788,2.788,0,0,0,3.95-.25,7.054,7.054,0,0,0,.56-.86l.21-.36c.07.1.14.2.22.31.37.5.83,1.07,1.38,1.7.27.31.57.64.87.98.34.36.49.54,1.28,1.32v.01c-1.31,4.06-4.42,18.38-7.63,35.5-2.33,12.37-4.18,23.35-5.13,30.1L353,776s.21.1.52.23a2.088,2.088,0,0,0,0,.25c-.87.43-1.74.85-2.59,1.28q-3.015,1.455-5.88,2.84-5.76,2.73-10.9,5C327.29,788.62,321.28,791.01,316.27,792.69Z" fill="#fffff8"/>
      <path id="Path_1388" data-name="Path 1388" d="M306.88,892.82l2.57-.03c-.53.17-1.01.33-1.43.48l-.1-.03A10.281,10.281,0,0,1,306.88,892.82Z"/>
      <path id="Path_1389" data-name="Path 1389" d="M310,894s1.47-.61,3-1.25l9.34-.1c-1.1.06-2.19.13-3.26.24-1,.1-2,.23-2.95.41a9.6,9.6,0,0,0-2.55.77,1.759,1.759,0,0,0-.2.12l-.07.06-.03.02-.09.08a5.411,5.411,0,0,1-.75.59,4.828,4.828,0,0,1-1.77.7,6.978,6.978,0,0,1-3.44-.37c-.08-.03-.16-.06-.23-.09V895l-1-.91V894s.51-.2,1.41-.52Z"/>
      <path id="Path_1390" data-name="Path 1390" d="M308.02,893.27c-.22.07-.42.14-.61.21l-2.67-.54-.11-.09,2.25-.03a10.281,10.281,0,0,0,1.04.42Z"/>
      <path id="Path_1391" data-name="Path 1391" d="M311.25,893.11a3.464,3.464,0,0,0,.42-.34l1.33-.02c-1.53.64-3,1.25-3,1.25l-2.59-.52c.19-.07.39-.14.61-.21a4.614,4.614,0,0,0,2.26.23A2.575,2.575,0,0,0,311.25,893.11Z"/>
      <path id="Path_1392" data-name="Path 1392" d="M360.27,995.25h.95l.03,1.23L306,997l.02-2.36,1.63.01c0,.22.01.45.01.68C324.07,995.3,341.78,995.28,360.27,995.25Z"/>
      <path id="Path_1393" data-name="Path 1393" d="M307,895.18c-.35-.13-.68-.27-1-.42v-.67l1,.91Z"/>
      <path id="Path_1394" data-name="Path 1394" d="M306.02,994.64l.63-63.8c.13,7.27.28,15.45.44,24.4.17,11.87.36,25.13.56,39.41Z"/>
      <path id="Path_1395" data-name="Path 1395" d="M306,894.76c.32.15.65.29,1,.42l-.35,35.66q-.075-4.23-.15-8.03c-.18-8.49-.35-15.34-.51-20.24v-.02Z" fill="#603813"/>
      <path id="Path_1396" data-name="Path 1396" d="M305.89,994.64l.1-92.07c.16,4.9.33,11.75.51,20.24q.075,3.8.15,8.03l-.63,63.8Z"/>
      <path id="Path_1397" data-name="Path 1397" d="M306,894.09l-1.26-1.15,2.67.54c-.9.32-1.41.52-1.41.52Z"/>
      <path id="Path_1398" data-name="Path 1398" d="M305.06,922.83c.01-9.08.05-16.28.13-21.22.03-2.47.08-4.37.13-5.66.03-.66.05-1.16.09-1.49a2.127,2.127,0,0,0,.21.11c.03.33.06.79.1,1.38.07,1.28.16,3.18.24,5.65.01.31.02.63.03.95v.02l-.1,92.07h.13L306,997l55.25-.52v.07l2.33-.09,28.02-.27L413,997l-.22-23.18.03.78q.24,5.235.49,10.7c.09,1.82.18,3.66.28,5.51.05.91.11,1.9.09,2.84,0,1.34.01,2.68.01,4.03-16.7.02-34.68.04-53.41.07-19.3-.03-37.8-.05-54.93-.08-.09-15.37-.16-29.65-.23-42.41C305.09,942.85,305.07,931.9,305.06,922.83Z"/>
      <path id="Path_1399" data-name="Path 1399" d="M305.62,894.57a2.127,2.127,0,0,1-.21-.11c.02-.3.06-.46.09-.46S305.58,894.19,305.62,894.57Z"/>
      <path id="Path_1400" data-name="Path 1400" d="M304.74,892.94l-.46-.09h.35Z"/>
      <path id="Path_1401" data-name="Path 1401" d="M316.62,736.44c.06,1.45.09,2.96.09,4.45-.12,2.94-.28,5.98-.51,9.09-1.85,24.84-5.78,44.71-6.7,44.52-.28-.08.42-5.02,1.25-13.11.86-8.08,2.05-19.25,2.96-31.59.23-3.09.4-6.1.55-9.01.02-1.43.01-2.81-.03-4.17-.07-.67-.15-1.34-.23-2a12.444,12.444,0,0,0-.3-1.94,29.676,29.676,0,0,0-5.69-12.42,37.979,37.979,0,0,0-6.72-6.59c-1.79-1.36-2.86-2.01-2.79-2.17s1.32.21,3.32,1.36a30.559,30.559,0,0,1,7.55,6.28,29.653,29.653,0,0,1,6.58,13.07,12.937,12.937,0,0,1,.38,2.08C316.42,735,316.52,735.72,316.62,736.44Z"/>
      <path id="Path_1402" data-name="Path 1402" d="M299.21,886.95a42.386,42.386,0,0,0,4.05,3.61,19.538,19.538,0,0,0,3.62,2.26l-2.25.03L296,885l-.78-41.34v-1.01c.01-3.59.04-6.38.08-8.27.01-.34.02-.66.03-.94.14-.03.27-.06.41-.08.02.3.05.64.07,1.02.11,1.88.24,4.67.38,8.25.29,7.17.61,17.55.96,30.37q.135,4.815.27,10.07.015.645.03,1.32l.02.64c0,.05-.01.1.04.13l.77.84Z"/>
      <path id="Path_1403" data-name="Path 1403" d="M295.33,833.44a6.825,6.825,0,0,1,.17-1.94,6.527,6.527,0,0,1,.24,1.86C295.6,833.38,295.47,833.41,295.33,833.44Z"/>
      <path id="Path_1404" data-name="Path 1404" d="M296,885l8.63,7.85h-.35l.46.09,1.26,1.15v.67c-.13-.06-.26-.12-.38-.19q-.06-.57-.12-.57c-.03,0-.07.16-.09.46a23.071,23.071,0,0,1-3.42-2.27,44.375,44.375,0,0,1-4.21-3.83l-.95-1.01-.46-.51-.57-.64c-.36-.27-.27-.7-.29-1.09v-.69c-.01-.44-.01-.88-.02-1.32-.04-3.5-.07-6.86-.1-10.06-.12-12.24-.18-22.26-.17-29.38Z"/>
      <path id="Path_1405" data-name="Path 1405" d="M295.3,834.38c-.04,1.89-.07,4.68-.08,8.27v1.01l-.19-10.16.3-.06C295.32,833.72,295.31,834.04,295.3,834.38Z" fill="#fffff8"/>
      <path id="Path_1406" data-name="Path 1406" d="M301.43,795.02a7.1,7.1,0,0,0,3.05.41c2.76-.11,6.78-1.06,11.79-2.74s11.02-4.07,17.88-7.09q5.13-2.265,10.9-5,2.865-1.38,5.88-2.84c.85-.43,1.72-.85,2.59-1.28-.02.5.02.76.1.78s.24-.28.44-.85c1.13.36,2.75.53,2.48-1.46.12-.06.24-.12.36-.19.25.55.51.79.6.74.11-.05.05-.41.01-1.05l.54-.27q2.085,6.435,4.33,13.38c.69,2.13,1.4,4.3,2.11,6.51.18.56.36,1.11.54,1.67l.29.89.1.31L365,797l-.22.25c-.18.08-.28.16-.28.25a.06.06,0,0,0,.01.04l-4.94,5.5c-.59-.44-.96-.64-1.07-.54-.13.12.1.62.63,1.44a115.711,115.711,0,0,1-22.16,13.83c-1.53.75-3.08,1.47-4.64,2.19-.17-.6-.3-.92-.42-.92s-.22.43-.25,1.22c-3.15,1.43-6.36,2.81-9.63,4.19-5.13,2.15-10.41,4.25-15.92,6.06a101.3,101.3,0,0,1-10.37,2.85,6.527,6.527,0,0,0-.24-1.86,6.825,6.825,0,0,0-.17,1.94l-.3.06L295,832c-28,6-25-10-25-21s9-58,9-58,8-26,10-38,5-12,5-12,42.86-17.49,50.86-19.76a.075.075,0,0,0,.01.05c-2.27,1.01-5.57,2.46-9.8,4.26-4.35,1.86-9.7,4.12-15.92,6.69s-13.31,5.48-21.24,8.52c-1,.37-2.01.74-3.03,1.12a4.656,4.656,0,0,0-.64.26,3.018,3.018,0,0,0-.52.36,4.3,4.3,0,0,0-.89,1.03,9.92,9.92,0,0,0-1.13,2.84c-.28,1.09-.57,2.2-.86,3.32q-1.71,6.72-3.54,13.96c-2.39,9.66-4.87,20.01-7.29,30.93-2.4,10.93-4.8,22.43-6.77,34.42-.96,6-1.83,12.12-2.33,18.34a76.53,76.53,0,0,0-.2,9.33,20.488,20.488,0,0,0,.67,4.45c.11.34.19.68.33,1.02l.48,1a8.228,8.228,0,0,0,.55.96,6.248,6.248,0,0,0,.62.9,12.08,12.08,0,0,0,6.78,4.35,25.437,25.437,0,0,0,8.46.56,75.783,75.783,0,0,0,16.75-3.73c5.41-1.76,10.65-3.83,15.75-5.94,5.1-2.13,10.1-4.27,14.84-6.56a121.014,121.014,0,0,0,19.87-11.88c.3.5.54.75.69.7.18-.06.22-.53.14-1.33,1.56-1.2,3.05-2.45,4.47-3.73.43-.41.86-.8,1.27-1.21.2-.21.41-.41.6-.62l.32-.33c.05-.03,0-.09,0-.13l-.25-.78c-.17-.56-.35-1.12-.52-1.67q-1.05-3.33-2.05-6.54-1.83-5.88-3.53-11.35-2.685,1.3-5.25,2.53c-.79.37-1.58.73-2.35,1.1-.38-.65-.67-1-.85-.94s-.22.56-.13,1.4c-.88.41-1.76.81-2.62,1.21q-5.8,2.655-11.02,4.84a193.056,193.056,0,0,1-18.15,6.72c-5.1,1.54-9.23,2.35-12.1,2.29a6.709,6.709,0,0,1-3.17-.69c-.65-.39-.83-.76-.81-.77C300.55,794.45,300.79,794.75,301.43,795.02Z"/>
      <path id="Path_1407" data-name="Path 1407" d="M344.86,683.24C336.86,685.51,294,703,294,703s-3,0-5,12-10,38-10,38-9,47-9,58-3,27,25,21l.03,1.5a55.461,55.461,0,0,1-6.24.89,27.4,27.4,0,0,1-9.29-.63,14.542,14.542,0,0,1-8.13-5.25,8.009,8.009,0,0,1-.75-1.08,9.264,9.264,0,0,1-.65-1.14l-.56-1.18c-.17-.4-.28-.85-.42-1.27a22.908,22.908,0,0,1-.77-5.02,77.545,77.545,0,0,1,.21-9.67c.52-6.34,1.41-12.51,2.4-18.54,2.01-12.07,4.46-23.59,6.93-34.53,2.49-10.94,5.04-21.28,7.53-30.94,1.24-4.82,2.48-9.48,3.68-13.95.31-1.11.61-2.22.91-3.31a11.372,11.372,0,0,1,1.4-3.36,5.814,5.814,0,0,1,1.28-1.44,4.418,4.418,0,0,1,.85-.55,5.778,5.778,0,0,1,.87-.36c1.01-.36,2.02-.72,3.01-1.07,7.94-2.91,15.07-5.72,21.34-8.16s11.66-4.56,16.08-6.29c4.37-1.71,7.77-3.02,10.11-3.9A1.6,1.6,0,0,0,344.86,683.24Z"/>
    </g>
  </g>
</svg>
